ISO-10303-21;
HEADER;
FILE_DESCRIPTION (( 'STEP AP203' ),
    '1' );
FILE_NAME ('Claw.STEP',
    '2026-09-06T09:32:50',
    ( '' ),
    ( '' ),
    'SwSTEP 2.0',
    'SolidWorks 2025',
    '' );
FILE_SCHEMA (( 'CONFIG_CONTROL_DESIGN' ));
ENDSEC;

DATA;
#1 = ORIENTED_EDGE ( 'NONE', *, *, #589, .F. ) ;
#2 = DIRECTION ( 'NONE',  ( -0.4908766005403559785, -0.7917444493575659381, 0.3635668988692845049 ) ) ;
#3 = PERSON ( 'UNSPECIFIED', 'UNSPECIFIED', 'UNSPECIFIED', ('UNSPECIFIED'), ('UNSPECIFIED'), ('UNSPECIFIED') ) ;
#4 = DIRECTION ( 'NONE',  ( 0.8493881131629322789, -0.5277628146696673461, -0.002498933665448482833 ) ) ;
#5 = EDGE_CURVE ( 'NONE', #409, #268, #780, .T. ) ;
#6 = ORIENTED_EDGE ( 'NONE', *, *, #169, .F. ) ;
#7 = DIRECTION ( 'NONE',  ( -0.003630753453945146682, -0.001108458478111530284, -0.9999927944486194376 ) ) ;
#8 = CARTESIAN_POINT ( 'NONE',  ( -0.1563317540681449791, 0.2101589571505654841, 0.07431810926809730156 ) ) ;
#9 = LOCAL_TIME ( 12, 32, 50.00000000000000000, #215 ) ;
#10 = VECTOR ( 'NONE', #728, 1.000000000000000000 ) ;
#11 = DATE_AND_TIME ( #736, #720 ) ;
#12 = ORIENTED_EDGE ( 'NONE', *, *, #479, .T. ) ;
#13 = ADVANCED_FACE ( 'NONE', ( #270, #220, #69 ), #597, .F. ) ;
#14 = CYLINDRICAL_SURFACE ( 'NONE', #680, 0.001749999999999987460 ) ;
#15 = CARTESIAN_POINT ( 'NONE',  ( -0.1578230702634559890, 0.2090379331027069909, 0.07393079491762409583 ) ) ;
#16 = PERSON_AND_ORGANIZATION ( #3, #817 ) ;
#17 = CARTESIAN_POINT ( 'NONE',  ( -0.2031120826469330065, 0.1524549891379684829, 0.1228744914800269927 ) ) ;
#18 = VERTEX_POINT ( 'NONE', #537 ) ;
#19 = CARTESIAN_POINT ( 'NONE',  ( -0.1604908709263555000, 0.2048998290874395056, 0.07335089783576859146 ) ) ;
#20 = CARTESIAN_POINT ( 'NONE',  ( -0.1573362845488679995, 0.2095028409025919969, 0.07406359220595419568 ) ) ;
#21 = PERSON_AND_ORGANIZATION_ROLE ( 'creator' ) ;
#22 = CARTESIAN_POINT ( 'NONE',  ( -0.1446500282817229921, 0.2010233165940749911, 0.07371208766981450500 ) ) ;
#23 = ORIENTED_EDGE ( 'NONE', *, *, #322, .F. ) ;
#24 = CARTESIAN_POINT ( 'NONE',  ( -0.1583737617311949952, 0.2083051412000559988, 0.07377118880574970450 ) ) ;
#25 = FACE_BOUND ( 'NONE', #570, .T. ) ;
#26 = AXIS2_PLACEMENT_3D ( 'NONE', #86, #35, #747 ) ;
#27 = CC_DESIGN_APPROVAL ( #406, ( #457 ) ) ;
#28 = LINE ( 'NONE', #172, #179 ) ;
#29 = CARTESIAN_POINT ( 'NONE',  ( -0.1584110974400235183, 0.2082937427168239930, 0.06348807803842550224 ) ) ;
#30 = FACE_OUTER_BOUND ( 'NONE', #626, .T. ) ;
#31 = EDGE_CURVE ( 'NONE', #354, #75, #468, .T. ) ;
#32 = DIRECTION ( 'NONE',  ( -0.2274280772274873408, 0.9737948476636285600, -0.0002536777058054219243 ) ) ;
#33 = CARTESIAN_POINT ( 'NONE',  ( -0.1520200630032565170, 0.2103526784504994862, 0.06350501067073069383 ) ) ;
#34 = CARTESIAN_POINT ( 'NONE',  ( -0.1529208669107429974, 0.2104979513499745103, 0.06350296672274680088 ) ) ;
#35 = DIRECTION ( 'NONE',  ( 0.8493881131629322789, -0.5277628146696672351, -0.002498933665448211348 ) ) ;
#36 = CARTESIAN_POINT ( 'NONE',  ( -0.1528796250353345043, 0.2105105423700665002, 0.07486192307902030108 ) ) ;
#37 = EDGE_CURVE ( 'NONE', #690, #794, #240, .T. ) ;
#38 = ORIENTED_EDGE ( 'NONE', *, *, #785, .T. ) ;
#39 = CARTESIAN_POINT ( 'NONE',  ( -0.1476844102986050178, 0.2123303347964565213, 0.06352398865288780283 ) ) ;
#40 = CARTESIAN_POINT ( 'NONE',  ( -0.1266320143100986007, 0.2300742731558174936, 0.06261626949990309332 ) ) ;
#41 = ORIENTED_EDGE ( 'NONE', *, *, #31, .T. ) ;
#42 = EDGE_CURVE ( 'NONE', #551, #342, #668, .T. ) ;
#43 = CARTESIAN_POINT ( 'NONE',  ( -0.1550572150853294917, 0.2105838080927020517, 0.07459867806234371512 ) ) ;
#44 = DIRECTION ( 'NONE',  ( 0.8493881131629322789, -0.5277628146696672351, -0.002498933665448211348 ) ) ;
#45 = CARTESIAN_POINT ( 'NONE',  ( -0.1696030865440774915, 0.1902094314026074873, 0.07864835757873579747 ) ) ;
#46 = ORIENTED_EDGE ( 'NONE', *, *, #169, .T. ) ;
#47 = DIRECTION ( 'NONE',  ( 0.8493881131629322789, -0.5277628146696672351, -0.002498933665448211348 ) ) ;
#48 = EDGE_CURVE ( 'NONE', #477, #600, #347, .T. ) ;
#49 = DIRECTION ( 'NONE',  ( -0.8493881131629322789, 0.5277628146696672351, 0.002498933665448211348 ) ) ;
#50 = APPROVAL_STATUS ( 'not_yet_approved' ) ;
#51 = VECTOR ( 'NONE', #47, 1.000000000000000000 ) ;
#52 = ORIENTED_EDGE ( 'NONE', *, *, #472, .F. ) ;
#53 = VECTOR ( 'NONE', #661, 1.000000000000000000 ) ;
#54 = FACE_OUTER_BOUND ( 'NONE', #844, .T. ) ;
#55 = B_SPLINE_CURVE_WITH_KNOTS ( 'NONE', 3,
 ( #65, #331, #203, #660 ),
 .UNSPECIFIED., .F., .F.,
 ( 4, 4 ),
 ( -5.550492351515379674, 0.000000000000000000 ),
 .UNSPECIFIED. ) ;
#56 = ORIENTED_EDGE ( 'NONE', *, *, #650, .T. ) ;
#57 = CARTESIAN_POINT ( 'NONE',  ( -0.1318694519950599775, 0.2216521614824434883, 0.06111965080714600040 ) ) ;
#58 = PERSON_AND_ORGANIZATION ( #3, #817 ) ;
#59 = EDGE_LOOP ( 'NONE', ( #62, #307 ) ) ;
#60 = CARTESIAN_POINT ( 'NONE',  ( -0.1536394054099875228, 0.2106441008956885241, 0.07484068625548701004 ) ) ;
#61 =( LENGTH_UNIT ( ) NAMED_UNIT ( * ) SI_UNIT ( $, .METRE. ) );
#62 = ORIENTED_EDGE ( 'NONE', *, *, #103, .F. ) ;
#63 = ADVANCED_FACE ( 'NONE', ( #528 ), #793, .F. ) ;
#64 = CIRCLE ( 'NONE', #802, 0.005000000000000012247 ) ;
#65 = CARTESIAN_POINT ( 'NONE',  ( -0.1579678650111135119, 0.1795975983669479970, 0.07198540993495940177 ) ) ;
#66 = CARTESIAN_POINT ( 'NONE',  ( -0.1559627265400580221, 0.2103204058777984886, 0.07440430457654099994 ) ) ;
#67 = ORIENTED_EDGE ( 'NONE', *, *, #228, .T. ) ;
#68 = CARTESIAN_POINT ( 'NONE',  ( -0.1313974302692817175, 0.2385189793272974867, 0.06081967594171298203 ) ) ;
#69 = FACE_OUTER_BOUND ( 'NONE', #158, .T. ) ;
#70 = ORIENTED_EDGE ( 'NONE', *, *, #450, .T. ) ;
#71 = CARTESIAN_POINT ( 'NONE',  ( -0.1541791230462080109, 0.2106725559350429988, 0.07475941336547559102 ) ) ;
#72 = CARTESIAN_POINT ( 'NONE',  ( -0.1561291416839354906, 0.2102475996204694886, 0.07436543429298629604 ) ) ;
#73 = EDGE_CURVE ( 'NONE', #367, #482, #403, .T. ) ;
#74 = DATE_TIME_ROLE ( 'creation_date' ) ;
#75 = VERTEX_POINT ( 'NONE', #715 ) ;
#76 = CYLINDRICAL_SURFACE ( 'NONE', #816, 0.004999999999999998369 ) ;
#77 = CIRCLE ( 'NONE', #26, 0.005000000000000012247 ) ;
#78 = CARTESIAN_POINT ( 'NONE',  ( -0.1232083532737623943, 0.2355709090734874889, 0.06545625870707520721 ) ) ;
#79 = CC_DESIGN_APPROVAL ( #201, ( #561 ) ) ;
#80 = CARTESIAN_POINT ( 'NONE',  ( -0.1523798564660260035, 0.2343961928926570071, 0.06117999323415920093 ) ) ;
#81 = VERTEX_POINT ( 'NONE', #130 ) ;
#82 = CARTESIAN_POINT ( 'NONE',  ( -0.1555004140153041781, 0.2104755875319818392, 0.07450654130340249315 ) ) ;
#83 = SECURITY_CLASSIFICATION_LEVEL ( 'unclassified' ) ;
#84 = CARTESIAN_POINT ( 'NONE',  ( -0.1266320143100986007, 0.2300742731558174936, 0.06261626949990309332 ) ) ;
#85 = ORIENTED_EDGE ( 'NONE', *, *, #472, .T. ) ;
#86 = CARTESIAN_POINT ( 'NONE',  ( -0.1338518132719836162, 0.2345602570805094822, 0.06263751043605940427 ) ) ;
#87 = CARTESIAN_POINT ( 'NONE',  ( -0.1446510984838714209, 0.2171418791946430060, 0.07063598221118370935 ) ) ;
#88 = EDGE_CURVE ( 'NONE', #275, #409, #352, .T. ) ;
#89 = CARTESIAN_POINT ( 'NONE',  ( -0.1711333807651385097, 0.1877779219943274958, 0.07202414340677390503 ) ) ;
#90 = CARTESIAN_POINT ( 'NONE',  ( -0.1305903348499488081, 0.2397370839965795031, 0.07789372121838300522 ) ) ;
#91 = VECTOR ( 'NONE', #779, 1.000000000000000000 ) ;
#92 = CC_DESIGN_APPROVAL ( #776, ( #619 ) ) ;
#93 = AXIS2_PLACEMENT_3D ( 'NONE', #475, #724, #142 ) ;
#94 = CARTESIAN_POINT ( 'NONE',  ( -0.1338518132719836162, 0.2345602570805094822, 0.06263751043605940427 ) ) ;
#95 = ORIENTED_EDGE ( 'NONE', *, *, #413, .F. ) ;
#96 = B_SPLINE_CURVE_WITH_KNOTS ( 'NONE', 3,
 ( #152, #22, #285, #494, #282, #803, #491 ),
 .UNSPECIFIED., .F., .F.,
 ( 4, 3, 4 ),
 ( 0.000000000000000000, 1.079624937385379901, 2.157453315352740209 ),
 .UNSPECIFIED. ) ;
#97 = CARTESIAN_POINT ( 'NONE',  ( -0.1526250705734724933, 0.2104220235098314962, 0.06350331894853739056 ) ) ;
#98 = CARTESIAN_POINT ( 'NONE',  ( -0.1347108473229291226, 0.2331747042941339221, 0.06327375250908065518 ) ) ;
#99 = DIRECTION ( 'NONE',  ( -0.8493881131629322789, 0.5277628146696672351, 0.002498933665448211348 ) ) ;
#100 = ORIENTED_EDGE ( 'NONE', *, *, #823, .F. ) ;
#101 = CARTESIAN_POINT ( 'NONE',  ( -0.1634594404993969796, 0.2001203741706354955, 0.07373140855267709681 ) ) ;
#102 = DIRECTION ( 'NONE',  ( 0.4908766005403544241, 0.7917444493575670483, -0.3635668988692841719 ) ) ;
#103 = EDGE_CURVE ( 'NONE', #766, #692, #708, .T. ) ;
#104 = ORIENTED_EDGE ( 'NONE', *, *, #262, .F. ) ;
#105 = CARTESIAN_POINT ( 'NONE',  ( -0.1266320143100986007, 0.2300742731558174936, 0.06261626949990309332 ) ) ;
#106 = CARTESIAN_POINT ( 'NONE',  ( -0.1536394054099875228, 0.2106441008956885241, 0.07484068625548701004 ) ) ;
#107 = VECTOR ( 'NONE', #167, 1.000000000000000000 ) ;
#108 = ORIENTED_EDGE ( 'NONE', *, *, #267, .F. ) ;
#109 = CARTESIAN_POINT ( 'NONE',  ( -0.1489332174063612013, 0.2111614485719504886, 0.06352203901642120010 ) ) ;
#110 = CARTESIAN_POINT ( 'NONE',  ( -0.1669647500256964956, 0.1944669474094549988, 0.07625255407201850244 ) ) ;
#111 = CARTESIAN_POINT ( 'NONE',  ( -0.1474306225141708004, 0.2127021642077074892, 0.06352167021626840826 ) ) ;
#112 = ORIENTED_EDGE ( 'NONE', *, *, #315, .T. ) ;
#113 = CARTESIAN_POINT ( 'NONE',  ( -0.1478719591097734098, 0.2120913327981250041, 0.06352486445208130328 ) ) ;
#114 = CARTESIAN_POINT ( 'NONE',  ( -0.1256627362764640155, 0.2316121868266994843, 0.06727409320142159477 ) ) ;
#115 = CARTESIAN_POINT ( 'NONE',  ( -0.1376313562693816106, 0.2123103222608800078, 0.07559877143075710570 ) ) ;
#116 = ORIENTED_EDGE ( 'NONE', *, *, #372, .F. ) ;
#117 = CARTESIAN_POINT ( 'NONE',  ( -0.1511238713726670013, 0.2103716200680840198, 0.06350878915307960060 ) ) ;
#118 = EDGE_CURVE ( 'NONE', #520, #563, #818, .T. ) ;
#119 = CARTESIAN_POINT ( 'NONE',  ( -0.1518126233790045021, 0.2188476041061790112, 0.07738594193292799850 ) ) ;
#120 = VECTOR ( 'NONE', #435, 1.000000000000000000 ) ;
#121 = ORIENTED_EDGE ( 'NONE', *, *, #722, .T. ) ;
#122 =( GEOMETRIC_REPRESENTATION_CONTEXT ( 3 ) GLOBAL_UNCERTAINTY_ASSIGNED_CONTEXT ( ( #611 ) ) GLOBAL_UNIT_ASSIGNED_CONTEXT ( ( #61, #321, #376 ) ) REPRESENTATION_CONTEXT ( 'NONE', 'WORKASPACE' ) );
#123 = CARTESIAN_POINT ( 'NONE',  ( -0.1500074298782955173, 0.2106206032169899989, 0.06351531004214561182 ) ) ;
#124 = PERSON_AND_ORGANIZATION_ROLE ( 'design_owner' ) ;
#125 = ORIENTED_EDGE ( 'NONE', *, *, #349, .T. ) ;
#126 = DIRECTION ( 'NONE',  ( -0.2274280772274873408, 0.9737948476636285600, -0.0002536777058054219243 ) ) ;
#127 = CARTESIAN_POINT ( 'NONE',  ( -0.1560042865970810155, 0.2121135073217005063, 0.07484764383014770595 ) ) ;
#128 = ORIENTED_EDGE ( 'NONE', *, *, #450, .F. ) ;
#129 = CARTESIAN_POINT ( 'NONE',  ( -0.1574556473242774979, 0.2094187075791444919, 0.06348324840418509418 ) ) ;
#130 = CARTESIAN_POINT ( 'NONE',  ( -0.1537992342716714977, 0.1862866237820755000, 0.07621382060020409632 ) ) ;
#131 = B_SPLINE_CURVE_WITH_KNOTS ( 'NONE', 3,
 ( #89, #149, #226, #29 ),
 .UNSPECIFIED., .F., .F.,
 ( 4, 4 ),
 ( 0.000000000000000000, 1.000000000000000000 ),
 .UNSPECIFIED. ) ;
#132 = EDGE_CURVE ( 'NONE', #246, #609, #656, .T. ) ;
#133 = VERTEX_POINT ( 'NONE', #366 ) ;
#134 = VECTOR ( 'NONE', #759, 1.000000000000000000 ) ;
#135 = VECTOR ( 'NONE', #183, 1.000000000000000000 ) ;
#136 = PLANE ( 'NONE',  #718 ) ;
#137 = CARTESIAN_POINT ( 'NONE',  ( -0.1580556930281329930, 0.2087636317885115111, 0.07386485311588959768 ) ) ;
#138 = APPROVAL_STATUS ( 'not_yet_approved' ) ;
#139 = ORIENTED_EDGE ( 'NONE', *, *, #336, .F. ) ;
#140 = CARTESIAN_POINT ( 'NONE',  ( -0.1564787646394414922, 0.2100962981526660056, 0.06348714922613608869 ) ) ;
#141 = ADVANCED_FACE ( 'NONE', ( #227 ), #628, .T. ) ;
#142 = DIRECTION ( 'NONE',  ( -0.4908766005403563115, -0.7917444493575637177, 0.3635668988692888348 ) ) ;
#143 = ORIENTED_EDGE ( 'NONE', *, *, #42, .T. ) ;
#144 = CARTESIAN_POINT ( 'NONE',  ( -0.1537416711095145050, 0.2106540147876085067, 0.07482633968019529458 ) ) ;
#145 = CARTESIAN_POINT ( 'NONE',  ( -0.1374312995219864053, 0.2126558952699509897, 0.07061474127502739839 ) ) ;
#146 = EDGE_CURVE ( 'NONE', #600, #473, #505, .T. ) ;
#147 = ORIENTED_EDGE ( 'NONE', *, *, #300, .T. ) ;
#148 = DIRECTION ( 'NONE',  ( 0.4908766005403544241, 0.7917444493575670483, -0.3635668988692841719 ) ) ;
#149 = CARTESIAN_POINT ( 'NONE',  ( -0.1675444626608591503, 0.1935890355946007779, 0.06461886754397168364 ) ) ;
#150 = CARTESIAN_POINT ( 'NONE',  ( -0.1556183066199035014, 0.2104386727217459896, 0.07448083886283710098 ) ) ;
#151 = PERSON_AND_ORGANIZATION_ROLE ( 'classification_officer' ) ;
#152 = CARTESIAN_POINT ( 'NONE',  ( -0.1428387708430559899, 0.2039331836943210075, 0.07480891035833320268 ) ) ;
#153 = ORIENTED_EDGE ( 'NONE', *, *, #589, .T. ) ;
#154 = FACE_OUTER_BOUND ( 'NONE', #701, .T. ) ;
#155 = DIRECTION ( 'NONE',  ( 0.8493881131629322789, -0.5277628146696672351, -0.002498933665448211348 ) ) ;
#156 = EDGE_CURVE ( 'NONE', #342, #531, #569, .T. ) ;
#157 = CARTESIAN_POINT ( 'NONE',  ( -0.1483999298381379894, 0.1894809488822855048, 0.05740122688261550116 ) ) ;
#158 = EDGE_LOOP ( 'NONE', ( #241, #516, #577, #95, #643, #212, #666, #230 ) ) ;
#159 = CARTESIAN_POINT ( 'NONE',  ( -0.1551946198724190873, 0.2105479047769786283, 0.06349474829692729194 ) ) ;
#160 = CARTESIAN_POINT ( 'NONE',  ( -0.1528796250353345043, 0.2105105423700665002, 0.07486192307902030108 ) ) ;
#161 =( BOUNDED_CURVE ( )  B_SPLINE_CURVE ( 3, ( #106, #490, #168, #36 ),
 .UNSPECIFIED., .F., .T. ) 
 B_SPLINE_CURVE_WITH_KNOTS ( ( 4, 4 ),
 ( 5.824068535944364911, 5.978492653164121151 ),
 .UNSPECIFIED. ) 
 CURVE ( )  GEOMETRIC_REPRESENTATION_ITEM ( )  RATIONAL_B_SPLINE_CURVE ( ( 1.000000000000000000, 0.9980137530803088186, 0.9980137530803088186, 1.000000000000000000 ) ) 
 REPRESENTATION_ITEM ( '' )  );
#162 = CARTESIAN_POINT ( 'NONE',  ( -0.1378898010731670065, 0.2063486184660814904, 0.06742536824433449649 ) ) ;
#163 = ORIENTED_EDGE ( 'NONE', *, *, #650, .F. ) ;
#164 = CARTESIAN_POINT ( 'NONE',  ( -0.1651876639729980001, 0.1840835822916395137, 0.07200665087111579599 ) ) ;
#165 = CARTESIAN_POINT ( 'NONE',  ( -0.1232083532737623943, 0.2355709090734874889, 0.06545625870707520721 ) ) ;
#166 = LINE ( 'NONE', #432, #370 ) ;
#167 = DIRECTION ( 'NONE',  ( -0.8493881131629322789, 0.5277628146696672351, 0.002498933665448211348 ) ) ;
#168 = CARTESIAN_POINT ( 'NONE',  ( -0.1531291861425123357, 0.2105745913360292376, 0.07485634671037601218 ) ) ;
#169 = EDGE_CURVE ( 'NONE', #830, #367, #496, .T. ) ;
#170 = PRODUCT_DEFINITION_SHAPE ( 'NONE', 'NONE',  #561 ) ;
#171 = B_SPLINE_CURVE_WITH_KNOTS ( 'NONE', 3,
 ( #775, #269, #787, #195 ),
 .UNSPECIFIED., .F., .F.,
 ( 4, 4 ),
 ( 0.6898754269006399653, 1.000000000000000000 ),
 .UNSPECIFIED. ) ;
#172 = CARTESIAN_POINT ( 'NONE',  ( -0.1552200654612719555, 0.2105487027138106537, 0.08584741602414937278 ) ) ;
#173 = ORIENTED_EDGE ( 'NONE', *, *, #615, .T. ) ;
#174 = LINE ( 'NONE', #702, #134 ) ;
#175 = FACE_OUTER_BOUND ( 'NONE', #651, .T. ) ;
#176 = ORIENTED_EDGE ( 'NONE', *, *, #439, .T. ) ;
#177 = CARTESIAN_POINT ( 'NONE',  ( -0.1475717782813064094, 0.2124874873634839956, 0.06352315108636459595 ) ) ;
#178 = LINE ( 'NONE', #303, #107 ) ;
#179 = VECTOR ( 'NONE', #306, 1.000000000000000222 ) ;
#180 = VERTEX_POINT ( 'NONE', #369 ) ;
#181 = APPLICATION_CONTEXT ( 'configuration controlled 3d designs of mechanical parts and assemblies' ) ;
#182 = CARTESIAN_POINT ( 'NONE',  ( -0.1497572933457456124, 0.2107166595933484821, 0.06351696466703790622 ) ) ;
#183 = DIRECTION ( 'NONE',  ( -0.8493881131629322789, 0.5277628146696672351, 0.002498933665448211348 ) ) ;
#184 = CARTESIAN_POINT ( 'NONE',  ( -0.1441191549013235984, 0.2006934612250970140, 0.07371052581918129121 ) ) ;
#185 = EDGE_CURVE ( 'NONE', #671, #233, #161, .T. ) ;
#186 = ORIENTED_EDGE ( 'NONE', *, *, #146, .T. ) ;
#187 = CARTESIAN_POINT ( 'NONE',  ( -0.1507927891540855048, 0.2104122824708535011, 0.06351049978259419582 ) ) ;
#188 = ORIENTED_EDGE ( 'NONE', *, *, #796, .F. ) ;
#189 = CC_DESIGN_PERSON_AND_ORGANIZATION_ASSIGNMENT ( #16, #21, ( #457 ) ) ;
#190 = CARTESIAN_POINT ( 'NONE',  ( -0.1477440905627880052, 0.2122542815156500118, 0.06352426734261611141 ) ) ;
#191 = APPLICATION_PROTOCOL_DEFINITION ( 'international standard', 'config_control_design', 1994, #181 ) ;
#192 = CIRCLE ( 'NONE', #316, 0.005000000000000012247 ) ;
#193 = EDGE_LOOP ( 'NONE', ( #153, #721, #297, #841, #143, #198, #687, #173, #825, #202 ) ) ;
#194 = AXIS2_PLACEMENT_3D ( 'NONE', #447, #249, #699 ) ;
#195 = CARTESIAN_POINT ( 'NONE',  ( -0.1390892509569449931, 0.2261381454071355046, 0.06114089174330229748 ) ) ;
#196 = ADVANCED_FACE ( 'NONE', ( #30 ), #739, .F. ) ;
#197 = CARTESIAN_POINT ( 'NONE',  ( -0.1682839182848869797, 0.1923381894060310071, 0.07745045582537719853 ) ) ;
#198 = ORIENTED_EDGE ( 'NONE', *, *, #796, .T. ) ;
#199 = CARTESIAN_POINT ( 'NONE',  ( -0.1559037584923435027, 0.2103425457438579949, 0.06349059896539510639 ) ) ;
#200 = DIRECTION ( 'NONE',  ( -0.1938556067269074923, -0.3075827341764090228, -0.9315647403037039531 ) ) ;
#201 = APPROVAL ( #50, 'UNSPECIFIED' ) ;
#202 = ORIENTED_EDGE ( 'NONE', *, *, #322, .T. ) ;
#203 = CARTESIAN_POINT ( 'NONE',  ( -0.1403931775368327806, 0.2079040782001745080, 0.06743273327761599434 ) ) ;
#204 = CARTESIAN_POINT ( 'NONE',  ( -0.1583015868526300163, 0.2084186301732555147, 0.07379282326542808967 ) ) ;
#205 = ORIENTED_EDGE ( 'NONE', *, *, #73, .F. ) ;
#206 = ADVANCED_FACE ( 'NONE', ( #304, #25, #617 ), #556, .T. ) ;
#207 = AXIS2_PLACEMENT_3D ( 'NONE', #272, #527, #463 ) ;
#208 = CC_DESIGN_SECURITY_CLASSIFICATION ( #619, ( #457 ) ) ;
#209 = CARTESIAN_POINT ( 'NONE',  ( -0.1436818204502370022, 0.2186797928655255241, 0.07529380591270219691 ) ) ;
#210 = AXIS2_PLACEMENT_3D ( 'NONE', #145, #279, #543 ) ;
#211 = CARTESIAN_POINT ( 'NONE',  ( -0.1514343752161254886, 0.2194577195926259994, 0.07709911037944219836 ) ) ;
#212 = ORIENTED_EDGE ( 'NONE', *, *, #639, .F. ) ;
#213 = CYLINDRICAL_SURFACE ( 'NONE', #207, 0.005000000000000012247 ) ;
#214 = DIRECTION ( 'NONE',  ( 0.8493881131629322789, -0.5277628146696672351, -0.002498933665448211348 ) ) ;
#215 = COORDINATED_UNIVERSAL_TIME_OFFSET ( 2, 0, .AHEAD. ) ;
#216 = B_SPLINE_CURVE_WITH_KNOTS ( 'NONE', 3,
 ( #634, #43, #310, #574, #717, #71, #334, #840, #144, #60 ),
 .UNSPECIFIED., .F., .F.,
 ( 4, 3, 3, 4 ),
 ( -0.1662140544993857272, -0.1020290157947490034, -0.03112257138780899490, 0.000000000000000000 ),
 .UNSPECIFIED. ) ;
#217 = ORIENTED_EDGE ( 'NONE', *, *, #274, .F. ) ;
#218 = CARTESIAN_POINT ( 'NONE',  ( -0.1609035820077990009, 0.2206481096103879991, 0.06749307570462920181 ) ) ;
#219 = CARTESIAN_POINT ( 'NONE',  ( -0.1669647500256964956, 0.1944669474094549988, 0.07625255407201850244 ) ) ;
#220 = FACE_BOUND ( 'NONE', #659, .T. ) ;
#221 = DESIGN_CONTEXT ( 'detailed design', #383, 'design' ) ;
#222 = SHAPE_DEFINITION_REPRESENTATION ( #170, #811 ) ;
#223 = FACE_OUTER_BOUND ( 'NONE', #503, .T. ) ;
#224 = ORIENTED_EDGE ( 'NONE', *, *, #372, .T. ) ;
#225 = AXIS2_PLACEMENT_3D ( 'NONE', #815, #754, #102 ) ;
#226 = CARTESIAN_POINT ( 'NONE',  ( -0.1630663063713473915, 0.2008012378229928618, 0.06356264629951900724 ) ) ;
#227 = FACE_OUTER_BOUND ( 'NONE', #821, .T. ) ;
#228 = EDGE_CURVE ( 'NONE', #794, #595, #743, .T. ) ;
#229 = DIRECTION ( 'NONE',  ( 0.4908766005403563115, 0.7917444493575637177, -0.3635668988692888348 ) ) ;
#230 = ORIENTED_EDGE ( 'NONE', *, *, #546, .F. ) ;
#231 = PLANE ( 'NONE',  #735 ) ;
#232 = CARTESIAN_POINT ( 'NONE',  ( -0.1800983017123009844, 0.1381554979936621963, 0.1228067840197322041 ) ) ;
#233 = VERTEX_POINT ( 'NONE', #160 ) ;
#234 = CARTESIAN_POINT ( 'NONE',  ( -0.1615680726437105086, 0.2031655133108589972, 0.07348897335922889573 ) ) ;
#235 = DIRECTION ( 'NONE',  ( 0.8493881131629322789, -0.5277628146696672351, -0.002498933665448211348 ) ) ;
#236 = CARTESIAN_POINT ( 'NONE',  ( -0.2154289892293594910, 0.1325116688183730074, 0.1482888610390540041 ) ) ;
#237 = ADVANCED_FACE ( 'NONE', ( #175 ), #438, .T. ) ;
#238 = CARTESIAN_POINT ( 'NONE',  ( -0.1517319634259060024, 0.2103329059089250053, 0.06350596086119569827 ) ) ;
#239 = CIRCLE ( 'NONE', #707, 0.005000000000000012247 ) ;
#240 = CIRCLE ( 'NONE', #471, 0.005000000000000012247 ) ;
#241 = ORIENTED_EDGE ( 'NONE', *, *, #465, .F. ) ;
#242 = CC_DESIGN_DATE_AND_TIME_ASSIGNMENT ( #658, #781, ( #619 ) ) ;
#243 = CARTESIAN_POINT ( 'NONE',  ( -0.1485839163201696234, 0.2107914343945517799, 0.07505382685679713728 ) ) ;
#244 = CARTESIAN_POINT ( 'NONE',  ( -0.1241776313073968269, 0.2340329954026053316, 0.06079843500555667107 ) ) ;
#245 = B_SPLINE_SURFACE_WITH_KNOTS ( 'NONE', 3, 1, ( 
 ( #393, #777 ),
 ( #325, #45 ),
 ( #834, #197 ),
 ( #576, #110 ),
 ( #458, #581 ),
 ( #515, #312 ),
 ( #461, #712 ),
 ( #184, #587 ),
 ( #453, #127 ),
 ( #838, #653 ),
 ( #765, #703 ),
 ( #636, #119 ) ),
 .UNSPECIFIED., .F., .F., .F.,
 ( 4, 3, 2, 3, 4 ),
 ( 2, 2 ),
 ( -0.8328328601530620157, 0.000000000000000000, 1.077833866245270000, 2.157464301056600142, 2.990301401975879791 ),
 ( -0.8125006839832099592, 0.8000000000000000444 ),
 .UNSPECIFIED. ) ;
#246 = VERTEX_POINT ( 'NONE', #98 ) ;
#247 = CARTESIAN_POINT ( 'NONE',  ( -0.1474306225141708004, 0.2127021642077074892, 0.06352167021626840826 ) ) ;
#248 = DIRECTION ( 'NONE',  ( 0.8493881131629322789, -0.5277628146696672351, -0.002498933665448211348 ) ) ;
#249 = DIRECTION ( 'NONE',  ( 0.8493881131629322789, -0.5277628146696672351, -0.002498933665448211348 ) ) ;
#250 = VERTEX_POINT ( 'NONE', #34 ) ;
#251 = CARTESIAN_POINT ( 'NONE',  ( -0.1510641319398275118, 0.2103787330077050155, 0.06350909595557850673 ) ) ;
#252 = DIRECTION ( 'NONE',  ( -0.4908766005403578658, -0.7917444493575647169, 0.3635668988692844494 ) ) ;
#253 = ADVANCED_FACE ( 'NONE', ( #501 ), #295, .F. ) ;
#254 = APPROVAL_PERSON_ORGANIZATION ( #798, #776, #341 ) ;
#255 = MECHANICAL_CONTEXT ( 'NONE', #181, 'mechanical' ) ;
#256 = ORIENTED_EDGE ( 'NONE', *, *, #546, .T. ) ;
#257 = CARTESIAN_POINT ( 'NONE',  ( -0.1448511552312664041, 0.2167963061855724960, 0.07562001236691340278 ) ) ;
#258 = ORIENTED_EDGE ( 'NONE', *, *, #790, .F. ) ;
#259 = CARTESIAN_POINT ( 'NONE',  ( -0.1495156423691809955, 0.2108325397814079794, 0.06351851507785390150 ) ) ;
#260 = LINE ( 'NONE', #584, #470 ) ;
#261 = ORIENTED_EDGE ( 'NONE', *, *, #5, .F. ) ;
#262 = EDGE_CURVE ( 'NONE', #690, #477, #166, .T. ) ;
#263 = CARTESIAN_POINT ( 'NONE',  ( -0.1257729802591529833, 0.2314598259421932203, 0.06198002742688184241 ) ) ;
#264 = AXIS2_PLACEMENT_3D ( 'NONE', #622, #487, #32 ) ;
#265 = ORIENTED_EDGE ( 'NONE', *, *, #274, .T. ) ;
#266 = CARTESIAN_POINT ( 'NONE',  ( -0.1569845136727019974, 0.2097944662725315101, 0.06348457597200141134 ) ) ;
#267 = EDGE_CURVE ( 'NONE', #18, #440, #498, .T. ) ;
#268 = VERTEX_POINT ( 'NONE', #695 ) ;
#269 = CARTESIAN_POINT ( 'NONE',  ( -0.1445671312477289916, 0.2173108752551999867, 0.06348530648095469797 ) ) ;
#270 = FACE_BOUND ( 'NONE', #633, .T. ) ;
#271 = ORIENTED_EDGE ( 'NONE', *, *, #267, .T. ) ;
#272 = CARTESIAN_POINT ( 'NONE',  ( -0.1374312995219864053, 0.2126558952699509897, 0.07061474127502739839 ) ) ;
#273 = CARTESIAN_POINT ( 'NONE',  ( -0.1323667083029161917, 0.2369810656564154960, 0.05616185224019450140 ) ) ;
#274 = EDGE_CURVE ( 'NONE', #766, #440, #178, .T. ) ;
#275 = VERTEX_POINT ( 'NONE', #500 ) ;
#276 = AXIS2_PLACEMENT_3D ( 'NONE', #105, #517, #833 ) ;
#277 = CARTESIAN_POINT ( 'NONE',  ( -0.1584110974400235183, 0.2082937427168239930, 0.06348807803842550224 ) ) ;
#278 = CLOSED_SHELL ( 'NONE', ( #709, #63, #400, #141, #326, #493, #557, #684, #253, #598, #674, #237, #206, #420, #771, #835, #287, #506, #13, #196 ) ) ;
#279 = DIRECTION ( 'NONE',  ( -0.8493881131629322789, 0.5277628146696672351, 0.002498933665448211348 ) ) ;
#280 = CALENDAR_DATE ( 2026, 6, 9 ) ;
#281 = ORIENTED_EDGE ( 'NONE', *, *, #812, .T. ) ;
#282 = CARTESIAN_POINT ( 'NONE',  ( -0.1502939247453720095, 0.1919400505432559967, 0.07369267508086270457 ) ) ;
#283 = CARTESIAN_POINT ( 'NONE',  ( -0.1557922074575174842, 0.2103842204815719874, 0.07444292574726689427 ) ) ;
#284 = APPROVAL_ROLE ( '' ) ;
#285 = CARTESIAN_POINT ( 'NONE',  ( -0.1465080364405034197, 0.1980354045607250202, 0.07320740059509581177 ) ) ;
#286 = ORIENTED_EDGE ( 'NONE', *, *, #37, .F. ) ;
#287 = ADVANCED_FACE ( 'NONE', ( #288 ), #231, .T. ) ;
#288 = FACE_OUTER_BOUND ( 'NONE', #592, .T. ) ;
#289 = DIRECTION ( 'NONE',  ( -0.8493881131629322789, 0.5277628146696672351, 0.002498933665448211348 ) ) ;
#290 = CARTESIAN_POINT ( 'NONE',  ( -0.1677813951298740003, 0.1580988183132585045, 0.09739241446070509567 ) ) ;
#291 = EDGE_LOOP ( 'NONE', ( #70, #188, #778, #121 ) ) ;
#292 = AXIS2_PLACEMENT_3D ( 'NONE', #809, #235, #362 ) ;
#293 = CARTESIAN_POINT ( 'NONE',  ( -0.1309200856902792143, 0.2392071394837725073, 0.07773307814494530288 ) ) ;
#294 = CC_DESIGN_DATE_AND_TIME_ASSIGNMENT ( #337, #74, ( #561 ) ) ;
#295 = CYLINDRICAL_SURFACE ( 'NONE', #644, 0.001749999999999987460 ) ;
#296 = CARTESIAN_POINT ( 'NONE',  ( -0.1579678650111135119, 0.1795975983669479970, 0.07198540993495940177 ) ) ;
#297 = ORIENTED_EDGE ( 'NONE', *, *, #37, .T. ) ;
#298 = DIRECTION ( 'NONE',  ( 0.8493881131629322789, -0.5277628146696672351, -0.002498933665448211348 ) ) ;
#299 = DIRECTION ( 'NONE',  ( -0.8493881131629322789, 0.5277628146696672351, 0.002498933665448211348 ) ) ;
#300 = EDGE_CURVE ( 'NONE', #268, #367, #416, .T. ) ;
#301 = CARTESIAN_POINT ( 'NONE',  ( -0.1364620214883519866, 0.2141938089408330081, 0.07527256497654589984 ) ) ;
#302 = PRODUCT ( 'Claw', 'Claw', '', ( #255 ) ) ;
#303 = CARTESIAN_POINT ( 'NONE',  ( -0.1365722654710407880, 0.2140414480563267163, 0.06997849920200614748 ) ) ;
#304 = FACE_BOUND ( 'NONE', #59, .T. ) ;
#305 = AXIS2_PLACEMENT_3D ( 'NONE', #558, #686, #148 ) ;
#306 = DIRECTION ( 'NONE',  ( -0.003630753453945146682, -0.001108458478111530284, -0.9999927944486194376 ) ) ;
#307 = ORIENTED_EDGE ( 'NONE', *, *, #625, .F. ) ;
#308 = LINE ( 'NONE', #508, #51 ) ;
#309 = ORIENTED_EDGE ( 'NONE', *, *, #529, .T. ) ;
#310 = CARTESIAN_POINT ( 'NONE',  ( -0.1548504275914011075, 0.2106186368801782893, 0.07463919214973781247 ) ) ;
#311 = EDGE_CURVE ( 'NONE', #275, #830, #131, .T. ) ;
#312 = CARTESIAN_POINT ( 'NONE',  ( -0.1634594404993969796, 0.2001203741706354955, 0.07373140855267709681 ) ) ;
#313 = ORIENTED_EDGE ( 'NONE', *, *, #823, .T. ) ;
#314 = CARTESIAN_POINT ( 'NONE',  ( -0.1528796250353345043, 0.2105105423700665002, 0.07486192307902030108 ) ) ;
#315 = EDGE_CURVE ( 'NONE', #250, #381, #371, .T. ) ;
#316 = AXIS2_PLACEMENT_3D ( 'NONE', #799, #795, #806 ) ;
#317 = VECTOR ( 'NONE', #760, 1.000000000000000000 ) ;
#318 = COORDINATED_UNIVERSAL_TIME_OFFSET ( 2, 0, .AHEAD. ) ;
#319 = ORIENTED_EDGE ( 'NONE', *, *, #479, .F. ) ;
#320 = CARTESIAN_POINT ( 'NONE',  ( -0.1480098305415059878, 0.2119364875333779874, 0.06352504346509109390 ) ) ;
#321 =( NAMED_UNIT ( * ) PLANE_ANGLE_UNIT ( ) SI_UNIT ( $, .RADIAN. ) );
#322 = EDGE_CURVE ( 'NONE', #180, #637, #627, .T. ) ;
#323 = ORIENTED_EDGE ( 'NONE', *, *, #48, .F. ) ;
#324 = CARTESIAN_POINT ( 'NONE',  ( -0.1481569074023272037, 0.2117906405735404951, 0.06352489444443970568 ) ) ;
#325 = CARTESIAN_POINT ( 'NONE',  ( -0.1559066974096534886, 0.1816992524062500114, 0.07860806225628819144 ) ) ;
#326 = ADVANCED_FACE ( 'NONE', ( #154 ), #495, .F. ) ;
#327 = EDGE_LOOP ( 'NONE', ( #746, #323, #104, #454 ) ) ;
#328 = LINE ( 'NONE', #726, #91 ) ;
#329 = VECTOR ( 'NONE', #421, 1.000000000000000000 ) ;
#330 = ORIENTED_EDGE ( 'NONE', *, *, #785, .F. ) ;
#331 = CARTESIAN_POINT ( 'NONE',  ( -0.1509033063018040133, 0.1910364086163785224, 0.05740859191589690186 ) ) ;
#332 = CARTESIAN_POINT ( 'NONE',  ( -0.1712389059710454908, 0.1875698361221750099, 0.08010284126197030063 ) ) ;
#333 = ORIENTED_EDGE ( 'NONE', *, *, #300, .F. ) ;
#334 = CARTESIAN_POINT ( 'NONE',  ( -0.1539462162932695166, 0.2106643552904074734, 0.07479542230256909507 ) ) ;
#335 = CARTESIAN_POINT ( 'NONE',  ( -0.1572144641387110131, 0.2095984878615210212, 0.07409563650257780520 ) ) ;
#336 = EDGE_CURVE ( 'NONE', #81, #180, #422, .T. ) ;
#337 = DATE_AND_TIME ( #348, #9 ) ;
#338 = ORIENTED_EDGE ( 'NONE', *, *, #847, .F. ) ;
#339 = CARTESIAN_POINT ( 'NONE',  ( -0.1580491680611284810, 0.2088024063918549889, 0.06348427793134320263 ) ) ;
#340 = CARTESIAN_POINT ( 'NONE',  ( -0.1309200856902792143, 0.2392071394837725073, 0.07773307814494530288 ) ) ;
#341 = APPROVAL_ROLE ( '' ) ;
#342 = VERTEX_POINT ( 'NONE', #301 ) ;
#343 = VECTOR ( 'NONE', #430, 1.000000000000000000 ) ;
#344 = CIRCLE ( 'NONE', #194, 0.005000000000000012247 ) ;
#345 = DIRECTION ( 'NONE',  ( -0.8493881131629322789, 0.5277628146696672351, 0.002498933665448211348 ) ) ;
#346 = AXIS2_PLACEMENT_3D ( 'NONE', #594, #214, #846 ) ;
#347 = LINE ( 'NONE', #273, #502 ) ;
#348 = CALENDAR_DATE ( 2026, 6, 9 ) ;
#349 = EDGE_CURVE ( 'NONE', #595, #133, #77, .T. ) ;
#350 = LINE ( 'NONE', #562, #329 ) ;
#351 = ORIENTED_EDGE ( 'NONE', *, *, #88, .T. ) ;
#352 = LINE ( 'NONE', #332, #53 ) ;
#353 = DIRECTION ( 'NONE',  ( 0.8493881131629322789, -0.5277628146696672351, -0.002498933665448211348 ) ) ;
#354 = VERTEX_POINT ( 'NONE', #732 ) ;
#355 = DIRECTION ( 'NONE',  ( -0.8493881131629308356, 0.5277628146696694555, 0.002498933665448513190 ) ) ;
#356 = CARTESIAN_POINT ( 'NONE',  ( -0.1374312995219864053, 0.2126558952699509897, 0.07061474127502739839 ) ) ;
#357 = EDGE_LOOP ( 'NONE', ( #100, #526, #588, #488 ) ) ;
#358 = AXIS2_PLACEMENT_3D ( 'NONE', #635, #824, #252 ) ;
#359 = CARTESIAN_POINT ( 'NONE',  ( -0.1580205577720960042, 0.1794936931527304769, 0.07601941196767700304 ) ) ;
#360 = CARTESIAN_POINT ( 'NONE',  ( -0.1428387708430559899, 0.2039331836943210075, 0.07480891035833320268 ) ) ;
#361 = CARTESIAN_POINT ( 'NONE',  ( -0.1523235326562775160, 0.2103735058546430114, 0.06350400978772560712 ) ) ;
#362 = DIRECTION ( 'NONE',  ( -0.4908766005403563115, -0.7917444493575637177, 0.3635668988692888348 ) ) ;
#363 = CARTESIAN_POINT ( 'NONE',  ( -0.1446510984838714209, 0.2171418791946430060, 0.07063598221118370935 ) ) ;
#364 = ORIENTED_EDGE ( 'NONE', *, *, #185, .T. ) ;
#365 = CARTESIAN_POINT ( 'NONE',  ( -0.1532209097690429844, 0.2105749708326855041, 0.06350260945858431094 ) ) ;
#366 = CARTESIAN_POINT ( 'NONE',  ( -0.1328825352383490033, 0.2360981707513915007, 0.06729533413757790572 ) ) ;
#367 = VERTEX_POINT ( 'NONE', #24 ) ;
#368 = CYLINDRICAL_SURFACE ( 'NONE', #276, 0.001749999999999987460 ) ;
#369 = CARTESIAN_POINT ( 'NONE',  ( -0.1580200918566130042, 0.1794946118946439961, 0.07598374285545669848 ) ) ;
#370 = VECTOR ( 'NONE', #99, 1.000000000000000000 ) ;
#371 = B_SPLINE_CURVE_WITH_KNOTS ( 'NONE', 3,
 ( #688, #365, #489, #492, #418, #621, #552, #753, #623, #426, #159, #738, #804 ),
 .UNSPECIFIED., .F., .F.,
 ( 4, 3, 3, 3, 4 ),
 ( -0.6344113377555399280, -0.5412232205453959555, -0.4940622479790889865, -0.4098259243553650233, -0.3933796191137924891 ),
 .UNSPECIFIED. ) ;
#372 = EDGE_CURVE ( 'NONE', #275, #637, #564, .T. ) ;
#373 = ORIENTED_EDGE ( 'NONE', *, *, #156, .F. ) ;
#374 = CARTESIAN_POINT ( 'NONE',  ( -0.1473880932348705930, 0.2127151482730830212, 0.07523520940109430788 ) ) ;
#375 = PLANE ( 'NONE',  #358 ) ;
#376 =( NAMED_UNIT ( * ) SI_UNIT ( $, .STERADIAN. ) SOLID_ANGLE_UNIT ( ) );
#377 = ORIENTED_EDGE ( 'NONE', *, *, #734, .F. ) ;
#378 = LINE ( 'NONE', #772, #842 ) ;
#379 = PERSON_AND_ORGANIZATION ( #3, #817 ) ;
#380 = DIRECTION ( 'NONE',  ( -0.4908766005403563115, -0.7917444493575657161, 0.3635668988692849490 ) ) ;
#381 = VERTEX_POINT ( 'NONE', #814 ) ;
#382 = CARTESIAN_POINT ( 'NONE',  ( -0.1476269487303092098, 0.2124081027485305029, 0.06352361918922139195 ) ) ;
#383 = APPLICATION_CONTEXT ( 'configuration controlled 3d designs of mechanical parts and assemblies' ) ;
#384 = EDGE_CURVE ( 'NONE', #250, #763, #411, .T. ) ;
#385 = APPROVAL_PERSON_ORGANIZATION ( #379, #201, #641 ) ;
#386 = DIRECTION ( 'NONE',  ( -0.5262498694825319401, -0.8465752082762737496, -0.07982162364674029453 ) ) ;
#387 = EDGE_LOOP ( 'NONE', ( #256, #186, #1, #116, #791, #713, #704, #807 ) ) ;
#388 = PLANE ( 'NONE',  #705 ) ;
#389 = CC_DESIGN_PERSON_AND_ORGANIZATION_ASSIGNMENT ( #544, #151, ( #619 ) ) ;
#390 = DATE_AND_TIME ( #769, #398 ) ;
#391 = ORIENTED_EDGE ( 'NONE', *, *, #103, .T. ) ;
#392 = CARTESIAN_POINT ( 'NONE',  ( -0.1555053737891902155, 0.2104762471874955798, 0.06349298826320781686 ) ) ;
#393 = CARTESIAN_POINT ( 'NONE',  ( -0.1572258656688440004, 0.1795704944028259920, 0.07980596400964679038 ) ) ;
#394 = ORIENTED_EDGE ( 'NONE', *, *, #429, .F. ) ;
#395 = DIRECTION ( 'NONE',  ( 0.8493881131629322789, -0.5277628146696672351, -0.002498933665448211348 ) ) ;
#396 = CARTESIAN_POINT ( 'NONE',  ( -0.1576978965065454763, 0.2091701530678244936, 0.07396560496207679747 ) ) ;
#397 = AXIS2_PLACEMENT_3D ( 'NONE', #363, #248, #443 ) ;
#398 = LOCAL_TIME ( 12, 32, 50.00000000000000000, #318 ) ;
#399 = ORIENTED_EDGE ( 'NONE', *, *, #42, .F. ) ;
#400 = ADVANCED_FACE ( 'NONE', ( #54 ), #368, .F. ) ;
#401 = CARTESIAN_POINT ( 'NONE',  ( -0.1567265239245775044, 0.2099484349914230163, 0.06348588862539750188 ) ) ;
#402 = CARTESIAN_POINT ( 'NONE',  ( -0.1575659743419000058, 0.2092951333776924827, 0.07400154130878550118 ) ) ;
#403 = B_SPLINE_CURVE_WITH_KNOTS ( 'NONE', 3,
 ( #664, #602, #204, #412, #464, #137, #607, #15, #396, #402, #407, #20, #335, #657, #419, #733, #797, #8, #72, #66, #283, #150, #82, #784, #788 ),
 .UNSPECIFIED., .F., .F.,
 ( 4, 3, 3, 3, 3, 3, 3, 3, 4 ),
 ( -0.5674600738243009701, -0.5470160090923520402, -0.4927813130278990150, -0.4371215992145160434, -0.3897004009281400116, -0.3278458192807949811, -0.2598808657442530090, -0.2040580315894969798, -0.1662140544993857549 ),
 .UNSPECIFIED. ) ;
#404 = ORIENTED_EDGE ( 'NONE', *, *, #384, .F. ) ;
#405 = FACE_OUTER_BOUND ( 'NONE', #327, .T. ) ;
#406 = APPROVAL ( #476, 'UNSPECIFIED' ) ;
#407 = CARTESIAN_POINT ( 'NONE',  ( -0.1574535787383405105, 0.2094016146304709947, 0.07403215850938199560 ) ) ;
#408 = PERSON_AND_ORGANIZATION_ROLE ( 'design_supplier' ) ;
#409 = VERTEX_POINT ( 'NONE', #764 ) ;
#410 = FACE_OUTER_BOUND ( 'NONE', #742, .T. ) ;
#411 = B_SPLINE_CURVE_WITH_KNOTS ( 'NONE', 3,
 ( #555, #97, #361, #33, #238, #694, #767, #117, #504, #251, #187, #437, #512, #123, #182, #259, #691, #822, #109, #631, #521, #324, #320, #113, #190, #39, #382, #177, #819, #826, #247 ),
 .UNSPECIFIED., .F., .F.,
 ( 4, 3, 3, 3, 3, 3, 3, 3, 3, 3, 4 ),
 ( 0.000000000000000000, 0.09161580979345999853, 0.1785914787520629932, 0.1876207804585259820, 0.2697047961934670446, 0.3501065367153640140, 0.4171829668896780419, 0.5175287753088780862, 0.5796687176906869521, 0.6086713791354949610, 0.6343690271678099624 ),
 .UNSPECIFIED. ) ;
#412 = CARTESIAN_POINT ( 'NONE',  ( -0.1582637880265079788, 0.2084742743841615231, 0.07380399998731700106 ) ) ;
#413 = EDGE_CURVE ( 'NONE', #133, #531, #378, .T. ) ;
#414 = PERSON_AND_ORGANIZATION_ROLE ( 'creator' ) ;
#415 = AXIS2_PLACEMENT_3D ( 'NONE', #165, #624, #431 ) ;
#416 = B_SPLINE_CURVE_WITH_KNOTS ( 'NONE', 3,
 ( #219, #800, #101, #234, #19, #434, #679 ),
 .UNSPECIFIED., .F., .F.,
 ( 4, 3, 4 ),
 ( 0.000000000000000000, 1.077833866245270000, 1.691698846689110081 ),
 .UNSPECIFIED. ) ;
#417 = CARTESIAN_POINT ( 'NONE',  ( -0.1390892509569449931, 0.2261381454071355046, 0.06114089174330229748 ) ) ;
#418 = CARTESIAN_POINT ( 'NONE',  ( -0.1539928003461200068, 0.2106544835467629995, 0.06350038077115509327 ) ) ;
#419 = CARTESIAN_POINT ( 'NONE',  ( -0.1568895544786785001, 0.2098380439778869955, 0.07418011542612389098 ) ) ;
#420 = ADVANCED_FACE ( 'NONE', ( #638 ), #388, .T. ) ;
#421 = DIRECTION ( 'NONE',  ( 0.003630753453945283291, 0.001108458478112361433, 0.9999927944486195486 ) ) ;
#422 = LINE ( 'NONE', #676, #428 ) ;
#423 = DIRECTION ( 'NONE',  ( 0.003630753453945253367, 0.001108458478112361433, 0.9999927944486195486 ) ) ;
#424 = CARTESIAN_POINT ( 'NONE',  ( -0.1374312995219864053, 0.2126558952699509897, 0.07061474127502739839 ) ) ;
#425 = EDGE_LOOP ( 'NONE', ( #391, #85, #330, #217 ) ) ;
#426 = CARTESIAN_POINT ( 'NONE',  ( -0.1551410438136194836, 0.2105585790379105038, 0.06349504291411491030 ) ) ;
#427 = DIRECTION ( 'NONE',  ( -0.4908766005403563115, -0.7917444493575637177, 0.3635668988692888348 ) ) ;
#428 = VECTOR ( 'NONE', #560, 1.000000000000000000 ) ;
#429 = EDGE_CURVE ( 'NONE', #409, #180, #308, .T. ) ;
#430 = DIRECTION ( 'NONE',  ( 0.8493881131629322789, -0.5277628146696672351, -0.002498933665448211348 ) ) ;
#431 = DIRECTION ( 'NONE',  ( -0.1938556067269074923, -0.3075827341764090228, -0.9315647403037039531 ) ) ;
#432 = CARTESIAN_POINT ( 'NONE',  ( -0.1276012923437332136, 0.2285363594849355029, 0.05795844579838459881 ) ) ;
#433 = CARTESIAN_POINT ( 'NONE',  ( -0.1924152082947274967, 0.1182121776740664015, 0.1482211535787590073 ) ) ;
#434 = CARTESIAN_POINT ( 'NONE',  ( -0.1594254733545664993, 0.2066140028288200037, 0.07345449189681889368 ) ) ;
#435 = DIRECTION ( 'NONE',  ( -0.8493881131629322789, 0.5277628146696672351, 0.002498933665448211348 ) ) ;
#436 = ORIENTED_EDGE ( 'NONE', *, *, #73, .T. ) ;
#437 = CARTESIAN_POINT ( 'NONE',  ( -0.1505250510195524916, 0.2104679805388365021, 0.06351207647427860314 ) ) ;
#438 = PLANE ( 'NONE',  #442 ) ;
#439 = EDGE_CURVE ( 'NONE', #75, #233, #832, .T. ) ;
#440 = VERTEX_POINT ( 'NONE', #571 ) ;
#441 = CARTESIAN_POINT ( 'NONE',  ( -0.1348210913056180071, 0.2330223434096274915, 0.05797968673454089589 ) ) ;
#442 = AXIS2_PLACEMENT_3D ( 'NONE', #90, #801, #683 ) ;
#443 = DIRECTION ( 'NONE',  ( -0.4908766005403563115, -0.7917444493575637177, 0.3635668988692888348 ) ) ;
#444 = CC_DESIGN_PERSON_AND_ORGANIZATION_ASSIGNMENT ( #519, #124, ( #302 ) ) ;
#445 = ORIENTED_EDGE ( 'NONE', *, *, #615, .F. ) ;
#446 = DIRECTION ( 'NONE',  ( -0.5276071981176778669, -0.8490014859289705118, -0.02875971809343356653 ) ) ;
#447 = CARTESIAN_POINT ( 'NONE',  ( -0.1374312995219864053, 0.2126558952699509897, 0.07061474127502739839 ) ) ;
#448 = DIRECTION ( 'NONE',  ( 0.000000000000000000, 0.000000000000000000, 1.000000000000000000 ) ) ;
#449 = ORIENTED_EDGE ( 'NONE', *, *, #541, .T. ) ;
#450 = EDGE_CURVE ( 'NONE', #354, #839, #578, .T. ) ;
#451 = DIRECTION ( 'NONE',  ( 0.8493881131629322789, -0.5277628146696672351, -0.002498933665448211348 ) ) ;
#452 = CARTESIAN_POINT ( 'NONE',  ( -0.1274910483610442180, 0.2286887203694417670, 0.06325251157292434423 ) ) ;
#453 = CARTESIAN_POINT ( 'NONE',  ( -0.1423078974626564019, 0.2036033283253430026, 0.07480734850770009992 ) ) ;
#454 = ORIENTED_EDGE ( 'NONE', *, *, #565, .T. ) ;
#455 = DIRECTION ( 'NONE',  ( -0.4908766005403559785, -0.7917444493575659381, 0.3635668988692845049 ) ) ;
#456 = AXIS2_PLACEMENT_3D ( 'NONE', #756, #748, #355 ) ;
#457 = PRODUCT_DEFINITION_FORMATION_WITH_SPECIFIED_SOURCE ( 'ANY', '', #302, .NOT_KNOWN. ) ;
#458 = CARTESIAN_POINT ( 'NONE',  ( -0.1515611225088075165, 0.1887117599352974850, 0.07466196079666929941 ) ) ;
#459 = ORIENTED_EDGE ( 'NONE', *, *, #580, .T. ) ;
#460 = CARTESIAN_POINT ( 'NONE',  ( -0.1256627362764640155, 0.2316121868266994843, 0.06727409320142159477 ) ) ;
#461 = CARTESIAN_POINT ( 'NONE',  ( -0.1459771630601039982, 0.1977055491917469876, 0.07320583874446259798 ) ) ;
#462 = ORIENTED_EDGE ( 'NONE', *, *, #745, .F. ) ;
#463 = DIRECTION ( 'NONE',  ( 0.4908766005403563115, 0.7917444493575657161, -0.3635668988692849490 ) ) ;
#464 = CARTESIAN_POINT ( 'NONE',  ( -0.1581635137695019955, 0.2086218896007620005, 0.07383365004786500430 ) ) ;
#465 = EDGE_CURVE ( 'NONE', #75, #763, #174, .T. ) ;
#466 = ORIENTED_EDGE ( 'NONE', *, *, #185, .F. ) ;
#467 = CARTESIAN_POINT ( 'NONE',  ( -0.1251469093410313982, 0.2324950817317234797, 0.05614061130403819738 ) ) ;
#468 = LINE ( 'NONE', #340, #10 ) ;
#469 = VECTOR ( 'NONE', #524, 1.000000000000000000 ) ;
#470 = VECTOR ( 'NONE', #386, 1.000000000000000000 ) ;
#471 = AXIS2_PLACEMENT_3D ( 'NONE', #719, #548, #485 ) ;
#472 = EDGE_CURVE ( 'NONE', #692, #18, #648, .T. ) ;
#473 = VERTEX_POINT ( 'NONE', #57 ) ;
#474 = CARTESIAN_POINT ( 'NONE',  ( -0.1559183932605960055, 0.2103371145256059949, 0.06349051105380409954 ) ) ;
#475 = CARTESIAN_POINT ( 'NONE',  ( -0.1266320143100986007, 0.2300742731558174936, 0.06261626949990309332 ) ) ;
#476 = APPROVAL_STATUS ( 'not_yet_approved' ) ;
#477 = VERTEX_POINT ( 'NONE', #441 ) ;
#478 = CARTESIAN_POINT ( 'NONE',  ( -0.1581802918124570190, 0.2086405547455510157, 0.06348507615377799174 ) ) ;
#479 = EDGE_CURVE ( 'NONE', #482, #671, #216, .T. ) ;
#480 = DIRECTION ( 'NONE',  ( -0.4908766005403559785, -0.7917444493575659381, 0.3635668988692845049 ) ) ;
#481 = APPROVAL_DATE_TIME ( #612, #406 ) ;
#482 = VERTEX_POINT ( 'NONE', #783 ) ;
#483 = CARTESIAN_POINT ( 'NONE',  ( -0.1329927792210378878, 0.2359458098668853754, 0.06200126836303815336 ) ) ;
#484 = CARTESIAN_POINT ( 'NONE',  ( -0.1232083532737623943, 0.2355709090734874889, 0.06545625870707520721 ) ) ;
#485 = DIRECTION ( 'NONE',  ( -0.4908766005403563115, -0.7917444493575657161, 0.3635668988692849490 ) ) ;
#486 = VECTOR ( 'NONE', #706, 1.000000000000000000 ) ;
#487 = DIRECTION ( 'NONE',  ( -0.003630753453945146682, -0.001108458478111530284, -0.9999927944486194376 ) ) ;
#488 = ORIENTED_EDGE ( 'NONE', *, *, #132, .F. ) ;
#489 = CARTESIAN_POINT ( 'NONE',  ( -0.1535274191089955054, 0.2106239274566014952, 0.06350190661214601129 ) ) ;
#490 = CARTESIAN_POINT ( 'NONE',  ( -0.1533829503056841348, 0.2106191994472934592, 0.07484925368068991169 ) ) ;
#491 = CARTESIAN_POINT ( 'NONE',  ( -0.1537992342716714977, 0.1862866237820755000, 0.07621382060020409632 ) ) ;
#492 = CARTESIAN_POINT ( 'NONE',  ( -0.1538364200532955084, 0.2106442158996260083, 0.06350089349371869363 ) ) ;
#493 = ADVANCED_FACE ( 'NONE', ( #405 ), #136, .T. ) ;
#494 = CARTESIAN_POINT ( 'NONE',  ( -0.1484025568896857883, 0.1949851896834794984, 0.07345023988741450349 ) ) ;
#495 = PLANE ( 'NONE',  #525 ) ;
#496 = LINE ( 'NONE', #820, #566 ) ;
#497 = DIRECTION ( 'NONE',  ( -0.4908766005403563115, -0.7917444493575637177, 0.3635668988692888348 ) ) ;
#498 = CIRCLE ( 'NONE', #397, 0.001749999999999987460 ) ;
#499 = VECTOR ( 'NONE', #49, 1.000000000000000000 ) ;
#500 = CARTESIAN_POINT ( 'NONE',  ( -0.1711333807651385097, 0.1877779219943274958, 0.07202414340677390503 ) ) ;
#501 = FACE_OUTER_BOUND ( 'NONE', #357, .T. ) ;
#502 = VECTOR ( 'NONE', #480, 1.000000000000000000 ) ;
#503 = EDGE_LOOP ( 'NONE', ( #540, #286, #786, #614 ) ) ;
#504 = CARTESIAN_POINT ( 'NONE',  ( -0.1510939798445189997, 0.2103750425422455106, 0.06350894153358099814 ) ) ;
#505 = LINE ( 'NONE', #632, #829 ) ;
#506 = ADVANCED_FACE ( 'NONE', ( #410 ), #76, .T. ) ;
#507 = ORIENTED_EDGE ( 'NONE', *, *, #413, .T. ) ;
#508 = CARTESIAN_POINT ( 'NONE',  ( -0.1652398908184975201, 0.1839805958193355129, 0.07600498379161299556 ) ) ;
#509 = LINE ( 'NONE', #114, #499 ) ;
#510 = ORIENTED_EDGE ( 'NONE', *, *, #697, .F. ) ;
#511 = VECTOR ( 'NONE', #451, 1.000000000000000000 ) ;
#512 = CARTESIAN_POINT ( 'NONE',  ( -0.1502635608872325002, 0.2105450819574694876, 0.06351370999737500356 ) ) ;
#513 = LOCAL_TIME ( 12, 32, 50.00000000000000000, #665 ) ;
#514 = CARTESIAN_POINT ( 'NONE',  ( -0.1257729802591529833, 0.2314598259421932203, 0.06198002742688184241 ) ) ;
#515 = CARTESIAN_POINT ( 'NONE',  ( -0.1497630513649728101, 0.1916101951742779919, 0.07369111323022950466 ) ) ;
#516 = ORIENTED_EDGE ( 'NONE', *, *, #31, .F. ) ;
#517 = DIRECTION ( 'NONE',  ( -0.8493881131629322789, 0.5277628146696672351, 0.002498933665448211348 ) ) ;
#518 = CARTESIAN_POINT ( 'NONE',  ( -0.1241776313073968130, 0.2340329954026053316, 0.06079843500555667107 ) ) ;
#519 = PERSON_AND_ORGANIZATION ( #3, #817 ) ;
#520 = VERTEX_POINT ( 'NONE', #263 ) ;
#521 = CARTESIAN_POINT ( 'NONE',  ( -0.1483944123940149906, 0.2115551216700874981, 0.06352465380054499178 ) ) ;
#522 = CARTESIAN_POINT ( 'NONE',  ( 0.000000000000000000, 0.000000000000000000, 0.000000000000000000 ) ) ;
#523 = ORIENTED_EDGE ( 'NONE', *, *, #311, .F. ) ;
#524 = DIRECTION ( 'NONE',  ( 0.8493881131629342773, -0.5277628146696642375, -0.002498933665446691297 ) ) ;
#525 = AXIS2_PLACEMENT_3D ( 'NONE', #484, #616, #298 ) ;
#526 = ORIENTED_EDGE ( 'NONE', *, *, #734, .T. ) ;
#527 = DIRECTION ( 'NONE',  ( -0.8493881131629322789, 0.5277628146696672351, 0.002498933665448211348 ) ) ;
#528 = FACE_OUTER_BOUND ( 'NONE', #425, .T. ) ;
#529 = EDGE_CURVE ( 'NONE', #268, #81, #328, .T. ) ;
#530 = DIRECTION ( 'NONE',  ( 1.000000000000000000, 0.000000000000000000, 0.000000000000000000 ) ) ;
#531 = VERTEX_POINT ( 'NONE', #209 ) ;
#532 = CARTESIAN_POINT ( 'NONE',  ( -0.1578693027860809950, 0.2090244217825409923, 0.06348318299242990126 ) ) ;
#533 = DIRECTION ( 'NONE',  ( 0.5276071981176788661, 0.8490014859289697347, 0.02875971809343354224 ) ) ;
#534 = CALENDAR_DATE ( 2026, 6, 9 ) ;
#535 = EDGE_LOOP ( 'NONE', ( #436, #573, #459, #46 ) ) ;
#536 = CARTESIAN_POINT ( 'NONE',  ( -0.1274910483610442180, 0.2286887203694417670, 0.06325251157292434423 ) ) ;
#537 = CARTESIAN_POINT ( 'NONE',  ( -0.1455101325348169550, 0.2157563264082674181, 0.07127222428420496025 ) ) ;
#538 = AXIS2_PLACEMENT_3D ( 'NONE', #424, #741, #427 ) ;
#539 = VECTOR ( 'NONE', #672, 1.000000000000000000 ) ;
#540 = ORIENTED_EDGE ( 'NONE', *, *, #228, .F. ) ;
#541 = EDGE_CURVE ( 'NONE', #671, #698, #845, .T. ) ;
#542 = CARTESIAN_POINT ( 'NONE',  ( -0.1557066272695671050, 0.2104157045856481223, 0.06349178313990032352 ) ) ;
#543 = DIRECTION ( 'NONE',  ( 0.4908766005403563115, 0.7917444493575637177, -0.3635668988692888348 ) ) ;
#544 = PERSON_AND_ORGANIZATION ( #3, #817 ) ;
#545 = ORIENTED_EDGE ( 'NONE', *, *, #118, .T. ) ;
#546 = EDGE_CURVE ( 'NONE', #763, #600, #171, .T. ) ;
#547 = CARTESIAN_POINT ( 'NONE',  ( -0.1907951760645060224, 0.1723983094575650132, 0.09746012192099980098 ) ) ;
#548 = DIRECTION ( 'NONE',  ( 0.8493881131629322789, -0.5277628146696672351, -0.002498933665448211348 ) ) ;
#549 = PERSON_AND_ORGANIZATION ( #3, #817 ) ;
#550 = CARTESIAN_POINT ( 'NONE',  ( -0.1536394054099875228, 0.2106441008956885241, 0.07484068625548701004 ) ) ;
#551 = VERTEX_POINT ( 'NONE', #460 ) ;
#552 = CARTESIAN_POINT ( 'NONE',  ( -0.1543069587067119885, 0.2106529151686875045, 0.06349912824466549810 ) ) ;
#553 = AXIS2_PLACEMENT_3D ( 'NONE', #84, #353, #620 ) ;
#554 = CARTESIAN_POINT ( 'NONE',  ( -0.1714137107727700116, 0.2037804400265920135, 0.05746893434291020647 ) ) ;
#555 = CARTESIAN_POINT ( 'NONE',  ( -0.1529208669107429974, 0.2104979513499745103, 0.06350296672274680088 ) ) ;
#556 = PLANE ( 'NONE',  #415 ) ;
#557 = ADVANCED_FACE ( 'NONE', ( #593 ), #213, .T. ) ;
#558 = CARTESIAN_POINT ( 'NONE',  ( -0.1266320143100986007, 0.2300742731558174936, 0.06261626949990309332 ) ) ;
#559 = ORIENTED_EDGE ( 'NONE', *, *, #812, .F. ) ;
#560 = DIRECTION ( 'NONE',  ( -0.5276071981176782000, -0.8490014859289702898, -0.02875971809343356306 ) ) ;
#561 = PRODUCT_DEFINITION ( 'UNKNOWN', '', #457, #221 ) ;
#562 = CARTESIAN_POINT ( 'NONE',  ( -0.1528397704052539829, 0.2105227098728080226, 0.08583880250957320879 ) ) ;
#563 = VERTEX_POINT ( 'NONE', #536 ) ;
#564 = LINE ( 'NONE', #164, #343 ) ;
#565 = EDGE_CURVE ( 'NONE', #690, #473, #596, .T. ) ;
#566 = VECTOR ( 'NONE', #423, 1.000000000000000000 ) ;
#567 = AXIS2_PLACEMENT_3D ( 'NONE', #640, #44, #575 ) ;
#568 = DIRECTION ( 'NONE',  ( -0.5262498694825327172, -0.8465752082762734165, -0.07982162364674025290 ) ) ;
#569 = LINE ( 'NONE', #689, #762 ) ;
#570 = EDGE_LOOP ( 'NONE', ( #662, #377 ) ) ;
#571 = CARTESIAN_POINT ( 'NONE',  ( -0.1437920644329257203, 0.2185274319810188992, 0.06999974013816245844 ) ) ;
#572 = FACE_OUTER_BOUND ( 'NONE', #758, .T. ) ;
#573 = ORIENTED_EDGE ( 'NONE', *, *, #745, .T. ) ;
#574 = CARTESIAN_POINT ( 'NONE',  ( -0.1546419171125915093, 0.2106404037523385009, 0.07467749277543500597 ) ) ;
#575 = DIRECTION ( 'NONE',  ( -0.4908766005403563115, -0.7917444493575637177, 0.3635668988692888348 ) ) ;
#576 = CARTESIAN_POINT ( 'NONE',  ( -0.1532683608912724926, 0.1859567684130974952, 0.07621225874957089641 ) ) ;
#577 = ORIENTED_EDGE ( 'NONE', *, *, #722, .F. ) ;
#578 = LINE ( 'NONE', #257, #511 ) ;
#579 = AXIS2_PLACEMENT_3D ( 'NONE', #610, #4, #200 ) ;
#580 = EDGE_CURVE ( 'NONE', #381, #830, #749, .T. ) ;
#581 = CARTESIAN_POINT ( 'NONE',  ( -0.1652575116432314917, 0.1972219389316550164, 0.07470225611911690544 ) ) ;
#582 = EDGE_LOOP ( 'NONE', ( #205, #333, #309, #445, #782, #319 ) ) ;
#583 = DIRECTION ( 'NONE',  ( -0.8493881131629322789, 0.5277628146696672351, 0.002498933665448211348 ) ) ;
#584 = CARTESIAN_POINT ( 'NONE',  ( -0.1384321380954794123, 0.2110221090364685081, 0.07547730877726749332 ) ) ;
#585 = EDGE_LOOP ( 'NONE', ( #52, #730, #265, #108 ) ) ;
#586 = DIRECTION ( 'NONE',  ( -0.1938556067269072425, -0.3075827341764090783, -0.9315647403037039531 ) ) ;
#587 = CARTESIAN_POINT ( 'NONE',  ( -0.1578155440357479899, 0.2092036402214545177, 0.07375082114162889724 ) ) ;
#588 = ORIENTED_EDGE ( 'NONE', *, *, #790, .T. ) ;
#589 = EDGE_CURVE ( 'NONE', #637, #473, #55, .T. ) ;
#590 = CARTESIAN_POINT ( 'NONE',  ( -0.1559475941302874979, 0.2103260436014940116, 0.06349033565408450375 ) ) ;
#591 = CIRCLE ( 'NONE', #538, 0.001749999999999987460 ) ;
#592 = EDGE_LOOP ( 'NONE', ( #466, #449, #338, #128, #41, #176 ) ) ;
#593 = FACE_OUTER_BOUND ( 'NONE', #291, .T. ) ;
#594 = CARTESIAN_POINT ( 'NONE',  ( -0.1374312995219864053, 0.2126558952699509897, 0.07061474127502739839 ) ) ;
#595 = VERTEX_POINT ( 'NONE', #68 ) ;
#596 = LINE ( 'NONE', #655, #693 ) ;
#597 = PLANE ( 'NONE',  #579 ) ;
#598 = ADVANCED_FACE ( 'NONE', ( #601 ), #14, .F. ) ;
#599 = PERSON_AND_ORGANIZATION ( #3, #817 ) ;
#600 = VERTEX_POINT ( 'NONE', #417 ) ;
#601 = FACE_OUTER_BOUND ( 'NONE', #585, .T. ) ;
#602 = CARTESIAN_POINT ( 'NONE',  ( -0.1583382512228760086, 0.2083622406931499860, 0.07378188473318449125 ) ) ;
#603 = COORDINATED_UNIVERSAL_TIME_OFFSET ( 2, 0, .AHEAD. ) ;
#604 = AXIS2_PLACEMENT_3D ( 'NONE', #522, #448, #530 ) ;
#605 = ORIENTED_EDGE ( 'NONE', *, *, #761, .F. ) ;
#606 = DIRECTION ( 'NONE',  ( 0.8493881131629322789, -0.5277628146696672351, -0.002498933665448211348 ) ) ;
#607 = CARTESIAN_POINT ( 'NONE',  ( -0.1579408898734140088, 0.2088990039919020048, 0.07389739647800419586 ) ) ;
#608 = FACE_OUTER_BOUND ( 'NONE', #535, .T. ) ;
#609 = VERTEX_POINT ( 'NONE', #483 ) ;
#610 = CARTESIAN_POINT ( 'NONE',  ( -0.1304281522356472156, 0.2400568929981795052, 0.06547749964323150429 ) ) ;
#611 = UNCERTAINTY_MEASURE_WITH_UNIT (LENGTH_MEASURE( 1.000000000000000082E-05 ), #61, 'distance_accuracy_value', 'NONE');
#612 = DATE_AND_TIME ( #534, #831 ) ;
#613 = CARTESIAN_POINT ( 'NONE',  ( -0.1276012923437332136, 0.2285363594849355029, 0.05795844579838459881 ) ) ;
#614 = ORIENTED_EDGE ( 'NONE', *, *, #639, .T. ) ;
#615 = EDGE_CURVE ( 'NONE', #698, #81, #96, .T. ) ;
#616 = DIRECTION ( 'NONE',  ( -0.1938556067269072425, -0.3075827341764090783, -0.9315647403037039531 ) ) ;
#617 = FACE_OUTER_BOUND ( 'NONE', #193, .T. ) ;
#618 = VECTOR ( 'NONE', #682, 1.000000000000000000 ) ;
#619 = SECURITY_CLASSIFICATION ( '', '', #83 ) ;
#620 = DIRECTION ( 'NONE',  ( -0.4908766005403563115, -0.7917444493575637177, 0.3635668988692888348 ) ) ;
#621 = CARTESIAN_POINT ( 'NONE',  ( -0.1541498186491044864, 0.2106574089077090095, 0.06349978914172389743 ) ) ;
#622 = CARTESIAN_POINT ( 'NONE',  ( -0.1540829250751345192, 0.2056797284754925126, 0.08584868441267839989 ) ) ;
#623 = CARTESIAN_POINT ( 'NONE',  ( -0.1548666326214860056, 0.2106132515303094921, 0.06349655191375930263 ) ) ;
#624 = DIRECTION ( 'NONE',  ( 0.8493881131629322789, -0.5277628146696673461, -0.002498933665448482833 ) ) ;
#625 = EDGE_CURVE ( 'NONE', #692, #766, #591, .T. ) ;
#626 = EDGE_LOOP ( 'NONE', ( #404, #56, #716, #654 ) ) ;
#627 = LINE ( 'NONE', #359, #618 ) ;
#628 = CYLINDRICAL_SURFACE ( 'NONE', #225, 0.005000000000000003574 ) ;
#629 = ORIENTED_EDGE ( 'NONE', *, *, #429, .T. ) ;
#630 = CIRCLE ( 'NONE', #553, 0.001749999999999987460 ) ;
#631 = CARTESIAN_POINT ( 'NONE',  ( -0.1486545535799972118, 0.2113444239639570010, 0.06352356273607469295 ) ) ;
#632 = CARTESIAN_POINT ( 'NONE',  ( -0.1390892509569449931, 0.2261381454071355046, 0.06114089174330229748 ) ) ;
#633 = EDGE_LOOP ( 'NONE', ( #725, #770 ) ) ;
#634 = CARTESIAN_POINT ( 'NONE',  ( -0.1552610600013155928, 0.2105361882316181821, 0.07455664118843666199 ) ) ;
#635 = CARTESIAN_POINT ( 'NONE',  ( -0.1666014781252780075, 0.1949540076846880132, 0.09686395844939310606 ) ) ;
#636 = CARTESIAN_POINT ( 'NONE',  ( -0.1381162342445801938, 0.2103374251098215075, 0.07734564661048029532 ) ) ;
#637 = VERTEX_POINT ( 'NONE', #296 ) ;
#638 = FACE_OUTER_BOUND ( 'NONE', #710, .T. ) ;
#639 = EDGE_CURVE ( 'NONE', #477, #595, #192, .T. ) ;
#640 = CARTESIAN_POINT ( 'NONE',  ( -0.1446510984838714209, 0.2171418791946430060, 0.07063598221118370935 ) ) ;
#641 = APPROVAL_ROLE ( '' ) ;
#642 = CARTESIAN_POINT ( 'NONE',  ( -0.1365722654710407880, 0.2140414480563267163, 0.06997849920200614748 ) ) ;
#643 = ORIENTED_EDGE ( 'NONE', *, *, #349, .F. ) ;
#644 = AXIS2_PLACEMENT_3D ( 'NONE', #805, #299, #810 ) ;
#645 = CARTESIAN_POINT ( 'NONE',  ( -0.1650777082041960109, 0.1843004048209360146, 0.06358876221646149463 ) ) ;
#646 = FACE_OUTER_BOUND ( 'NONE', #582, .T. ) ;
#647 = ORIENTED_EDGE ( 'NONE', *, *, #88, .F. ) ;
#648 = LINE ( 'NONE', #837, #486 ) ;
#649 = APPROVAL_DATE_TIME ( #390, #201 ) ;
#650 = EDGE_CURVE ( 'NONE', #250, #233, #350, .T. ) ;
#651 = EDGE_LOOP ( 'NONE', ( #773, #261, #629, #139 ) ) ;
#652 = CARTESIAN_POINT ( 'NONE',  ( -0.1540829250751345192, 0.2056797284754925126, 0.08584868441267839989 ) ) ;
#653 = CARTESIAN_POINT ( 'NONE',  ( -0.1546070655243889924, 0.2143582062498600171, 0.07569374319774120619 ) ) ;
#654 = ORIENTED_EDGE ( 'NONE', *, *, #465, .T. ) ;
#655 = CARTESIAN_POINT ( 'NONE',  ( -0.1251469093410313982, 0.2324950817317234797, 0.05614061130403819738 ) ) ;
#656 = CIRCLE ( 'NONE', #292, 0.001749999999999987460 ) ;
#657 = CARTESIAN_POINT ( 'NONE',  ( -0.1570555657814645123, 0.2097232464683085051, 0.07413743398204819535 ) ) ;
#658 = DATE_AND_TIME ( #280, #513 ) ;
#659 = EDGE_LOOP ( 'NONE', ( #38, #271 ) ) ;
#660 = CARTESIAN_POINT ( 'NONE',  ( -0.1318694519950599775, 0.2216521614824434883, 0.06111965080714600040 ) ) ;
#661 = DIRECTION ( 'NONE',  ( -0.01305671137489279078, -0.02574661807598783297, 0.9995832301242963958 ) ) ;
#662 = ORIENTED_EDGE ( 'NONE', *, *, #118, .F. ) ;
#663 = CARTESIAN_POINT ( 'NONE',  ( -0.1576707350231044968, 0.2092306103278969986, 0.06348292417988740666 ) ) ;
#664 = CARTESIAN_POINT ( 'NONE',  ( -0.1583737617311949952, 0.2083051412000559988, 0.07377118880574970450 ) ) ;
#665 = COORDINATED_UNIVERSAL_TIME_OFFSET ( 2, 0, .AHEAD. ) ;
#666 = ORIENTED_EDGE ( 'NONE', *, *, #48, .T. ) ;
#667 = CARTESIAN_POINT ( 'NONE',  ( -0.1436881589562190031, 0.2044609465089904932, 0.07481140929199869838 ) ) ;
#668 = LINE ( 'NONE', #78, #539 ) ;
#669 = CIRCLE ( 'NONE', #774, 0.001749999999999987460 ) ;
#670 = CARTESIAN_POINT ( 'NONE',  ( -0.1784782694820790105, 0.1923416297771609884, 0.07204575236197270638 ) ) ;
#671 = VERTEX_POINT ( 'NONE', #550 ) ;
#672 = DIRECTION ( 'NONE',  ( -0.4908766005403559785, -0.7917444493575659381, 0.3635668988692845049 ) ) ;
#673 = COORDINATED_UNIVERSAL_TIME_OFFSET ( 2, 0, .AHEAD. ) ;
#674 = ADVANCED_FACE ( 'NONE', ( #744 ), #685, .T. ) ;
#675 = DIRECTION ( 'NONE',  ( -0.4908766005403563115, -0.7917444493575657161, 0.3635668988692849490 ) ) ;
#676 = CARTESIAN_POINT ( 'NONE',  ( -0.1384961502596220029, 0.2109116499604110073, 0.07704798735099309404 ) ) ;
#677 = MANIFOLD_SOLID_BREP ( 'Imported1', #278 ) ;
#678 = CARTESIAN_POINT ( 'NONE',  ( -0.1293660755313942035, 0.2200967017483504984, 0.06111228577386449562 ) ) ;
#679 = CARTESIAN_POINT ( 'NONE',  ( -0.1583737617311949952, 0.2083051412000559988, 0.07377118880574970450 ) ) ;
#680 = AXIS2_PLACEMENT_3D ( 'NONE', #356, #345, #229 ) ;
#681 = CARTESIAN_POINT ( 'NONE',  ( -0.1382903335729320227, 0.2112703424835752630, 0.07125098334804864930 ) ) ;
#682 = DIRECTION ( 'NONE',  ( 0.01305671137489275088, 0.02574661807598783297, -0.9995832301242963958 ) ) ;
#683 = DIRECTION ( 'NONE',  ( -0.5276071981176782000, -0.8490014859289702898, -0.02875971809343355959 ) ) ;
#684 = ADVANCED_FACE ( 'NONE', ( #223 ), #731, .T. ) ;
#685 = B_SPLINE_SURFACE_WITH_KNOTS ( 'NONE', 3, 1, ( 
 ( #236, #433 ),
 ( #17, #232 ),
 ( #547, #290 ),
 ( #670, #752 ),
 ( #554, #157 ),
 ( #218, #162 ),
 ( #80, #678 ) ),
 .UNSPECIFIED., .F., .F., .F.,
 ( 4, 3, 4 ),
 ( 2, 2 ),
 ( -1.743478551065929860, 0.000000000000000000, 1.000000000000000000 ),
 ( -1.564727043281769925, 1.144727042310949905 ),
 .UNSPECIFIED. ) ;
#686 = DIRECTION ( 'NONE',  ( -0.8493881131629322789, 0.5277628146696672351, 0.002498933665448211348 ) ) ;
#687 = ORIENTED_EDGE ( 'NONE', *, *, #847, .T. ) ;
#688 = CARTESIAN_POINT ( 'NONE',  ( -0.1529208669107429974, 0.2104979513499745103, 0.06350296672274680088 ) ) ;
#689 = CARTESIAN_POINT ( 'NONE',  ( -0.1364620214883519866, 0.2141938089408330081, 0.07527256497654589984 ) ) ;
#690 = VERTEX_POINT ( 'NONE', #613 ) ;
#691 = CARTESIAN_POINT ( 'NONE',  ( -0.1493140412004635986, 0.2109292146704399851, 0.06351980853272409799 ) ) ;
#692 = VERTEX_POINT ( 'NONE', #681 ) ;
#693 = VECTOR ( 'NONE', #2, 1.000000000000000000 ) ;
#694 = CARTESIAN_POINT ( 'NONE',  ( -0.1514421225636010115, 0.2103380901760615040, 0.06350719191406409281 ) ) ;
#695 = CARTESIAN_POINT ( 'NONE',  ( -0.1669647500256964956, 0.1944669474094549988, 0.07625255407201850244 ) ) ;
#696 = CARTESIAN_POINT ( 'NONE',  ( -0.1584110974400235183, 0.2082937427168239930, 0.06348807803842550224 ) ) ;
#697 = EDGE_CURVE ( 'NONE', #609, #246, #669, .T. ) ;
#698 = VERTEX_POINT ( 'NONE', #360 ) ;
#699 = DIRECTION ( 'NONE',  ( -0.4908766005403563115, -0.7917444493575657161, 0.3635668988692849490 ) ) ;
#700 = APPLICATION_PROTOCOL_DEFINITION ( 'international standard', 'config_control_design', 1994, #383 ) ;
#701 = EDGE_LOOP ( 'NONE', ( #507, #373, #399, #281 ) ) ;
#702 = CARTESIAN_POINT ( 'NONE',  ( -0.1473496751695583806, 0.2127268771967754935, 0.08581642593814070574 ) ) ;
#703 = CARTESIAN_POINT ( 'NONE',  ( -0.1532098444516964975, 0.2166029051780195003, 0.07653984256533459540 ) ) ;
#704 = ORIENTED_EDGE ( 'NONE', *, *, #315, .F. ) ;
#705 = AXIS2_PLACEMENT_3D ( 'NONE', #645, #446, #583 ) ;
#706 = DIRECTION ( 'NONE',  ( -0.8493881131629322789, 0.5277628146696672351, 0.002498933665448211348 ) ) ;
#707 = AXIS2_PLACEMENT_3D ( 'NONE', #40, #757, #380 ) ;
#708 = CIRCLE ( 'NONE', #346, 0.001749999999999987460 ) ;
#709 = ADVANCED_FACE ( 'NONE', ( #608 ), #813, .T. ) ;
#710 = EDGE_LOOP ( 'NONE', ( #224, #23, #394, #647 ) ) ;
#711 = CARTESIAN_POINT ( 'NONE',  ( -0.1553012256140606229, 0.2105239264079966643, 0.06349414729804786495 ) ) ;
#712 = CARTESIAN_POINT ( 'NONE',  ( -0.1596735521945285008, 0.2062157281881044912, 0.07324613406691020401 ) ) ;
#713 = ORIENTED_EDGE ( 'NONE', *, *, #580, .F. ) ;
#714 = CARTESIAN_POINT ( 'NONE',  ( -0.1559330053075730083, 0.2103316137774000061, 0.06349042327236610606 ) ) ;
#715 = CARTESIAN_POINT ( 'NONE',  ( -0.1473880932348705930, 0.2127151482730830212, 0.07523520940109430788 ) ) ;
#716 = ORIENTED_EDGE ( 'NONE', *, *, #439, .F. ) ;
#717 = CARTESIAN_POINT ( 'NONE',  ( -0.1544115715839080027, 0.2106644500338689940, 0.07471980421189369781 ) ) ;
#718 = AXIS2_PLACEMENT_3D ( 'NONE', #467, #586, #395 ) ;
#719 = CARTESIAN_POINT ( 'NONE',  ( -0.1266320143100986007, 0.2300742731558174936, 0.06261626949990309332 ) ) ;
#720 = LOCAL_TIME ( 12, 32, 50.00000000000000000, #603 ) ;
#721 = ORIENTED_EDGE ( 'NONE', *, *, #565, .F. ) ;
#722 = EDGE_CURVE ( 'NONE', #531, #354, #64, .T. ) ;
#723 = CARTESIAN_POINT ( 'NONE',  ( -0.1572286075986950027, 0.2096172570477519981, 0.06348359064502920313 ) ) ;
#724 = DIRECTION ( 'NONE',  ( 0.8493881131629322789, -0.5277628146696672351, -0.002498933665448211348 ) ) ;
#725 = ORIENTED_EDGE ( 'NONE', *, *, #697, .T. ) ;
#726 = CARTESIAN_POINT ( 'NONE',  ( -0.1546486223848345110, 0.1868143865967455131, 0.07621631953386950875 ) ) ;
#727 = PRODUCT_RELATED_PRODUCT_CATEGORY ( 'detail', '', ( #302 ) ) ;
#728 = DIRECTION ( 'NONE',  ( -0.5262498694825327172, -0.8465752082762734165, -0.07982162364674025290 ) ) ;
#729 = APPROVAL_DATE_TIME ( #11, #776 ) ;
#730 = ORIENTED_EDGE ( 'NONE', *, *, #625, .T. ) ;
#731 = CYLINDRICAL_SURFACE ( 'NONE', #305, 0.005000000000000003574 ) ;
#732 = CARTESIAN_POINT ( 'NONE',  ( -0.1448511552312664041, 0.2167963061855724960, 0.07562001236691340278 ) ) ;
#733 = CARTESIAN_POINT ( 'NONE',  ( -0.1567174210627775011, 0.2099423622309219972, 0.07422314126226758901 ) ) ;
#734 = EDGE_CURVE ( 'NONE', #563, #520, #630, .T. ) ;
#735 = AXIS2_PLACEMENT_3D ( 'NONE', #293, #808, #568 ) ;
#736 = CALENDAR_DATE ( 2026, 6, 9 ) ;
#737 = DIRECTION ( 'NONE',  ( 0.8493881131629322789, -0.5277628146696672351, -0.002498933665448211348 ) ) ;
#738 = CARTESIAN_POINT ( 'NONE',  ( -0.1552480210491359314, 0.2105363524420824362, 0.06349444936268476558 ) ) ;
#739 = CYLINDRICAL_SURFACE ( 'NONE', #456, 0.004999999999999994900 ) ;
#740 = CC_DESIGN_PERSON_AND_ORGANIZATION_ASSIGNMENT ( #58, #414, ( #561 ) ) ;
#741 = DIRECTION ( 'NONE',  ( 0.8493881131629322789, -0.5277628146696672351, -0.002498933665448211348 ) ) ;
#742 = EDGE_LOOP ( 'NONE', ( #462, #12, #364, #163, #112 ) ) ;
#743 = LINE ( 'NONE', #244, #120 ) ;
#744 = FACE_OUTER_BOUND ( 'NONE', #387, .T. ) ;
#745 = EDGE_CURVE ( 'NONE', #482, #381, #28, .T. ) ;
#746 = ORIENTED_EDGE ( 'NONE', *, *, #146, .F. ) ;
#747 = DIRECTION ( 'NONE',  ( -0.4908766005403563115, -0.7917444493575657161, 0.3635668988692849490 ) ) ;
#748 = DIRECTION ( 'NONE',  ( -0.003630753453945091604, -0.001108458478112084311, -0.9999927944486194376 ) ) ;
#749 = B_SPLINE_CURVE_WITH_KNOTS ( 'NONE', 3,
 ( #711, #392, #542, #199, #474, #714, #590, #843, #140, #401, #266, #723, #129, #663, #532, #339, #478, #792, #277 ),
 .UNSPECIFIED., .F., .F.,
 ( 4, 3, 3, 3, 3, 3, 4 ),
 ( -0.3933796191137924891, -0.3302744474533440000, -0.3255896007316400054, -0.2386943041729220061, -0.1482109317332279963, -0.06249086529902164733, 0.000000000000000000 ),
 .UNSPECIFIED. ) ;
#750 = CIRCLE ( 'NONE', #567, 0.001749999999999987460 ) ;
#751 = VECTOR ( 'NONE', #533, 1.000000000000000000 ) ;
#752 = CARTESIAN_POINT ( 'NONE',  ( -0.1554644885474469884, 0.1780421386328545075, 0.07197804490167800107 ) ) ;
#753 = CARTESIAN_POINT ( 'NONE',  ( -0.1545876336339840063, 0.2106448886992300096, 0.06349794778669309858 ) ) ;
#754 = DIRECTION ( 'NONE',  ( -0.8493881131629322789, 0.5277628146696672351, 0.002498933665448211348 ) ) ;
#755 = CARTESIAN_POINT ( 'NONE',  ( -0.1506859770459194892, 0.2099475504559945860, 0.07491093949028400367 ) ) ;
#756 = CARTESIAN_POINT ( 'NONE',  ( -0.1515966157353730026, 0.2153656912701240045, 0.08582892060646789278 ) ) ;
#757 = DIRECTION ( 'NONE',  ( 0.8493881131629322789, -0.5277628146696672351, -0.002498933665448211348 ) ) ;
#758 = EDGE_LOOP ( 'NONE', ( #6, #523, #351, #836, #147 ) ) ;
#759 = DIRECTION ( 'NONE',  ( -0.003630753453945283291, -0.001108458478112361433, -0.9999927944486195486 ) ) ;
#760 = DIRECTION ( 'NONE',  ( -0.8493881131629322789, 0.5277628146696672351, 0.002498933665448211348 ) ) ;
#761 = EDGE_CURVE ( 'NONE', #794, #551, #239, .T. ) ;
#762 = VECTOR ( 'NONE', #289, 1.000000000000000000 ) ;
#763 = VERTEX_POINT ( 'NONE', #111 ) ;
#764 = CARTESIAN_POINT ( 'NONE',  ( -0.1711856076106380020, 0.1876749355220234949, 0.07602247632727120175 ) ) ;
#765 = CARTESIAN_POINT ( 'NONE',  ( -0.1395134553172722169, 0.2080927261816619966, 0.07649954724288690611 ) ) ;
#766 = VERTEX_POINT ( 'NONE', #642 ) ;
#767 = CARTESIAN_POINT ( 'NONE',  ( -0.1511538030105964991, 0.2103684665697894973, 0.06350863893218099132 ) ) ;
#768 = LINE ( 'NONE', #452, #317 ) ;
#769 = CALENDAR_DATE ( 2026, 6, 9 ) ;
#770 = ORIENTED_EDGE ( 'NONE', *, *, #132, .T. ) ;
#771 = ADVANCED_FACE ( 'NONE', ( #572 ), #375, .F. ) ;
#772 = CARTESIAN_POINT ( 'NONE',  ( -0.1304281522356472156, 0.2400568929981795052, 0.06547749964323150429 ) ) ;
#773 = ORIENTED_EDGE ( 'NONE', *, *, #529, .F. ) ;
#774 = AXIS2_PLACEMENT_3D ( 'NONE', #94, #606, #497 ) ;
#775 = CARTESIAN_POINT ( 'NONE',  ( -0.1474306225141708004, 0.2127021642077074892, 0.06352167021626840826 ) ) ;
#776 = APPROVAL ( #138, 'UNSPECIFIED' ) ;
#777 = CARTESIAN_POINT ( 'NONE',  ( -0.1709222548032680034, 0.1880806733991834956, 0.07984625933209439641 ) ) ;
#778 = ORIENTED_EDGE ( 'NONE', *, *, #156, .T. ) ;
#779 = DIRECTION ( 'NONE',  ( 0.8493881131629342773, -0.5277628146696642375, -0.002498933665446691297 ) ) ;
#780 = LINE ( 'NONE', #211, #751 ) ;
#781 = DATE_TIME_ROLE ( 'classification_date' ) ;
#782 = ORIENTED_EDGE ( 'NONE', *, *, #541, .F. ) ;
#783 = CARTESIAN_POINT ( 'NONE',  ( -0.1552610600013155928, 0.2105361882316181821, 0.07455664118843666199 ) ) ;
#784 = CARTESIAN_POINT ( 'NONE',  ( -0.1553812484827156448, 0.2105081112066874705, 0.07453185593434655254 ) ) ;
#785 = EDGE_CURVE ( 'NONE', #440, #18, #750, .T. ) ;
#786 = ORIENTED_EDGE ( 'NONE', *, *, #262, .T. ) ;
#787 = CARTESIAN_POINT ( 'NONE',  ( -0.1417326677018033998, 0.2218745269482874927, 0.06309873374939781177 ) ) ;
#788 = CARTESIAN_POINT ( 'NONE',  ( -0.1552610600013155928, 0.2105361882316181821, 0.07455664118843666199 ) ) ;
#789 = APPROVAL_PERSON_ORGANIZATION ( #549, #406, #284 ) ;
#790 = EDGE_CURVE ( 'NONE', #520, #609, #828, .T. ) ;
#791 = ORIENTED_EDGE ( 'NONE', *, *, #311, .T. ) ;
#792 = CARTESIAN_POINT ( 'NONE',  ( -0.1583011702458385073, 0.2084706692635274750, 0.06348631719807790175 ) ) ;
#793 = CYLINDRICAL_SURFACE ( 'NONE', #210, 0.001749999999999987460 ) ;
#794 = VERTEX_POINT ( 'NONE', #518 ) ;
#795 = DIRECTION ( 'NONE',  ( 0.8493881131629322789, -0.5277628146696672351, -0.002498933665448211348 ) ) ;
#796 = EDGE_CURVE ( 'NONE', #342, #839, #344, .T. ) ;
#797 = CARTESIAN_POINT ( 'NONE',  ( -0.1565282832608204944, 0.2100569856756484832, 0.07427041745226839464 ) ) ;
#798 = PERSON_AND_ORGANIZATION ( #3, #817 ) ;
#799 = CARTESIAN_POINT ( 'NONE',  ( -0.1338518132719836162, 0.2345602570805094822, 0.06263751043605940427 ) ) ;
#800 = CARTESIAN_POINT ( 'NONE',  ( -0.1652575116432314917, 0.1972219389316550164, 0.07470225611911690544 ) ) ;
#801 = DIRECTION ( 'NONE',  ( -0.01305671137489316201, -0.02574661807598845401, 0.9995832301242962847 ) ) ;
#802 = AXIS2_PLACEMENT_3D ( 'NONE', #87, #737, #675 ) ;
#803 = CARTESIAN_POINT ( 'NONE',  ( -0.1520919958892069934, 0.1890416153042749903, 0.07466352264730249932 ) ) ;
#804 = CARTESIAN_POINT ( 'NONE',  ( -0.1553012256140606229, 0.2105239264079966643, 0.06349414729804786495 ) ) ;
#805 = CARTESIAN_POINT ( 'NONE',  ( -0.1266320143100986007, 0.2300742731558174936, 0.06261626949990309332 ) ) ;
#806 = DIRECTION ( 'NONE',  ( -0.4908766005403563115, -0.7917444493575657161, 0.3635668988692849490 ) ) ;
#807 = ORIENTED_EDGE ( 'NONE', *, *, #384, .T. ) ;
#808 = DIRECTION ( 'NONE',  ( -0.04001134947901106853, -0.06911460181419404325, 0.9968060311459465694 ) ) ;
#809 = CARTESIAN_POINT ( 'NONE',  ( -0.1338518132719836162, 0.2345602570805094822, 0.06263751043605940427 ) ) ;
#810 = DIRECTION ( 'NONE',  ( 0.4908766005403563115, 0.7917444493575637177, -0.3635668988692888348 ) ) ;
#811 = ADVANCED_BREP_SHAPE_REPRESENTATION ( 'Claw', ( #677, #604 ), #122 ) ;
#812 = EDGE_CURVE ( 'NONE', #551, #133, #509, .T. ) ;
#813 = CYLINDRICAL_SURFACE ( 'NONE', #264, 0.004999999999999998369 ) ;
#814 = CARTESIAN_POINT ( 'NONE',  ( -0.1553012256140606229, 0.2105239264079966643, 0.06349414729804786495 ) ) ;
#815 = CARTESIAN_POINT ( 'NONE',  ( -0.1266320143100986007, 0.2300742731558174936, 0.06261626949990309332 ) ) ;
#816 = AXIS2_PLACEMENT_3D ( 'NONE', #652, #7, #126 ) ;
#817 = ORGANIZATION ( 'UNSPECIFIED', 'UNSPECIFIED', '' ) ;
#818 = CIRCLE ( 'NONE', #93, 0.001749999999999987460 ) ;
#819 = CARTESIAN_POINT ( 'NONE',  ( -0.1475228948095959891, 0.2125578256632340013, 0.06352273632641308732 ) ) ;
#820 = CARTESIAN_POINT ( 'NONE',  ( -0.1583298656409490024, 0.2083185425488409959, 0.08586117908100560081 ) ) ;
#821 = EDGE_LOOP ( 'NONE', ( #605, #67, #125, #559 ) ) ;
#822 = CARTESIAN_POINT ( 'NONE',  ( -0.1491194910034915888, 0.2110391381705609970, 0.06352102048185009897 ) ) ;
#823 = EDGE_CURVE ( 'NONE', #563, #246, #768, .T. ) ;
#824 = DIRECTION ( 'NONE',  ( 0.8493881131629310577, -0.5277628146696689004, -0.002498933665448038743 ) ) ;
#825 = ORIENTED_EDGE ( 'NONE', *, *, #336, .T. ) ;
#826 = CARTESIAN_POINT ( 'NONE',  ( -0.1474758273754243898, 0.2126294082171785171, 0.06352224427690159048 ) ) ;
#827 = CC_DESIGN_PERSON_AND_ORGANIZATION_ASSIGNMENT ( #599, #408, ( #457 ) ) ;
#828 = LINE ( 'NONE', #514, #135 ) ;
#829 = VECTOR ( 'NONE', #155, 1.000000000000000000 ) ;
#830 = VERTEX_POINT ( 'NONE', #696 ) ;
#831 = LOCAL_TIME ( 12, 32, 50.00000000000000000, #673 ) ;
#832 =( BOUNDED_CURVE ( )  B_SPLINE_CURVE ( 3, ( #374, #243, #755, #314 ),
 .UNSPECIFIED., .F., .T. ) 
 B_SPLINE_CURVE_WITH_KNOTS ( ( 4, 4 ),
 ( 1.570796326794809517, 2.836899999574346243 ),
 .UNSPECIFIED. ) 
 CURVE ( )  GEOMETRIC_REPRESENTATION_ITEM ( )  RATIONAL_B_SPLINE_CURVE ( ( 1.000000000000000000, 0.8708171832198958739, 0.8708171832198958739, 1.000000000000000000 ) ) 
 REPRESENTATION_ITEM ( '' )  );
#833 = DIRECTION ( 'NONE',  ( 0.4908766005403563115, 0.7917444493575637177, -0.3635668988692888348 ) ) ;
#834 = CARTESIAN_POINT ( 'NONE',  ( -0.1545875291504625049, 0.1838280104096735035, 0.07741016050292960637 ) ) ;
#835 = ADVANCED_FACE ( 'NONE', ( #646 ), #245, .T. ) ;
#836 = ORIENTED_EDGE ( 'NONE', *, *, #5, .T. ) ;
#837 = CARTESIAN_POINT ( 'NONE',  ( -0.1382903335729320227, 0.2112703424835752630, 0.07125098334804864930 ) ) ;
#838 = CARTESIAN_POINT ( 'NONE',  ( -0.1409106763899644066, 0.2058480272535025135, 0.07565344787529348913 ) ) ;
#839 = VERTEX_POINT ( 'NONE', #115 ) ;
#840 = CARTESIAN_POINT ( 'NONE',  ( -0.1538439878272160055, 0.2106607558270549851, 0.07481122750510969810 ) ) ;
#841 = ORIENTED_EDGE ( 'NONE', *, *, #761, .T. ) ;
#842 = VECTOR ( 'NONE', #455, 1.000000000000000000 ) ;
#843 = CARTESIAN_POINT ( 'NONE',  ( -0.1562181899793070039, 0.2102227270756824862, 0.06348871049599139060 ) ) ;
#844 = EDGE_LOOP ( 'NONE', ( #545, #313, #510, #258 ) ) ;
#845 = LINE ( 'NONE', #667, #469 ) ;
#846 = DIRECTION ( 'NONE',  ( -0.4908766005403563115, -0.7917444493575637177, 0.3635668988692888348 ) ) ;
#847 = EDGE_CURVE ( 'NONE', #839, #698, #260, .T. ) ;
ENDSEC;
END-ISO-10303-21;
