ISO-10303-21;
HEADER;
FILE_DESCRIPTION (( 'STEP AP203' ),
    '1' );
FILE_NAME ('Claw Link.STEP',
    '2026-09-06T09:31:57',
    ( '' ),
    ( '' ),
    'SwSTEP 2.0',
    'SolidWorks 2025',
    '' );
FILE_SCHEMA (( 'CONFIG_CONTROL_DESIGN' ));
ENDSEC;

DATA;
#1 = DIRECTION ( 'NONE',  ( 0.8493881131629326120, -0.5277628146696667910, -0.002498933665447418580 ) ) ;
#2 = ORIENTED_EDGE ( 'NONE', *, *, #506, .T. ) ;
#3 = AXIS2_PLACEMENT_3D ( 'NONE', #236, #326, #41 ) ;
#4 = DATE_TIME_ROLE ( 'classification_date' ) ;
#5 = DIRECTION ( 'NONE',  ( 0.3035047665628710645, 0.4923270772325211153, -0.8157811628723111719 ) ) ;
#6 = EDGE_CURVE ( 'NONE', #510, #480, #514, .T. ) ;
#7 = DIRECTION ( 'NONE',  ( -0.8493881131629326120, 0.5277628146696667910, 0.002498933665447418580 ) ) ;
#8 = CARTESIAN_POINT ( 'NONE',  ( -0.1460264269738069942, 0.2225128870168749939, 0.06951315251871929835 ) ) ;
#9 = EDGE_LOOP ( 'NONE', ( #221, #488, #29, #242 ) ) ;
#10 = VECTOR ( 'NONE', #241, 1.000000000000000000 ) ;
#11 = DATE_AND_TIME ( #513, #338 ) ;
#12 = AXIS2_PLACEMENT_3D ( 'NONE', #563, #335, #5 ) ;
#13 = DIRECTION ( 'NONE',  ( -0.3035047665628669011, -0.4923270772325278322, 0.8157811628723087294 ) ) ;
#14 = CARTESIAN_POINT ( 'NONE',  ( -0.1438923365674653898, 0.2183726968877235108, 0.06859652930400640669 ) ) ;
#15 = EDGE_LOOP ( 'NONE', ( #45, #257, #137, #78 ) ) ;
#16 = DIRECTION ( 'NONE',  ( 0.3035047665628684554, 0.4923270772325296640, -0.8157811628723070640 ) ) ;
#17 = VERTEX_POINT ( 'NONE', #42 ) ;
#18 = VECTOR ( 'NONE', #1, 1.000000000000000000 ) ;
#19 = CC_DESIGN_PERSON_AND_ORGANIZATION_ASSIGNMENT ( #598, #188, ( #363 ) ) ;
#20 = DIRECTION ( 'NONE',  ( 0.8493881131629326120, -0.5277628146696667910, -0.002498933665447418580 ) ) ;
#21 = CARTESIAN_POINT ( 'NONE',  ( -0.1317973849085872229, 0.2377371547261080964, 0.08999261345496324671 ) ) ;
#22 = EDGE_LOOP ( 'NONE', ( #270, #166, #2, #453 ) ) ;
#23 = EDGE_CURVE ( 'NONE', #100, #299, #85, .T. ) ;
#24 = DIRECTION ( 'NONE',  ( 0.3035047665628684554, 0.4923270772325296640, -0.8157811628723070640 ) ) ;
#25 = CARTESIAN_POINT ( 'NONE',  ( -0.1411122065491174082, 0.2228468031808620020, 0.06865353771371029978 ) ) ;
#26 = VERTEX_POINT ( 'NONE', #458 ) ;
#27 = CARTESIAN_POINT ( 'NONE',  ( -0.1346638040197540021, 0.2407097783699435056, 0.08857499215459850583 ) ) ;
#28 = DIRECTION ( 'NONE',  ( 0.4317692553796909083, 0.6921563844071858540, 0.5783552970564368456 ) ) ;
#29 = ORIENTED_EDGE ( 'NONE', *, *, #101, .T. ) ;
#30 = AXIS2_PLACEMENT_3D ( 'NONE', #535, #387, #300 ) ;
#31 = CARTESIAN_POINT ( 'NONE',  ( -0.1332884755298195945, 0.2353387705477104908, 0.08969782184706628914 ) ) ;
#32 = DIRECTION ( 'NONE',  ( -0.8493881131629326120, 0.5277628146696667910, 0.002498933665447418580 ) ) ;
#33 =( GEOMETRIC_REPRESENTATION_CONTEXT ( 3 ) GLOBAL_UNCERTAINTY_ASSIGNED_CONTEXT ( ( #144 ) ) GLOBAL_UNIT_ASSIGNED_CONTEXT ( ( #507, #550, #457 ) ) REPRESENTATION_CONTEXT ( 'NONE', 'WORKASPACE' ) );
#34 = AXIS2_PLACEMENT_3D ( 'NONE', #145, #325, #508 ) ;
#35 = ORIENTED_EDGE ( 'NONE', *, *, #329, .T. ) ;
#36 = ADVANCED_FACE ( 'NONE', ( #49 ), #235, .F. ) ;
#37 = EDGE_CURVE ( 'NONE', #339, #90, #401, .T. ) ;
#38 = CYLINDRICAL_SURFACE ( 'NONE', #258, 0.003999999999999997481 ) ;
#39 = CARTESIAN_POINT ( 'NONE',  ( -0.1332884755298195945, 0.2353387705477104908, 0.08969782184706628914 ) ) ;
#40 = EDGE_LOOP ( 'NONE', ( #279, #500, #444, #189 ) ) ;
#41 = DIRECTION ( 'NONE',  ( 0.3035047665628710645, 0.4923270772325211153, -0.8157811628723111719 ) ) ;
#42 = CARTESIAN_POINT ( 'NONE',  ( -0.1469377971342719913, 0.2210192378216805087, 0.07518978275135060341 ) ) ;
#43 = AXIS2_PLACEMENT_3D ( 'NONE', #306, #426, #483 ) ;
#44 = AXIS2_PLACEMENT_3D ( 'NONE', #222, #443, #80 ) ;
#45 = ORIENTED_EDGE ( 'NONE', *, *, #52, .T. ) ;
#46 = CARTESIAN_POINT ( 'NONE',  ( -0.1485797842780093025, 0.2183913580681637323, 0.07207359498087544114 ) ) ;
#47 = ORIENTED_EDGE ( 'NONE', *, *, #498, .T. ) ;
#48 = DIRECTION ( 'NONE',  ( -0.8493881131629326120, 0.5277628146696667910, 0.002498933665447418580 ) ) ;
#49 = FACE_OUTER_BOUND ( 'NONE', #9, .T. ) ;
#50 = DIRECTION ( 'NONE',  ( -0.3035047665628710645, -0.4923270772325211153, 0.8157811628723111719 ) ) ;
#51 = CIRCLE ( 'NONE', #105, 0.003999999999999991410 ) ;
#52 = EDGE_CURVE ( 'NONE', #70, #534, #543, .T. ) ;
#53 = EDGE_CURVE ( 'NONE', #592, #480, #593, .T. ) ;
#54 = CARTESIAN_POINT ( 'NONE',  ( -0.1488074128529314200, 0.2180221127602395004, 0.07268543085302971163 ) ) ;
#55 = ADVANCED_BREP_SHAPE_REPRESENTATION ( 'Claw Link', ( #380, #460 ), #33 ) ;
#56 = ORIENTED_EDGE ( 'NONE', *, *, #506, .F. ) ;
#57 = SHAPE_DEFINITION_REPRESENTATION ( #231, #55 ) ;
#58 = DIRECTION ( 'NONE',  ( 0.3035047665628684554, 0.4923270772325296640, -0.8157811628723070640 ) ) ;
#59 = CALENDAR_DATE ( 2026, 6, 9 ) ;
#60 = DIRECTION ( 'NONE',  ( 0.8493881131629326120, -0.5277628146696667910, -0.002498933665447418580 ) ) ;
#61 = ORIENTED_EDGE ( 'NONE', *, *, #260, .T. ) ;
#62 = VECTOR ( 'NONE', #538, 1.000000000000000000 ) ;
#63 = AXIS2_PLACEMENT_3D ( 'NONE', #99, #590, #594 ) ;
#64 = AXIS2_PLACEMENT_3D ( 'NONE', #381, #7, #565 ) ;
#65 = CARTESIAN_POINT ( 'NONE',  ( -0.1346638040197540021, 0.2407097783699435056, 0.08857499215459850583 ) ) ;
#66 = FACE_BOUND ( 'NONE', #275, .T. ) ;
#67 = ORIENTED_EDGE ( 'NONE', *, *, #6, .F. ) ;
#68 = CARTESIAN_POINT ( 'NONE',  ( -0.1479341712207735970, 0.2194182596742705049, 0.07464091982820239557 ) ) ;
#69 = DIRECTION ( 'NONE',  ( 0.4317692553796909083, 0.6921563844071858540, 0.5783552970564368456 ) ) ;
#70 = VERTEX_POINT ( 'NONE', #334 ) ;
#71 = EDGE_CURVE ( 'NONE', #319, #268, #465, .T. ) ;
#72 = AXIS2_PLACEMENT_3D ( 'NONE', #400, #32, #312 ) ;
#73 = CARTESIAN_POINT ( 'NONE',  ( -0.1341326706782688949, 0.2415713507551005834, 0.08714737511957194871 ) ) ;
#74 = DIRECTION ( 'NONE',  ( -0.8493881131629326120, 0.5277628146696667910, 0.002498933665447418580 ) ) ;
#75 = VERTEX_POINT ( 'NONE', #298 ) ;
#76 = CARTESIAN_POINT ( 'NONE',  ( -0.1480486509365243897, 0.2192529304533205048, 0.07064597794584889789 ) ) ;
#77 = CARTESIAN_POINT ( 'NONE',  ( -0.1348051435018574051, 0.2328938031250450125, 0.09054744091741349921 ) ) ;
#78 = ORIENTED_EDGE ( 'NONE', *, *, #102, .T. ) ;
#79 = CARTESIAN_POINT ( 'NONE',  ( -0.1451822318253576383, 0.2162803068094850956, 0.07206359924621365265 ) ) ;
#80 = DIRECTION ( 'NONE',  ( 0.3035047665628684554, 0.4923270772325296640, -0.8157811628723070640 ) ) ;
#81 = EDGE_CURVE ( 'NONE', #268, #17, #481, .T. ) ;
#82 = EDGE_LOOP ( 'NONE', ( #203, #581, #35, #117, #438, #526, #518, #575, #408, #47 ) ) ;
#83 = AXIS2_PLACEMENT_3D ( 'NONE', #167, #309, #583 ) ;
#84 = CARTESIAN_POINT ( 'NONE',  ( -0.1312662515671021990, 0.2385987271112650077, 0.08856499641993670346 ) ) ;
#85 = CIRCLE ( 'NONE', #199, 0.001749999999999998519 ) ;
#86 = ORIENTED_EDGE ( 'NONE', *, *, #190, .T. ) ;
#87 = PERSON_AND_ORGANIZATION ( #596, #554 ) ;
#88 = DIRECTION ( 'NONE',  ( 0.4317692553796909083, 0.6921563844071858540, 0.5783552970564368456 ) ) ;
#89 = LINE ( 'NONE', #181, #237 ) ;
#90 = VERTEX_POINT ( 'NONE', #517 ) ;
#91 = DIRECTION ( 'NONE',  ( 1.000000000000000000, 0.000000000000000000, 0.000000000000000000 ) ) ;
#92 = AXIS2_PLACEMENT_3D ( 'NONE', #133, #484, #173 ) ;
#93 = LOCAL_TIME ( 12, 31, 57.00000000000000000, #468 ) ;
#94 = VERTEX_POINT ( 'NONE', #425 ) ;
#95 = AXIS2_PLACEMENT_3D ( 'NONE', #373, #202, #245 ) ;
#96 = DATE_AND_TIME ( #192, #162 ) ;
#97 = ADVANCED_FACE ( 'NONE', ( #197 ), #107, .F. ) ;
#98 = CARTESIAN_POINT ( 'NONE',  ( -0.1346638040197540021, 0.2407097783699435056, 0.08857499215459850583 ) ) ;
#99 = CARTESIAN_POINT ( 'NONE',  ( -0.1312662515671021990, 0.2385987271112650077, 0.08856499641993670346 ) ) ;
#100 = VERTEX_POINT ( 'NONE', #328 ) ;
#101 = EDGE_CURVE ( 'NONE', #355, #584, #239, .T. ) ;
#102 = EDGE_CURVE ( 'NONE', #17, #70, #466, .T. ) ;
#103 = PERSON_AND_ORGANIZATION ( #596, #554 ) ;
#104 = FACE_OUTER_BOUND ( 'NONE', #160, .T. ) ;
#105 = AXIS2_PLACEMENT_3D ( 'NONE', #76, #20, #340 ) ;
#106 = ORIENTED_EDGE ( 'NONE', *, *, #102, .F. ) ;
#107 = CYLINDRICAL_SURFACE ( 'NONE', #240, 0.001749999999999998519 ) ;
#108 = ADVANCED_FACE ( 'NONE', ( #422 ), #566, .F. ) ;
#109 = PERSON_AND_ORGANIZATION ( #596, #554 ) ;
#110 = CARTESIAN_POINT ( 'NONE',  ( -0.1446510984838726144, 0.2171418791946420068, 0.07063598221118710940 ) ) ;
#111 = DIRECTION ( 'NONE',  ( -0.8493881131629326120, 0.5277628146696667910, 0.002498933665447418580 ) ) ;
#112 = CIRCLE ( 'NONE', #153, 0.003000000000000010037 ) ;
#113 = DIRECTION ( 'NONE',  ( 0.8493881131629326120, -0.5277628146696667910, -0.002498933665447418580 ) ) ;
#114 = ADVANCED_FACE ( 'NONE', ( #104 ), #246, .F. ) ;
#115 = CARTESIAN_POINT ( 'NONE',  ( -0.1295391745455834465, 0.2413673526488937515, 0.09087841760816245396 ) ) ;
#116 = DIRECTION ( 'NONE',  ( -0.8493881131629326120, 0.5277628146696667910, 0.002498933665447418580 ) ) ;
#117 = ORIENTED_EDGE ( 'NONE', *, *, #271, .T. ) ;
#118 = ADVANCED_FACE ( 'NONE', ( #159 ), #152, .F. ) ;
#119 = CARTESIAN_POINT ( 'NONE',  ( -0.1463781755053913669, 0.2143732536570132630, 0.06832256102296135891 ) ) ;
#120 = DIRECTION ( 'NONE',  ( -0.4317692553796884103, -0.6921563844071864091, -0.5783552970564379558 ) ) ;
#121 = ORIENTED_EDGE ( 'NONE', *, *, #413, .T. ) ;
#122 = CIRCLE ( 'NONE', #92, 0.003999999999999991410 ) ;
#123 = PRODUCT_DEFINITION_FORMATION_WITH_SPECIFIED_SOURCE ( 'ANY', '', #363, .NOT_KNOWN. ) ;
#124 = VECTOR ( 'NONE', #60, 1.000000000000000000 ) ;
#125 = FACE_OUTER_BOUND ( 'NONE', #450, .T. ) ;
#126 = DIRECTION ( 'NONE',  ( 0.3035047665628710645, 0.4923270772325211153, -0.8157811628723111719 ) ) ;
#127 = ORIENTED_EDGE ( 'NONE', *, *, #474, .F. ) ;
#128 = PRODUCT_DEFINITION ( 'UNKNOWN', '', #123, #553 ) ;
#129 = PLANE ( 'NONE',  #358 ) ;
#130 = CARTESIAN_POINT ( 'NONE',  ( -0.1441199651423875905, 0.2180034515797989181, 0.06920836517616056616 ) ) ;
#131 = ORIENTED_EDGE ( 'NONE', *, *, #243, .T. ) ;
#132 = LINE ( 'NONE', #31, #347 ) ;
#133 = CARTESIAN_POINT ( 'NONE',  ( -0.1480486509365243897, 0.2192529304533205048, 0.07064597794584889789 ) ) ;
#134 = VERTEX_POINT ( 'NONE', #515 ) ;
#135 = VECTOR ( 'NONE', #353, 1.000000000000000000 ) ;
#136 = APPLICATION_PROTOCOL_DEFINITION ( 'international standard', 'config_control_design', 1994, #157 ) ;
#137 = ORIENTED_EDGE ( 'NONE', *, *, #224, .F. ) ;
#138 = APPROVAL ( #273, 'UNSPECIFIED' ) ;
#139 = FACE_OUTER_BOUND ( 'NONE', #293, .T. ) ;
#140 = COORDINATED_UNIVERSAL_TIME_OFFSET ( 2, 0, .AHEAD. ) ;
#141 = VERTEX_POINT ( 'NONE', #8 ) ;
#142 = EDGE_CURVE ( 'NONE', #357, #342, #582, .T. ) ;
#143 = ORIENTED_EDGE ( 'NONE', *, *, #260, .F. ) ;
#144 = UNCERTAINTY_MEASURE_WITH_UNIT (LENGTH_MEASURE( 1.000000000000000082E-05 ), #507, 'distance_accuracy_value', 'NONE');
#145 = CARTESIAN_POINT ( 'NONE',  ( -0.1346638040197540021, 0.2407097783699435056, 0.08857499215459850583 ) ) ;
#146 = APPROVAL ( #372, 'UNSPECIFIED' ) ;
#147 = DATE_AND_TIME ( #318, #569 ) ;
#148 = ORIENTED_EDGE ( 'NONE', *, *, #23, .F. ) ;
#149 = DATE_AND_TIME ( #464, #238 ) ;
#150 = DIRECTION ( 'NONE',  ( 0.3035047665628710645, 0.4923270772325211153, -0.8157811628723111719 ) ) ;
#151 = PERSON_AND_ORGANIZATION_ROLE ( 'classification_officer' ) ;
#152 = CYLINDRICAL_SURFACE ( 'NONE', #64, 0.001749999999999998519 ) ;
#153 = AXIS2_PLACEMENT_3D ( 'NONE', #25, #531, #354 ) ;
#154 = DIRECTION ( 'NONE',  ( -0.8493881131629326120, 0.5277628146696667910, 0.002498933665447418580 ) ) ;
#155 = DATE_AND_TIME ( #59, #93 ) ;
#156 = CARTESIAN_POINT ( 'NONE',  ( -0.1446510984838726144, 0.2171418791946420068, 0.07063598221118710940 ) ) ;
#157 = APPLICATION_CONTEXT ( 'configuration controlled 3d designs of mechanical parts and assemblies' ) ;
#158 = COORDINATED_UNIVERSAL_TIME_OFFSET ( 2, 0, .AHEAD. ) ;
#159 = FACE_OUTER_BOUND ( 'NONE', #348, .T. ) ;
#160 = EDGE_LOOP ( 'NONE', ( #392, #327, #308, #567 ) ) ;
#161 = CIRCLE ( 'NONE', #193, 0.003999999999999991410 ) ;
#162 = LOCAL_TIME ( 12, 31, 57.00000000000000000, #140 ) ;
#163 = VECTOR ( 'NONE', #512, 1.000000000000000000 ) ;
#164 = EDGE_CURVE ( 'NONE', #467, #355, #278, .T. ) ;
#165 = FACE_OUTER_BOUND ( 'NONE', #174, .T. ) ;
#166 = ORIENTED_EDGE ( 'NONE', *, *, #329, .F. ) ;
#167 = CARTESIAN_POINT ( 'NONE',  ( -0.1312662515671021990, 0.2385987271112650077, 0.08856499641993670346 ) ) ;
#168 = CARTESIAN_POINT ( 'NONE',  ( -0.1329367269982351385, 0.2434784039075723883, 0.09088841334282424245 ) ) ;
#169 = EDGE_LOOP ( 'NONE', ( #265, #432, #61, #233 ) ) ;
#170 = DIRECTION ( 'NONE',  ( -0.8493881131629326120, 0.5277628146696667910, 0.002498933665447418580 ) ) ;
#171 = ORIENTED_EDGE ( 'NONE', *, *, #371, .F. ) ;
#172 = DIRECTION ( 'NONE',  ( 0.8493881131629326120, -0.5277628146696667910, -0.002498933665447418580 ) ) ;
#173 = DIRECTION ( 'NONE',  ( 0.3035047665628655134, 0.4923270772325277211, -0.8157811628723091735 ) ) ;
#174 = EDGE_LOOP ( 'NONE', ( #551, #106, #210, #595 ) ) ;
#175 = CARTESIAN_POINT ( 'NONE',  ( -0.1445097590017689893, 0.2249578544395405000, 0.06866353344837210215 ) ) ;
#176 = ORIENTED_EDGE ( 'NONE', *, *, #402, .T. ) ;
#177 = DIRECTION ( 'NONE',  ( 0.8493881131629326120, -0.5277628146696667910, -0.002498933665447418580 ) ) ;
#178 = PERSON_AND_ORGANIZATION ( #596, #554 ) ;
#179 = DIRECTION ( 'NONE',  ( 0.8493881131629326120, -0.5277628146696667910, -0.002498933665447418580 ) ) ;
#180 = CIRCLE ( 'NONE', #451, 0.003999999999999991410 ) ;
#181 = CARTESIAN_POINT ( 'NONE',  ( -0.1317973849085872229, 0.2377371547261080964, 0.08999261345496324671 ) ) ;
#182 = CARTESIAN_POINT ( 'NONE',  ( -0.1312662515671021990, 0.2385987271112650077, 0.08856499641993670346 ) ) ;
#183 = EDGE_CURVE ( 'NONE', #357, #362, #382, .T. ) ;
#184 = DIRECTION ( 'NONE',  ( 0.8493881131629326120, -0.5277628146696667910, -0.002498933665447418580 ) ) ;
#185 = DIRECTION ( 'NONE',  ( -0.8493881131629326120, 0.5277628146696667910, 0.002498933665447418580 ) ) ;
#186 = VERTEX_POINT ( 'NONE', #296 ) ;
#187 = CARTESIAN_POINT ( 'NONE',  ( -0.1312662515671021990, 0.2385987271112650077, 0.08856499641993670346 ) ) ;
#188 = PERSON_AND_ORGANIZATION_ROLE ( 'design_owner' ) ;
#189 = ORIENTED_EDGE ( 'NONE', *, *, #37, .T. ) ;
#190 = EDGE_CURVE ( 'NONE', #299, #100, #249, .T. ) ;
#191 = DIRECTION ( 'NONE',  ( -0.8493881131629326120, 0.5277628146696667910, 0.002498933665447418580 ) ) ;
#192 = CALENDAR_DATE ( 2026, 6, 9 ) ;
#193 = AXIS2_PLACEMENT_3D ( 'NONE', #27, #530, #214 ) ;
#194 = CARTESIAN_POINT ( 'NONE',  ( -0.1446510984838726144, 0.2171418791946420068, 0.07063598221118710940 ) ) ;
#195 = DIRECTION ( 'NONE',  ( 0.8493881131629326120, -0.5277628146696667910, -0.002498933665447418580 ) ) ;
#196 = CARTESIAN_POINT ( 'NONE',  ( -0.1451822318253576383, 0.2162803068094850956, 0.07206359924621365265 ) ) ;
#197 = FACE_OUTER_BOUND ( 'NONE', #399, .T. ) ;
#198 = CIRCLE ( 'NONE', #529, 0.003000000000000010037 ) ;
#199 = AXIS2_PLACEMENT_3D ( 'NONE', #98, #281, #456 ) ;
#200 = SECURITY_CLASSIFICATION_LEVEL ( 'unclassified' ) ;
#201 = DIRECTION ( 'NONE',  ( -0.3035047665628710645, -0.4923270772325211153, 0.8157811628723111719 ) ) ;
#202 = DIRECTION ( 'NONE',  ( -0.8493881131629326120, 0.5277628146696667910, 0.002498933665447418580 ) ) ;
#203 = ORIENTED_EDGE ( 'NONE', *, *, #313, .T. ) ;
#204 = EDGE_CURVE ( 'NONE', #134, #528, #416, .T. ) ;
#205 = EDGE_CURVE ( 'NONE', #26, #584, #479, .T. ) ;
#206 = CARTESIAN_POINT ( 'NONE',  ( -0.1312662515671021990, 0.2385987271112650077, 0.08856499641993670346 ) ) ;
#207 = AXIS2_PLACEMENT_3D ( 'NONE', #475, #579, #16 ) ;
#208 = CARTESIAN_POINT ( 'NONE',  ( -0.1445366187681220160, 0.2173072084155920070, 0.07463092409354060708 ) ) ;
#209 = CARTESIAN_POINT ( 'NONE',  ( -0.1446510984838726144, 0.2171418791946420068, 0.07063598221118710940 ) ) ;
#210 = ORIENTED_EDGE ( 'NONE', *, *, #81, .F. ) ;
#211 = DIRECTION ( 'NONE',  ( 0.8493881131629326120, -0.5277628146696667910, -0.002498933665447418580 ) ) ;
#212 = CARTESIAN_POINT ( 'NONE',  ( -0.1454202733014576254, 0.2234808732078429894, 0.07111087693698898982 ) ) ;
#213 = EDGE_LOOP ( 'NONE', ( #254, #121, #546, #305, #143, #447, #564, #360, #365, #67 ) ) ;
#214 = DIRECTION ( 'NONE',  ( 0.3035047665628655134, 0.4923270772325277211, -0.8157811628723091735 ) ) ;
#215 = LINE ( 'NONE', #487, #276 ) ;
#216 = ORIENTED_EDGE ( 'NONE', *, *, #302, .T. ) ;
#217 = AXIS2_PLACEMENT_3D ( 'NONE', #182, #48, #548 ) ;
#218 = APPROVAL_PERSON_ORGANIZATION ( #103, #146, #331 ) ;
#219 = DIRECTION ( 'NONE',  ( 0.8493881131629326120, -0.5277628146696667910, -0.002498933665447418580 ) ) ;
#220 = CYLINDRICAL_SURFACE ( 'NONE', #72, 0.003999999999999997481 ) ;
#221 = ORIENTED_EDGE ( 'NONE', *, *, #345, .F. ) ;
#222 = CARTESIAN_POINT ( 'NONE',  ( -0.1314665910696659890, 0.2383094009746025144, 0.08157384812581809641 ) ) ;
#223 = ORIENTED_EDGE ( 'NONE', *, *, #204, .F. ) ;
#224 = EDGE_CURVE ( 'NONE', #17, #592, #462, .T. ) ;
#225 = CARTESIAN_POINT ( 'NONE',  ( -0.1426288745211551912, 0.2204018357581964960, 0.06950315678405749598 ) ) ;
#226 = ORIENTED_EDGE ( 'NONE', *, *, #287, .F. ) ;
#227 = CYLINDRICAL_SURFACE ( 'NONE', #217, 0.001749999999999998519 ) ;
#228 = CC_DESIGN_APPROVAL ( #138, ( #128 ) ) ;
#229 = AXIS2_PLACEMENT_3D ( 'NONE', #289, #471, #58 ) ;
#230 = ORIENTED_EDGE ( 'NONE', *, *, #541, .F. ) ;
#231 = PRODUCT_DEFINITION_SHAPE ( 'NONE', 'NONE',  #128 ) ;
#232 = LINE ( 'NONE', #547, #62 ) ;
#233 = ORIENTED_EDGE ( 'NONE', *, *, #371, .T. ) ;
#234 = FACE_OUTER_BOUND ( 'NONE', #22, .T. ) ;
#235 = CYLINDRICAL_SURFACE ( 'NONE', #406, 0.001749999999999998519 ) ;
#236 = CARTESIAN_POINT ( 'NONE',  ( -0.1480486509365243897, 0.2192529304533205048, 0.07064597794584889789 ) ) ;
#237 = VECTOR ( 'NONE', #191, 1.000000000000000000 ) ;
#238 = LOCAL_TIME ( 12, 31, 57.00000000000000000, #461 ) ;
#239 = LINE ( 'NONE', #196, #494 ) ;
#240 = AXIS2_PLACEMENT_3D ( 'NONE', #110, #154, #201 ) ;
#241 = DIRECTION ( 'NONE',  ( 0.4317692553796909083, 0.6921563844071858540, 0.5783552970564368456 ) ) ;
#242 = ORIENTED_EDGE ( 'NONE', *, *, #205, .F. ) ;
#243 = EDGE_CURVE ( 'NONE', #502, #286, #332, .T. ) ;
#244 = APPROVAL_DATE_TIME ( #11, #146 ) ;
#245 = DIRECTION ( 'NONE',  ( -0.3035047665628684554, -0.4923270772325296640, 0.8157811628723070640 ) ) ;
#246 = CYLINDRICAL_SURFACE ( 'NONE', #95, 0.003000000000000010037 ) ;
#247 = CIRCLE ( 'NONE', #414, 0.001749999999999998519 ) ;
#248 = ORIENTED_EDGE ( 'NONE', *, *, #183, .F. ) ;
#249 = CIRCLE ( 'NONE', #423, 0.001749999999999998519 ) ;
#250 = DIRECTION ( 'NONE',  ( 0.3035047665628710645, 0.4923270772325211153, -0.8157811628723111719 ) ) ;
#251 = ADVANCED_FACE ( 'NONE', ( #165 ), #346, .F. ) ;
#252 = PERSON_AND_ORGANIZATION ( #596, #554 ) ;
#253 = CARTESIAN_POINT ( 'NONE',  ( -0.1480486509365243897, 0.2192529304533205048, 0.07064597794584889789 ) ) ;
#254 = ORIENTED_EDGE ( 'NONE', *, *, #272, .F. ) ;
#255 = APPLICATION_CONTEXT ( 'configuration controlled 3d designs of mechanical parts and assemblies' ) ;
#256 = CARTESIAN_POINT ( 'NONE',  ( -0.1426288745211551912, 0.2204018357581964960, 0.06950315678405749598 ) ) ;
#257 = ORIENTED_EDGE ( 'NONE', *, *, #386, .T. ) ;
#258 = AXIS2_PLACEMENT_3D ( 'NONE', #187, #454, #589 ) ;
#259 = VECTOR ( 'NONE', #179, 1.000000000000000000 ) ;
#260 = EDGE_CURVE ( 'NONE', #362, #141, #51, .T. ) ;
#261 = LINE ( 'NONE', #115, #135 ) ;
#262 = EDGE_LOOP ( 'NONE', ( #369, #477 ) ) ;
#263 = CARTESIAN_POINT ( 'NONE',  ( -0.1444507589813089909, 0.2174312053313040005, 0.07762713050530570258 ) ) ;
#264 = DIRECTION ( 'NONE',  ( -0.8493881131629326120, 0.5277628146696667910, 0.002498933665447418580 ) ) ;
#265 = ORIENTED_EDGE ( 'NONE', *, *, #142, .F. ) ;
#266 = DIRECTION ( 'NONE',  ( 0.4317692553796909083, 0.6921563844071858540, 0.5783552970564368456 ) ) ;
#267 = DIRECTION ( 'NONE',  ( -0.8493881131629326120, 0.5277628146696667910, 0.002498933665447418580 ) ) ;
#268 = VERTEX_POINT ( 'NONE', #68 ) ;
#269 = PLANE ( 'NONE',  #578 ) ;
#270 = ORIENTED_EDGE ( 'NONE', *, *, #302, .F. ) ;
#271 = EDGE_CURVE ( 'NONE', #186, #472, #385, .T. ) ;
#272 = EDGE_CURVE ( 'NONE', #75, #510, #161, .T. ) ;
#273 = APPROVAL_STATUS ( 'not_yet_approved' ) ;
#274 = ORIENTED_EDGE ( 'NONE', *, *, #330, .F. ) ;
#275 = EDGE_LOOP ( 'NONE', ( #523, #86 ) ) ;
#276 = VECTOR ( 'NONE', #69, 1.000000000000000000 ) ;
#277 = LINE ( 'NONE', #455, #503 ) ;
#278 = CIRCLE ( 'NONE', #12, 0.001749999999999998519 ) ;
#279 = ORIENTED_EDGE ( 'NONE', *, *, #313, .F. ) ;
#280 = CYLINDRICAL_SURFACE ( 'NONE', #323, 0.003000000000000010037 ) ;
#281 = DIRECTION ( 'NONE',  ( 0.8493881131629326120, -0.5277628146696667910, -0.002498933665447418580 ) ) ;
#282 = ORIENTED_EDGE ( 'NONE', *, *, #474, .T. ) ;
#283 = EDGE_CURVE ( 'NONE', #480, #472, #132, .T. ) ;
#284 = CIRCLE ( 'NONE', #30, 0.003999999999999991410 ) ;
#285 = CARTESIAN_POINT ( 'NONE',  ( -0.1445366187681220160, 0.2173072084155920070, 0.07463092409354060708 ) ) ;
#286 = VERTEX_POINT ( 'NONE', #524 ) ;
#287 = EDGE_CURVE ( 'NONE', #528, #141, #552, .T. ) ;
#288 = PERSON_AND_ORGANIZATION_ROLE ( 'creator' ) ;
#289 = CARTESIAN_POINT ( 'NONE',  ( -0.1478483114339605997, 0.2195422565899829981, 0.07763712623996750495 ) ) ;
#290 = ORIENTED_EDGE ( 'NONE', *, *, #243, .F. ) ;
#291 = APPROVAL_DATE_TIME ( #155, #367 ) ;
#292 = DIRECTION ( 'NONE',  ( -0.8493881131629326120, 0.5277628146696667910, 0.002498933665447418580 ) ) ;
#293 = EDGE_LOOP ( 'NONE', ( #248, #274, #322, #532 ) ) ;
#294 = CC_DESIGN_DATE_AND_TIME_ASSIGNMENT ( #149, #4, ( #395 ) ) ;
#295 = ADVANCED_FACE ( 'NONE', ( #125 ), #397, .F. ) ;
#296 = CARTESIAN_POINT ( 'NONE',  ( -0.1295391745455834465, 0.2413673526488937515, 0.09087841760816245396 ) ) ;
#297 = VECTOR ( 'NONE', #433, 1.000000000000000000 ) ;
#298 = CARTESIAN_POINT ( 'NONE',  ( -0.1347782837355046004, 0.2405444491489935055, 0.08458005027224500816 ) ) ;
#299 = VERTEX_POINT ( 'NONE', #73 ) ;
#300 = DIRECTION ( 'NONE',  ( 0.3035047665628655134, 0.4923270772325277211, -0.8157811628723091735 ) ) ;
#301 = ORIENTED_EDGE ( 'NONE', *, *, #37, .F. ) ;
#302 = EDGE_CURVE ( 'NONE', #186, #510, #261, .T. ) ;
#303 = CARTESIAN_POINT ( 'NONE',  ( -0.1497757279580430589, 0.2164843049156918997, 0.06833255675762314740 ) ) ;
#304 = FACE_OUTER_BOUND ( 'NONE', #169, .T. ) ;
#305 = ORIENTED_EDGE ( 'NONE', *, *, #287, .T. ) ;
#306 = CARTESIAN_POINT ( 'NONE',  ( -0.1411122065491174082, 0.2228468031808620020, 0.06865353771371029978 ) ) ;
#307 = LINE ( 'NONE', #536, #561 ) ;
#308 = ORIENTED_EDGE ( 'NONE', *, *, #53, .F. ) ;
#309 = DIRECTION ( 'NONE',  ( 0.8493881131629326120, -0.5277628146696667910, -0.002498933665447418580 ) ) ;
#310 = ORIENTED_EDGE ( 'NONE', *, *, #283, .T. ) ;
#311 = CARTESIAN_POINT ( 'NONE',  ( -0.1357746578220062061, 0.2389434710015835017, 0.08403118734909680032 ) ) ;
#312 = DIRECTION ( 'NONE',  ( -0.4317692553796884103, -0.6921563844071864091, -0.5783552970564379558 ) ) ;
#313 = EDGE_CURVE ( 'NONE', #134, #90, #478, .T. ) ;
#314 = EDGE_CURVE ( 'NONE', #70, #319, #459, .T. ) ;
#315 = ORIENTED_EDGE ( 'NONE', *, *, #271, .F. ) ;
#316 = CIRCLE ( 'NONE', #366, 0.003000000000000010037 ) ;
#317 = APPROVAL_PERSON_ORGANIZATION ( #87, #367, #376 ) ;
#318 = CALENDAR_DATE ( 2026, 6, 9 ) ;
#319 = VERTEX_POINT ( 'NONE', #208 ) ;
#320 = FACE_OUTER_BOUND ( 'NONE', #463, .T. ) ;
#321 = EDGE_LOOP ( 'NONE', ( #131, #599, #148, #411 ) ) ;
#322 = ORIENTED_EDGE ( 'NONE', *, *, #71, .T. ) ;
#323 = AXIS2_PLACEMENT_3D ( 'NONE', #539, #499, #509 ) ;
#324 = APPROVAL_ROLE ( '' ) ;
#325 = DIRECTION ( 'NONE',  ( 0.8493881131629326120, -0.5277628146696667910, -0.002498933665447418580 ) ) ;
#326 = DIRECTION ( 'NONE',  ( 0.8493881131629326120, -0.5277628146696667910, -0.002498933665447418580 ) ) ;
#327 = ORIENTED_EDGE ( 'NONE', *, *, #283, .F. ) ;
#328 = CARTESIAN_POINT ( 'NONE',  ( -0.1351949373612389149, 0.2398482059847867331, 0.09000260918962503520 ) ) ;
#329 = EDGE_CURVE ( 'NONE', #94, #186, #180, .T. ) ;
#330 = EDGE_CURVE ( 'NONE', #319, #357, #284, .T. ) ;
#331 = APPROVAL_ROLE ( '' ) ;
#332 = CIRCLE ( 'NONE', #337, 0.001749999999999998519 ) ;
#333 = DIRECTION ( 'NONE',  ( 0.3035047665628684554, 0.4923270772325296640, -0.8157811628723070640 ) ) ;
#334 = CARTESIAN_POINT ( 'NONE',  ( -0.1435402446816202160, 0.2189081865630015111, 0.07517978701668880104 ) ) ;
#335 = DIRECTION ( 'NONE',  ( 0.8493881131629326120, -0.5277628146696667910, -0.002498933665447418580 ) ) ;
#336 = DIRECTION ( 'NONE',  ( -0.8493881131629326120, 0.5277628146696667910, 0.002498933665447418580 ) ) ;
#337 = AXIS2_PLACEMENT_3D ( 'NONE', #417, #374, #390 ) ;
#338 = LOCAL_TIME ( 12, 31, 57.00000000000000000, #158 ) ;
#339 = VERTEX_POINT ( 'NONE', #311 ) ;
#340 = DIRECTION ( 'NONE',  ( 0.3035047665628655134, 0.4923270772325277211, -0.8157811628723091735 ) ) ;
#341 = CARTESIAN_POINT ( 'NONE',  ( -0.1454098604002798112, 0.2159110615015604751, 0.07267543511836790926 ) ) ;
#342 = VERTEX_POINT ( 'NONE', #256 ) ;
#343 = CARTESIAN_POINT ( 'NONE',  ( -0.1441199651423875905, 0.2180034515797989181, 0.06920836517616056616 ) ) ;
#344 = ORIENTED_EDGE ( 'NONE', *, *, #413, .F. ) ;
#345 = EDGE_CURVE ( 'NONE', #467, #26, #572, .T. ) ;
#346 = CYLINDRICAL_SURFACE ( 'NONE', #440, 0.003000000000000010037 ) ;
#347 = VECTOR ( 'NONE', #219, 1.000000000000000000 ) ;
#348 = EDGE_LOOP ( 'NONE', ( #571, #282, #176, #549 ) ) ;
#349 = VECTOR ( 'NONE', #111, 1.000000000000000000 ) ;
#350 = CARTESIAN_POINT ( 'NONE',  ( -0.1446510984838726144, 0.2171418791946420068, 0.07063598221118710940 ) ) ;
#351 = ORIENTED_EDGE ( 'NONE', *, *, #101, .F. ) ;
#352 = EDGE_CURVE ( 'NONE', #355, #467, #247, .T. ) ;
#353 = DIRECTION ( 'NONE',  ( -0.8493881131629326120, 0.5277628146696667910, 0.002498933665447418580 ) ) ;
#354 = DIRECTION ( 'NONE',  ( 0.3035047665628684554, 0.4923270772325296640, -0.8157811628723070640 ) ) ;
#355 = VERTEX_POINT ( 'NONE', #79 ) ;
#356 = PERSON_AND_ORGANIZATION_ROLE ( 'creator' ) ;
#357 = VERTEX_POINT ( 'NONE', #119 ) ;
#358 = AXIS2_PLACEMENT_3D ( 'NONE', #253, #439, #384 ) ;
#359 = CC_DESIGN_SECURITY_CLASSIFICATION ( #395, ( #123 ) ) ;
#360 = ORIENTED_EDGE ( 'NONE', *, *, #224, .T. ) ;
#361 = FACE_OUTER_BOUND ( 'NONE', #321, .T. ) ;
#362 = VERTEX_POINT ( 'NONE', #303 ) ;
#363 = PRODUCT ( 'Claw Link', 'Claw Link', '', ( #501 ) ) ;
#364 = PERSON_AND_ORGANIZATION ( #596, #554 ) ;
#365 = ORIENTED_EDGE ( 'NONE', *, *, #53, .T. ) ;
#366 = AXIS2_PLACEMENT_3D ( 'NONE', #489, #177, #495 ) ;
#367 = APPROVAL ( #511, 'UNSPECIFIED' ) ;
#368 = APPROVAL_DATE_TIME ( #96, #138 ) ;
#369 = ORIENTED_EDGE ( 'NONE', *, *, #541, .T. ) ;
#370 = ADVANCED_FACE ( 'NONE', ( #66, #576, #533 ), #129, .F. ) ;
#371 = EDGE_CURVE ( 'NONE', #141, #342, #570, .T. ) ;
#372 = APPROVAL_STATUS ( 'not_yet_approved' ) ;
#373 = CARTESIAN_POINT ( 'NONE',  ( -0.1348051435018574051, 0.2328938031250450125, 0.09054744091741349921 ) ) ;
#374 = DIRECTION ( 'NONE',  ( 0.8493881131629326120, -0.5277628146696667910, -0.002498933665447418580 ) ) ;
#375 = AXIS2_PLACEMENT_3D ( 'NONE', #84, #430, #126 ) ;
#376 = APPROVAL_ROLE ( '' ) ;
#377 = AXIS2_PLACEMENT_3D ( 'NONE', #522, #113, #150 ) ;
#378 = DIRECTION ( 'NONE',  ( 0.8493881131629326120, -0.5277628146696667910, -0.002498933665447418580 ) ) ;
#379 = CC_DESIGN_PERSON_AND_ORGANIZATION_ASSIGNMENT ( #109, #151, ( #395 ) ) ;
#380 = MANIFOLD_SOLID_BREP ( 'Imported1', #562 ) ;
#381 = CARTESIAN_POINT ( 'NONE',  ( -0.1312662515671021990, 0.2385987271112650077, 0.08856499641993670346 ) ) ;
#382 = LINE ( 'NONE', #519, #349 ) ;
#383 = PRODUCT_RELATED_PRODUCT_CATEGORY ( 'detail', '', ( #363 ) ) ;
#384 = DIRECTION ( 'NONE',  ( 0.4317692553796909083, 0.6921563844071858540, 0.5783552970564368456 ) ) ;
#385 = CIRCLE ( 'NONE', #83, 0.003999999999999991410 ) ;
#386 = EDGE_CURVE ( 'NONE', #534, #592, #232, .T. ) ;
#387 = DIRECTION ( 'NONE',  ( 0.8493881131629326120, -0.5277628146696667910, -0.002498933665447418580 ) ) ;
#388 = FACE_OUTER_BOUND ( 'NONE', #15, .T. ) ;
#389 = EDGE_LOOP ( 'NONE', ( #315, #216, #412, #310 ) ) ;
#390 = DIRECTION ( 'NONE',  ( 0.3035047665628710645, 0.4923270772325211153, -0.8157811628723111719 ) ) ;
#391 = FACE_BOUND ( 'NONE', #418, .T. ) ;
#392 = ORIENTED_EDGE ( 'NONE', *, *, #540, .F. ) ;
#393 = CARTESIAN_POINT ( 'NONE',  ( -0.1438923365674653898, 0.2183726968877235108, 0.06859652930400640669 ) ) ;
#394 = ORIENTED_EDGE ( 'NONE', *, *, #473, .F. ) ;
#395 = SECURITY_CLASSIFICATION ( '', '', #200 ) ;
#396 = ADVANCED_FACE ( 'NONE', ( #409 ), #38, .T. ) ;
#397 = CYLINDRICAL_SURFACE ( 'NONE', #43, 0.003000000000000010037 ) ;
#398 = CARTESIAN_POINT ( 'NONE',  ( -0.1366860279824712032, 0.2374498218063890165, 0.08970781758172809150 ) ) ;
#399 = EDGE_LOOP ( 'NONE', ( #441, #485, #230, #351 ) ) ;
#400 = CARTESIAN_POINT ( 'NONE',  ( -0.1446510984838726144, 0.2171418791946420068, 0.07063598221118710940 ) ) ;
#401 = LINE ( 'NONE', #588, #259 ) ;
#402 = EDGE_CURVE ( 'NONE', #502, #100, #89, .T. ) ;
#403 = APPLICATION_PROTOCOL_DEFINITION ( 'international standard', 'config_control_design', 1994, #255 ) ;
#404 = CARTESIAN_POINT ( 'NONE',  ( -0.1382026959545092082, 0.2350048543837235104, 0.09055743665207530158 ) ) ;
#405 = CIRCLE ( 'NONE', #375, 0.001749999999999998519 ) ;
#406 = AXIS2_PLACEMENT_3D ( 'NONE', #194, #556, #50 ) ;
#407 = CYLINDRICAL_SURFACE ( 'NONE', #63, 0.003999999999999997481 ) ;
#408 = ORIENTED_EDGE ( 'NONE', *, *, #142, .T. ) ;
#409 = FACE_OUTER_BOUND ( 'NONE', #389, .T. ) ;
#410 = DIRECTION ( 'NONE',  ( 0.000000000000000000, 0.000000000000000000, 1.000000000000000000 ) ) ;
#411 = ORIENTED_EDGE ( 'NONE', *, *, #402, .F. ) ;
#412 = ORIENTED_EDGE ( 'NONE', *, *, #6, .T. ) ;
#413 = EDGE_CURVE ( 'NONE', #75, #339, #316, .T. ) ;
#414 = AXIS2_PLACEMENT_3D ( 'NONE', #350, #211, #527 ) ;
#415 = VECTOR ( 'NONE', #88, 1.000000000000000000 ) ;
#416 = LINE ( 'NONE', #557, #491 ) ;
#417 = CARTESIAN_POINT ( 'NONE',  ( -0.1312662515671021990, 0.2385987271112650077, 0.08856499641993670346 ) ) ;
#418 = EDGE_LOOP ( 'NONE', ( #290, #127 ) ) ;
#419 = CC_DESIGN_PERSON_AND_ORGANIZATION_ASSIGNMENT ( #252, #558, ( #123 ) ) ;
#420 = DIRECTION ( 'NONE',  ( -0.8493881131629326120, 0.5277628146696667910, 0.002498933665447418580 ) ) ;
#421 = CIRCLE ( 'NONE', #3, 0.001749999999999998519 ) ;
#422 = FACE_OUTER_BOUND ( 'NONE', #40, .T. ) ;
#423 = AXIS2_PLACEMENT_3D ( 'NONE', #65, #195, #250 ) ;
#424 = PERSON_AND_ORGANIZATION ( #596, #554 ) ;
#425 = CARTESIAN_POINT ( 'NONE',  ( -0.1313807312828529916, 0.2384333978903149798, 0.08457005453758320579 ) ) ;
#426 = DIRECTION ( 'NONE',  ( -0.8493881131629326120, 0.5277628146696667910, 0.002498933665447418580 ) ) ;
#427 = ADVANCED_FACE ( 'NONE', ( #139 ), #490, .T. ) ;
#428 = ADVANCED_FACE ( 'NONE', ( #391, #573, #437 ), #434, .T. ) ;
#429 = DIRECTION ( 'NONE',  ( 0.8493881131629326120, -0.5277628146696667910, -0.002498933665447418580 ) ) ;
#430 = DIRECTION ( 'NONE',  ( 0.8493881131629326120, -0.5277628146696667910, -0.002498933665447418580 ) ) ;
#431 = AXIS2_PLACEMENT_3D ( 'NONE', #587, #580, #28 ) ;
#432 = ORIENTED_EDGE ( 'NONE', *, *, #183, .T. ) ;
#433 = DIRECTION ( 'NONE',  ( -0.8493881131629326120, 0.5277628146696667910, 0.002498933665447418580 ) ) ;
#434 = PLANE ( 'NONE',  #431 ) ;
#435 = EDGE_LOOP ( 'NONE', ( #577, #537 ) ) ;
#436 = DIRECTION ( 'NONE',  ( -0.3035047665628684554, -0.4923270772325296640, 0.8157811628723070640 ) ) ;
#437 = FACE_OUTER_BOUND ( 'NONE', #82, .T. ) ;
#438 = ORIENTED_EDGE ( 'NONE', *, *, #540, .T. ) ;
#439 = DIRECTION ( 'NONE',  ( 0.8493881131629327230, -0.5277628146696664579, -0.002498933665447178321 ) ) ;
#440 = AXIS2_PLACEMENT_3D ( 'NONE', #263, #170, #436 ) ;
#441 = ORIENTED_EDGE ( 'NONE', *, *, #352, .T. ) ;
#442 = AXIS2_PLACEMENT_3D ( 'NONE', #404, #184, #333 ) ;
#443 = DIRECTION ( 'NONE',  ( -0.8493881131629326120, 0.5277628146696667910, 0.002498933665447418580 ) ) ;
#444 = ORIENTED_EDGE ( 'NONE', *, *, #445, .T. ) ;
#445 = EDGE_CURVE ( 'NONE', #528, #339, #215, .T. ) ;
#446 = CARTESIAN_POINT ( 'NONE',  ( -0.1372921816548205998, 0.2364818356154209933, 0.08811009316345840003 ) ) ;
#447 = ORIENTED_EDGE ( 'NONE', *, *, #516, .F. ) ;
#448 = ADVANCED_FACE ( 'NONE', ( #304 ), #220, .T. ) ;
#449 = CARTESIAN_POINT ( 'NONE',  ( 0.000000000000000000, 0.000000000000000000, 0.000000000000000000 ) ) ;
#450 = EDGE_LOOP ( 'NONE', ( #492, #171, #226, #223 ) ) ;
#451 = AXIS2_PLACEMENT_3D ( 'NONE', #206, #172, #486 ) ;
#452 = AXIS2_PLACEMENT_3D ( 'NONE', #14, #13, #420 ) ;
#453 = ORIENTED_EDGE ( 'NONE', *, *, #272, .T. ) ;
#454 = DIRECTION ( 'NONE',  ( -0.8493881131629326120, 0.5277628146696667910, 0.002498933665447418580 ) ) ;
#455 = CARTESIAN_POINT ( 'NONE',  ( -0.1307351182256171751, 0.2394602994964219189, 0.08713737938491016022 ) ) ;
#456 = DIRECTION ( 'NONE',  ( 0.3035047665628710645, 0.4923270772325211153, -0.8157811628723111719 ) ) ;
#457 =( NAMED_UNIT ( * ) SI_UNIT ( $, .STERADIAN. ) SOLID_ANGLE_UNIT ( ) );
#458 = CARTESIAN_POINT ( 'NONE',  ( -0.1475175175950392825, 0.2201145028384775548, 0.06921836091082235465 ) ) ;
#459 = CIRCLE ( 'NONE', #207, 0.003000000000000010037 ) ;
#460 = AXIS2_PLACEMENT_3D ( 'NONE', #449, #410, #91 ) ;
#461 = COORDINATED_UNIVERSAL_TIME_OFFSET ( 2, 0, .AHEAD. ) ;
#462 = LINE ( 'NONE', #54, #10 ) ;
#463 = EDGE_LOOP ( 'NONE', ( #394, #301, #344, #56 ) ) ;
#464 = CALENDAR_DATE ( 2026, 6, 9 ) ;
#465 = LINE ( 'NONE', #285, #163 ) ;
#466 = LINE ( 'NONE', #559, #124 ) ;
#467 = VERTEX_POINT ( 'NONE', #130 ) ;
#468 = COORDINATED_UNIVERSAL_TIME_OFFSET ( 2, 0, .AHEAD. ) ;
#469 = DIRECTION ( 'NONE',  ( 0.3035047665628655134, 0.4923270772325277211, -0.8157811628723091735 ) ) ;
#470 = CC_DESIGN_DATE_AND_TIME_ASSIGNMENT ( #147, #496, ( #128 ) ) ;
#471 = DIRECTION ( 'NONE',  ( 0.8493881131629326120, -0.5277628146696667910, -0.002498933665447418580 ) ) ;
#472 = VERTEX_POINT ( 'NONE', #39 ) ;
#473 = EDGE_CURVE ( 'NONE', #90, #94, #591, .T. ) ;
#474 = EDGE_CURVE ( 'NONE', #286, #502, #405, .T. ) ;
#475 = CARTESIAN_POINT ( 'NONE',  ( -0.1444507589813089909, 0.2174312053313040005, 0.07762713050530570258 ) ) ;
#476 = CARTESIAN_POINT ( 'NONE',  ( -0.1338946292021689910, 0.2343707843567424953, 0.08810009742879659767 ) ) ;
#477 = ORIENTED_EDGE ( 'NONE', *, *, #205, .T. ) ;
#478 = LINE ( 'NONE', #393, #542 ) ;
#479 = CIRCLE ( 'NONE', #377, 0.001749999999999998519 ) ;
#480 = VERTEX_POINT ( 'NONE', #398 ) ;
#481 = CIRCLE ( 'NONE', #229, 0.003000000000000010037 ) ;
#482 = CC_DESIGN_PERSON_AND_ORGANIZATION_ASSIGNMENT ( #178, #356, ( #128 ) ) ;
#483 = DIRECTION ( 'NONE',  ( -0.3035047665628684554, -0.4923270772325296640, 0.8157811628723070640 ) ) ;
#484 = DIRECTION ( 'NONE',  ( 0.8493881131629326120, -0.5277628146696667910, -0.002498933665447418580 ) ) ;
#485 = ORIENTED_EDGE ( 'NONE', *, *, #345, .T. ) ;
#486 = DIRECTION ( 'NONE',  ( 0.3035047665628655134, 0.4923270772325277211, -0.8157811628723091735 ) ) ;
#487 = CARTESIAN_POINT ( 'NONE',  ( -0.1472898890201172206, 0.2204837481464020088, 0.06860652503866819518 ) ) ;
#488 = ORIENTED_EDGE ( 'NONE', *, *, #164, .T. ) ;
#489 = CARTESIAN_POINT ( 'NONE',  ( -0.1348641435223175977, 0.2404204522332815119, 0.08158384386047989878 ) ) ;
#490 = CYLINDRICAL_SURFACE ( 'NONE', #568, 0.003999999999999997481 ) ;
#491 = VECTOR ( 'NONE', #336, 1.000000000000000000 ) ;
#492 = ORIENTED_EDGE ( 'NONE', *, *, #498, .F. ) ;
#493 = APPROVAL_PERSON_ORGANIZATION ( #364, #138, #324 ) ;
#494 = VECTOR ( 'NONE', #292, 1.000000000000000000 ) ;
#495 = DIRECTION ( 'NONE',  ( 0.3035047665628684554, 0.4923270772325296640, -0.8157811628723070640 ) ) ;
#496 = DATE_TIME_ROLE ( 'creation_date' ) ;
#497 = CARTESIAN_POINT ( 'NONE',  ( -0.1454098604002798112, 0.2159110615015604751, 0.07267543511836790926 ) ) ;
#498 = EDGE_CURVE ( 'NONE', #342, #134, #112, .T. ) ;
#499 = DIRECTION ( 'NONE',  ( -0.8493881131629326120, 0.5277628146696667910, 0.002498933665447418580 ) ) ;
#500 = ORIENTED_EDGE ( 'NONE', *, *, #204, .T. ) ;
#501 = MECHANICAL_CONTEXT ( 'NONE', #157, 'mechanical' ) ;
#502 = VERTEX_POINT ( 'NONE', #21 ) ;
#503 = VECTOR ( 'NONE', #185, 1.000000000000000000 ) ;
#504 = CC_DESIGN_APPROVAL ( #146, ( #395 ) ) ;
#505 = AXIS2_PLACEMENT_3D ( 'NONE', #156, #378, #469 ) ;
#506 = EDGE_CURVE ( 'NONE', #94, #75, #307, .T. ) ;
#507 =( LENGTH_UNIT ( ) NAMED_UNIT ( * ) SI_UNIT ( $, .METRE. ) );
#508 = DIRECTION ( 'NONE',  ( 0.3035047665628655134, 0.4923270772325277211, -0.8157811628723091735 ) ) ;
#509 = DIRECTION ( 'NONE',  ( -0.3035047665628684554, -0.4923270772325296640, 0.8157811628723070640 ) ) ;
#510 = VERTEX_POINT ( 'NONE', #168 ) ;
#511 = APPROVAL_STATUS ( 'not_yet_approved' ) ;
#512 = DIRECTION ( 'NONE',  ( -0.8493881131629326120, 0.5277628146696667910, 0.002498933665447418580 ) ) ;
#513 = CALENDAR_DATE ( 2026, 6, 9 ) ;
#514 = CIRCLE ( 'NONE', #34, 0.003999999999999991410 ) ;
#515 = CARTESIAN_POINT ( 'NONE',  ( -0.1420227208488059889, 0.2213698219491644914, 0.07110088120232718745 ) ) ;
#516 = EDGE_CURVE ( 'NONE', #268, #362, #122, .T. ) ;
#517 = CARTESIAN_POINT ( 'NONE',  ( -0.1323771053693545974, 0.2368324197429049760, 0.08402119161443510897 ) ) ;
#518 = ORIENTED_EDGE ( 'NONE', *, *, #314, .T. ) ;
#519 = CARTESIAN_POINT ( 'NONE',  ( -0.1463781755053913669, 0.2143732536570132630, 0.06832256102296135891 ) ) ;
#520 = AXIS2_PLACEMENT_3D ( 'NONE', #175, #429, #24 ) ;
#521 = ADVANCED_FACE ( 'NONE', ( #388 ), #269, .T. ) ;
#522 = CARTESIAN_POINT ( 'NONE',  ( -0.1480486509365243897, 0.2192529304533205048, 0.07064597794584889789 ) ) ;
#523 = ORIENTED_EDGE ( 'NONE', *, *, #23, .T. ) ;
#524 = CARTESIAN_POINT ( 'NONE',  ( -0.1307351182256171751, 0.2394602994964219189, 0.08713737938491016022 ) ) ;
#525 = DIRECTION ( 'NONE',  ( -0.3035047665628669011, -0.4923270772325278322, 0.8157811628723087294 ) ) ;
#526 = ORIENTED_EDGE ( 'NONE', *, *, #52, .F. ) ;
#527 = DIRECTION ( 'NONE',  ( 0.3035047665628710645, 0.4923270772325211153, -0.8157811628723111719 ) ) ;
#528 = VERTEX_POINT ( 'NONE', #212 ) ;
#529 = AXIS2_PLACEMENT_3D ( 'NONE', #77, #264, #545 ) ;
#530 = DIRECTION ( 'NONE',  ( 0.8493881131629326120, -0.5277628146696667910, -0.002498933665447418580 ) ) ;
#531 = DIRECTION ( 'NONE',  ( -0.8493881131629326120, 0.5277628146696667910, 0.002498933665447418580 ) ) ;
#532 = ORIENTED_EDGE ( 'NONE', *, *, #516, .T. ) ;
#533 = FACE_OUTER_BOUND ( 'NONE', #213, .T. ) ;
#534 = VERTEX_POINT ( 'NONE', #476 ) ;
#535 = CARTESIAN_POINT ( 'NONE',  ( -0.1446510984838726144, 0.2171418791946420068, 0.07063598221118710940 ) ) ;
#536 = CARTESIAN_POINT ( 'NONE',  ( -0.1313807312828529916, 0.2384333978903149798, 0.08457005453758320579 ) ) ;
#537 = ORIENTED_EDGE ( 'NONE', *, *, #164, .F. ) ;
#538 = DIRECTION ( 'NONE',  ( -0.8493881131629326120, 0.5277628146696667910, 0.002498933665447418580 ) ) ;
#539 = CARTESIAN_POINT ( 'NONE',  ( -0.1314665910696659890, 0.2383094009746025144, 0.08157384812581809641 ) ) ;
#540 = EDGE_CURVE ( 'NONE', #472, #534, #198, .T. ) ;
#541 = EDGE_CURVE ( 'NONE', #584, #26, #421, .T. ) ;
#542 = VECTOR ( 'NONE', #266, 1.000000000000000000 ) ;
#543 = LINE ( 'NONE', #497, #415 ) ;
#544 = CC_DESIGN_APPROVAL ( #367, ( #123 ) ) ;
#545 = DIRECTION ( 'NONE',  ( 0.3035047665628684554, 0.4923270772325296640, -0.8157811628723070640 ) ) ;
#546 = ORIENTED_EDGE ( 'NONE', *, *, #445, .F. ) ;
#547 = CARTESIAN_POINT ( 'NONE',  ( -0.1338946292021689910, 0.2343707843567424953, 0.08810009742879659767 ) ) ;
#548 = DIRECTION ( 'NONE',  ( -0.3035047665628710645, -0.4923270772325211153, 0.8157811628723111719 ) ) ;
#549 = ORIENTED_EDGE ( 'NONE', *, *, #190, .F. ) ;
#550 =( NAMED_UNIT ( * ) PLANE_ANGLE_UNIT ( ) SI_UNIT ( $, .RADIAN. ) );
#551 = ORIENTED_EDGE ( 'NONE', *, *, #314, .F. ) ;
#552 = CIRCLE ( 'NONE', #520, 0.003000000000000010037 ) ;
#553 = DESIGN_CONTEXT ( 'detailed design', #255, 'design' ) ;
#554 = ORGANIZATION ( 'UNSPECIFIED', 'UNSPECIFIED', '' ) ;
#555 = COORDINATED_UNIVERSAL_TIME_OFFSET ( 2, 0, .AHEAD. ) ;
#556 = DIRECTION ( 'NONE',  ( -0.8493881131629326120, 0.5277628146696667910, 0.002498933665447418580 ) ) ;
#557 = CARTESIAN_POINT ( 'NONE',  ( -0.1454202733014576254, 0.2234808732078429894, 0.07111087693698898982 ) ) ;
#558 = PERSON_AND_ORGANIZATION_ROLE ( 'design_supplier' ) ;
#559 = CARTESIAN_POINT ( 'NONE',  ( -0.1435402446816202160, 0.2189081865630015111, 0.07517978701668880104 ) ) ;
#560 = ADVANCED_FACE ( 'NONE', ( #320 ), #280, .F. ) ;
#561 = VECTOR ( 'NONE', #74, 1.000000000000000000 ) ;
#562 = CLOSED_SHELL ( 'NONE', ( #586, #97, #448, #396, #251, #114, #560, #295, #370, #428, #108, #521, #597, #427, #36, #118 ) ) ;
#563 = CARTESIAN_POINT ( 'NONE',  ( -0.1446510984838726144, 0.2171418791946420068, 0.07063598221118710940 ) ) ;
#564 = ORIENTED_EDGE ( 'NONE', *, *, #81, .T. ) ;
#565 = DIRECTION ( 'NONE',  ( -0.3035047665628710645, -0.4923270772325211153, 0.8157811628723111719 ) ) ;
#566 = PLANE ( 'NONE',  #452 ) ;
#567 = ORIENTED_EDGE ( 'NONE', *, *, #386, .F. ) ;
#568 = AXIS2_PLACEMENT_3D ( 'NONE', #209, #267, #120 ) ;
#569 = LOCAL_TIME ( 12, 31, 57.00000000000000000, #555 ) ;
#570 = LINE ( 'NONE', #225, #18 ) ;
#571 = ORIENTED_EDGE ( 'NONE', *, *, #585, .F. ) ;
#572 = LINE ( 'NONE', #343, #297 ) ;
#573 = FACE_BOUND ( 'NONE', #435, .T. ) ;
#574 = CC_DESIGN_PERSON_AND_ORGANIZATION_ASSIGNMENT ( #424, #288, ( #123 ) ) ;
#575 = ORIENTED_EDGE ( 'NONE', *, *, #330, .T. ) ;
#576 = FACE_BOUND ( 'NONE', #262, .T. ) ;
#577 = ORIENTED_EDGE ( 'NONE', *, *, #352, .F. ) ;
#578 = AXIS2_PLACEMENT_3D ( 'NONE', #341, #525, #116 ) ;
#579 = DIRECTION ( 'NONE',  ( -0.8493881131629326120, 0.5277628146696667910, 0.002498933665447418580 ) ) ;
#580 = DIRECTION ( 'NONE',  ( 0.8493881131629327230, -0.5277628146696664579, -0.002498933665447178321 ) ) ;
#581 = ORIENTED_EDGE ( 'NONE', *, *, #473, .T. ) ;
#582 = CIRCLE ( 'NONE', #505, 0.003999999999999991410 ) ;
#583 = DIRECTION ( 'NONE',  ( 0.3035047665628655134, 0.4923270772325277211, -0.8157811628723091735 ) ) ;
#584 = VERTEX_POINT ( 'NONE', #46 ) ;
#585 = EDGE_CURVE ( 'NONE', #286, #299, #277, .T. ) ;
#586 = ADVANCED_FACE ( 'NONE', ( #361 ), #227, .F. ) ;
#587 = CARTESIAN_POINT ( 'NONE',  ( -0.1446510984838726144, 0.2171418791946420068, 0.07063598221118710940 ) ) ;
#588 = CARTESIAN_POINT ( 'NONE',  ( -0.1323771053693545974, 0.2368324197429049760, 0.08402119161443510897 ) ) ;
#589 = DIRECTION ( 'NONE',  ( 0.4317692553796884103, 0.6921563844071864091, 0.5783552970564379558 ) ) ;
#590 = DIRECTION ( 'NONE',  ( -0.8493881131629326120, 0.5277628146696667910, 0.002498933665447418580 ) ) ;
#591 = CIRCLE ( 'NONE', #44, 0.003000000000000010037 ) ;
#592 = VERTEX_POINT ( 'NONE', #446 ) ;
#593 = CIRCLE ( 'NONE', #442, 0.003000000000000010037 ) ;
#594 = DIRECTION ( 'NONE',  ( 0.4317692553796884103, 0.6921563844071864091, 0.5783552970564379558 ) ) ;
#595 = ORIENTED_EDGE ( 'NONE', *, *, #71, .F. ) ;
#596 = PERSON ( 'UNSPECIFIED', 'UNSPECIFIED', 'UNSPECIFIED', ('UNSPECIFIED'), ('UNSPECIFIED'), ('UNSPECIFIED') ) ;
#597 = ADVANCED_FACE ( 'NONE', ( #234 ), #407, .T. ) ;
#598 = PERSON_AND_ORGANIZATION ( #596, #554 ) ;
#599 = ORIENTED_EDGE ( 'NONE', *, *, #585, .T. ) ;
ENDSEC;
END-ISO-10303-21;
