ISO-10303-21;
HEADER;
FILE_DESCRIPTION (( 'STEP AP203' ),
    '1' );
FILE_NAME ('Claw 1.STEP',
    '2026-09-06T09:33:59',
    ( '' ),
    ( '' ),
    'SwSTEP 2.0',
    'SolidWorks 2025',
    '' );
FILE_SCHEMA (( 'CONFIG_CONTROL_DESIGN' ));
ENDSEC;

DATA;
#1 = EDGE_CURVE ( 'NONE', #401, #340, #767, .T. ) ;
#2 = CARTESIAN_POINT ( 'NONE',  ( -0.1675725745656129750, 0.1932762393337695006, 0.1211246961100515968 ) ) ;
#3 = CARTESIAN_POINT ( 'NONE',  ( -0.1440679068427598020, 0.2005918766445380086, 0.1125839290121592035 ) ) ;
#4 = AXIS2_PLACEMENT_3D ( 'NONE', #541, #159, #610 ) ;
#5 = CARTESIAN_POINT ( 'NONE',  ( -0.1472138575055373932, 0.2127683419348994909, 0.1232237264070139976 ) ) ;
#6 = VECTOR ( 'NONE', #118, 1.000000000000000000 ) ;
#7 = LINE ( 'NONE', #534, #801 ) ;
#8 = CARTESIAN_POINT ( 'NONE',  ( -0.1459341563877948056, 0.1975866684668559914, 0.1129308556974536054 ) ) ;
#9 = CARTESIAN_POINT ( 'NONE',  ( -0.1528033302302655161, 0.2105892453553895038, 0.1230309743267211930 ) ) ;
#10 = ORIENTED_EDGE ( 'NONE', *, *, #614, .T. ) ;
#11 = DIRECTION ( 'NONE',  ( -0.5273628835713145557, -0.8489110837865512238, 0.03519035174150667022 ) ) ;
#12 = CARTESIAN_POINT ( 'NONE',  ( -0.1243929992255332073, 0.2333718655863674385, 0.1272222802453686907 ) ) ;
#13 = DIRECTION ( 'NONE',  ( -0.4834404462051261064, -0.7761382400765024503, -0.4048391869173957325 ) ) ;
#14 = EDGE_CURVE ( 'NONE', #340, #834, #558, .T. ) ;
#15 = CARTESIAN_POINT ( 'NONE',  ( -0.1374458912730714133, 0.2124161331043019907, 0.1162916221985990095 ) ) ;
#16 = ORIENTED_EDGE ( 'NONE', *, *, #65, .T. ) ;
#17 = CARTESIAN_POINT ( 'NONE',  ( -0.1537602345787130176, 0.2107031172911190131, 0.1116752949392510047 ) ) ;
#18 = DIRECTION ( 'NONE',  ( -0.4834404462051249962, -0.7761382400765023393, -0.4048391869173971203 ) ) ;
#19 = CARTESIAN_POINT ( 'NONE',  ( -0.1778549410172389766, 0.1918234089115679886, 0.1132415159493980056 ) ) ;
#20 = ORIENTED_EDGE ( 'NONE', *, *, #98, .T. ) ;
#21 = ADVANCED_FACE ( 'NONE', ( #640, #345, #469 ), #607, .F. ) ;
#22 =( BOUNDED_CURVE ( )  B_SPLINE_CURVE ( 3, ( #144, #69, #800, #17 ),
 .UNSPECIFIED., .F., .T. ) 
 B_SPLINE_CURVE_WITH_KNOTS ( ( 4, 4 ),
 ( 0.3046926540153916951, 0.5101652566233620956 ),
 .UNSPECIFIED. ) 
 CURVE ( )  GEOMETRIC_REPRESENTATION_ITEM ( )  RATIONAL_B_SPLINE_CURVE ( ( 1.000000000000000000, 0.9964848442289633290, 0.9964848442289633290, 1.000000000000000000 ) ) 
 REPRESENTATION_ITEM ( '' )  );
#23 = DIRECTION ( 'NONE',  ( 0.006292746216696618218, 0.01486196413413441719, -0.9998697532014497735 ) ) ;
#24 = VECTOR ( 'NONE', #11, 1.000000000000000222 ) ;
#25 = CARTESIAN_POINT ( 'NONE',  ( -0.1581955210714505178, 0.2083595575554884893, 0.1228627555240732055 ) ) ;
#26 = APPROVAL_PERSON_ORGANIZATION ( #372, #113, #576 ) ;
#27 = CARTESIAN_POINT ( 'NONE',  ( -0.1537602345787130176, 0.2107031172911190131, 0.1116752949392510047 ) ) ;
#28 = CLOSED_SHELL ( 'NONE', ( #441, #207, #763, #756, #158, #693, #468, #84, #838, #575, #503, #554, #21, #224, #631, #449, #500, #151, #117, #177 ) ) ;
#29 = LINE ( 'NONE', #406, #24 ) ;
#30 = ORIENTED_EDGE ( 'NONE', *, *, #195, .T. ) ;
#31 = CARTESIAN_POINT ( 'NONE',  ( -0.1305542004334233896, 0.2395832179046419874, 0.1226715987519921974 ) ) ;
#32 = CARTESIAN_POINT ( 'NONE',  ( -0.1551255075287024110, 0.2105775715943839499, 0.1118908770503643929 ) ) ;
#33 = DIRECTION ( 'NONE',  ( 1.000000000000000000, 0.000000000000000000, 0.000000000000000000 ) ) ;
#34 = ORIENTED_EDGE ( 'NONE', *, *, #579, .F. ) ;
#35 = EDGE_CURVE ( 'NONE', #154, #122, #247, .T. ) ;
#36 = CARTESIAN_POINT ( 'NONE',  ( -0.1561378380383725006, 0.2102228757886024924, 0.1120837780466269890 ) ) ;
#37 = CARTESIAN_POINT ( 'NONE',  ( -0.1404669036603287957, 0.2075402111074440004, 0.1192201936202441914 ) ) ;
#38 = CALENDAR_DATE ( 2026, 6, 9 ) ;
#39 = LINE ( 'NONE', #299, #465 ) ;
#40 = DIRECTION ( 'NONE',  ( -0.003630753453943478311, -0.001108458478111473472, -0.9999927944486195486 ) ) ;
#41 = CARTESIAN_POINT ( 'NONE',  ( -0.1320723016876340083, 0.2210173035856884960, 0.1262499402287415862 ) ) ;
#42 = CARTESIAN_POINT ( 'NONE',  ( -0.1477941468469821940, 0.2120079565714515224, 0.1231732004450092066 ) ) ;
#43 = CYLINDRICAL_SURFACE ( 'NONE', #399, 0.004999999999999998369 ) ;
#44 = LINE ( 'NONE', #636, #839 ) ;
#45 = EDGE_CURVE ( 'NONE', #634, #516, #7, .T. ) ;
#46 = VERTEX_POINT ( 'NONE', #738 ) ;
#47 = ORIENTED_EDGE ( 'NONE', *, *, #392, .T. ) ;
#48 = FACE_OUTER_BOUND ( 'NONE', #771, .T. ) ;
#49 = VERTEX_POINT ( 'NONE', #220 ) ;
#50 = CIRCLE ( 'NONE', #112, 0.001749999999999985508 ) ;
#51 = CC_DESIGN_APPROVAL ( #113, ( #135 ) ) ;
#52 = CARTESIAN_POINT ( 'NONE',  ( -0.1472564892987562046, 0.2127553265723225173, 0.1114819525372005987 ) ) ;
#53 = EDGE_CURVE ( 'NONE', #837, #132, #349, .T. ) ;
#54 = ORIENTED_EDGE ( 'NONE', *, *, #98, .F. ) ;
#55 = ORIENTED_EDGE ( 'NONE', *, *, #705, .F. ) ;
#56 = B_SPLINE_SURFACE_WITH_KNOTS ( 'NONE', 3, 1, ( 
 ( #820, #681 ),
 ( #556, #89 ),
 ( #153, #489 ),
 ( #363, #19 ),
 ( #815, #294 ),
 ( #414, #226 ),
 ( #561, #618 ) ),
 .UNSPECIFIED., .F., .F., .F.,
 ( 4, 3, 4 ),
 ( 2, 2 ),
 ( -1.743478551065929860, 0.000000000000000000, 1.000000000000000000 ),
 ( -0.3647270411963349779, 2.344727042204259870 ),
 .UNSPECIFIED. ) ;
#57 = ORIENTED_EDGE ( 'NONE', *, *, #701, .T. ) ;
#58 = CARTESIAN_POINT ( 'NONE',  ( -0.1634039426384219784, 0.2000277086230654866, 0.1121656635127380036 ) ) ;
#59 = AXIS2_PLACEMENT_3D ( 'NONE', #83, #393, #390 ) ;
#60 = AXIS2_PLACEMENT_3D ( 'NONE', #725, #601, #348 ) ;
#61 = MANIFOLD_SOLID_BREP ( 'Imported1', #28 ) ;
#62 = ORIENTED_EDGE ( 'NONE', *, *, #822, .F. ) ;
#63 = CARTESIAN_POINT ( 'NONE',  ( -0.1544561257186559955, 0.1838946473954564953, 0.1080008043781589960 ) ) ;
#64 = EDGE_LOOP ( 'NONE', ( #508, #578, #128, #374 ) ) ;
#65 = EDGE_CURVE ( 'NONE', #322, #68, #378, .T. ) ;
#66 = DIRECTION ( 'NONE',  ( 0.8493881131629322789, -0.5277628146696672351, -0.002498933665447226459 ) ) ;
#67 = CARTESIAN_POINT ( 'NONE',  ( -0.1557510372824600087, 0.1818167967626435066, 0.1066921696187467933 ) ) ;
#68 = VERTEX_POINT ( 'NONE', #12 ) ;
#69 = CARTESIAN_POINT ( 'NONE',  ( -0.1530782953929371581, 0.2106366306931443666, 0.1116630752855973241 ) ) ;
#70 = CARTESIAN_POINT ( 'NONE',  ( -0.1556217728671970002, 0.2104398888837425152, 0.1229832820962187961 ) ) ;
#71 = DIRECTION ( 'NONE',  ( -0.4834404462051261064, -0.7761382400765024503, -0.4048391869173957325 ) ) ;
#72 = APPLICATION_PROTOCOL_DEFINITION ( 'international standard', 'config_control_design', 1994, #310 ) ;
#73 = DIRECTION ( 'NONE',  ( -0.4834404462051249962, -0.7761382400765023393, -0.4048391869173971203 ) ) ;
#74 = ORIENTED_EDGE ( 'NONE', *, *, #664, .F. ) ;
#75 = AXIS2_PLACEMENT_3D ( 'NONE', #425, #680, #95 ) ;
#76 = CARTESIAN_POINT ( 'NONE',  ( -0.1502384268843969806, 0.1918473849956859878, 0.1121269300409234032 ) ) ;
#77 = CC_DESIGN_APPROVAL ( #760, ( #531 ) ) ;
#78 = CARTESIAN_POINT ( 'NONE',  ( -0.1257516037025639966, 0.2312165427795674910, 0.1206261618812490000 ) ) ;
#79 = CARTESIAN_POINT ( 'NONE',  ( -0.1545208575643824966, 0.2143299917896289986, 0.1109546069226512027 ) ) ;
#80 = DIRECTION ( 'NONE',  ( -0.2117195507989359515, -0.3450736787164428998, 0.9143844859065567432 ) ) ;
#81 = DESIGN_CONTEXT ( 'detailed design', #310, 'design' ) ;
#82 = PLANE ( 'NONE',  #60 ) ;
#83 = CARTESIAN_POINT ( 'NONE',  ( -0.1268102014565588020, 0.2294911743859849862, 0.1251980843107816099 ) ) ;
#84 = ADVANCED_FACE ( 'NONE', ( #280 ), #791, .T. ) ;
#85 = CARTESIAN_POINT ( 'NONE',  ( -0.1511623542620549876, 0.1902836077766660028, 0.1283460618964563926 ) ) ;
#86 = CARTESIAN_POINT ( 'NONE',  ( -0.1374458912730714133, 0.2124161331043019907, 0.1162916221985990095 ) ) ;
#87 = LINE ( 'NONE', #737, #338 ) ;
#88 = CARTESIAN_POINT ( 'NONE',  ( -0.1550851875182194806, 0.2105898833340343890, 0.1229960624705242478 ) ) ;
#89 = CARTESIAN_POINT ( 'NONE',  ( -0.2014851914113645059, 0.1540429390053389969, 0.06036830030264869751 ) ) ;
#90 = DATE_AND_TIME ( #410, #499 ) ;
#91 = ORIENTED_EDGE ( 'NONE', *, *, #14, .F. ) ;
#92 = APPLICATION_CONTEXT ( 'configuration controlled 3d designs of mechanical parts and assemblies' ) ;
#93 = DIRECTION ( 'NONE',  ( -0.4834404462051249962, -0.7761382400765023393, -0.4048391869173971203 ) ) ;
#94 = CIRCLE ( 'NONE', #211, 0.001749999999999985508 ) ;
#95 = DIRECTION ( 'NONE',  ( -0.8493881131629308356, 0.5277628146696694555, 0.002498933665448513190 ) ) ;
#96 = CARTESIAN_POINT ( 'NONE',  ( -0.1540000238218419970, 0.2107141474213465038, 0.1117076198261622022 ) ) ;
#97 = ORIENTED_EDGE ( 'NONE', *, *, #421, .F. ) ;
#98 = EDGE_CURVE ( 'NONE', #49, #706, #643, .T. ) ;
#99 = CARTESIAN_POINT ( 'NONE',  ( -0.1500618198415479831, 0.2106068500596790238, 0.1230756190383339999 ) ) ;
#100 = CARTESIAN_POINT ( 'NONE',  ( -0.1552141668243157691, 0.2105568692121630725, 0.1119066944095059857 ) ) ;
#101 = DIRECTION ( 'NONE',  ( 0.8493881131629322789, -0.5277628146696672351, -0.002498933665447226459 ) ) ;
#102 = DATE_AND_TIME ( #242, #314 ) ;
#103 = CARTESIAN_POINT ( 'NONE',  ( -0.1551255075287024110, 0.2105775715943839499, 0.1118908770503643929 ) ) ;
#104 = ORIENTED_EDGE ( 'NONE', *, *, #724, .T. ) ;
#105 = CARTESIAN_POINT ( 'NONE',  ( -0.1578206733936395045, 0.2089182918280309831, 0.1124442224686844072 ) ) ;
#106 = LINE ( 'NONE', #289, #231 ) ;
#107 = COORDINATED_UNIVERSAL_TIME_OFFSET ( 2, 0, .AHEAD. ) ;
#108 = CARTESIAN_POINT ( 'NONE',  ( -0.1579139372497724847, 0.1795082593338465093, 0.1091834437631716004 ) ) ;
#109 = CARTESIAN_POINT ( 'NONE',  ( -0.1473583014914580103, 0.2125459329180600099, 0.1232087586761627940 ) ) ;
#110 = ORIENTED_EDGE ( 'NONE', *, *, #484, .F. ) ;
#111 = CARTESIAN_POINT ( 'NONE',  ( -0.1316127981874179731, 0.2378578495110595104, 0.1272435211815249878 ) ) ;
#112 = AXIS2_PLACEMENT_3D ( 'NONE', #818, #758, #753 ) ;
#113 = APPROVAL ( #234, 'UNSPECIFIED' ) ;
#114 = AXIS2_PLACEMENT_3D ( 'NONE', #793, #215, #460 ) ;
#115 = CARTESIAN_POINT ( 'NONE',  ( -0.1340300004184435956, 0.2339771583106770025, 0.1252193252469380180 ) ) ;
#116 = DATE_TIME_ROLE ( 'classification_date' ) ;
#117 = ADVANCED_FACE ( 'NONE', ( #288, #331, #213 ), #726, .T. ) ;
#118 = DIRECTION ( 'NONE',  ( -0.8493881131629322789, 0.5277628146696672351, 0.002498933665447226459 ) ) ;
#119 = PERSON_AND_ORGANIZATION ( #539, #566 ) ;
#120 = VERTEX_POINT ( 'NONE', #78 ) ;
#121 = ORIENTED_EDGE ( 'NONE', *, *, #715, .T. ) ;
#122 = VERTEX_POINT ( 'NONE', #342 ) ;
#123 = CARTESIAN_POINT ( 'NONE',  ( -0.1514883908255830192, 0.2104070143785599922, 0.1230460284010585909 ) ) ;
#124 = ORIENTED_EDGE ( 'NONE', *, *, #335, .F. ) ;
#125 = AXIS2_PLACEMENT_3D ( 'NONE', #377, #831, #246 ) ;
#126 = VECTOR ( 'NONE', #193, 1.000000000000000000 ) ;
#127 = EDGE_CURVE ( 'NONE', #49, #571, #204, .T. ) ;
#128 = ORIENTED_EDGE ( 'NONE', *, *, #383, .F. ) ;
#129 = EDGE_LOOP ( 'NONE', ( #185, #228, #306, #444, #587, #91 ) ) ;
#130 = CARTESIAN_POINT ( 'NONE',  ( -0.1524061599425040048, 0.2104873009637425185, 0.1230340848065281933 ) ) ;
#131 = ORIENTED_EDGE ( 'NONE', *, *, #590, .T. ) ;
#132 = VERTEX_POINT ( 'NONE', #522 ) ;
#133 = DIRECTION ( 'NONE',  ( 0.4834404462051258289, 0.7761382400765026723, 0.4048391869173958435 ) ) ;
#134 = AXIS2_PLACEMENT_3D ( 'NONE', #263, #343, #519 ) ;
#135 = SECURITY_CLASSIFICATION ( '', '', #308 ) ;
#136 = AXIS2_PLACEMENT_3D ( 'NONE', #659, #671, #336 ) ;
#137 = VERTEX_POINT ( 'NONE', #200 ) ;
#138 = EDGE_CURVE ( 'NONE', #132, #687, #585, .T. ) ;
#139 = CARTESIAN_POINT ( 'NONE',  ( -0.1596305455222190028, 0.2060968474632134950, 0.1129711510199012114 ) ) ;
#140 = DIRECTION ( 'NONE',  ( -0.4834404462051261064, -0.7761382400765024503, -0.4048391869173957325 ) ) ;
#141 = CARTESIAN_POINT ( 'NONE',  ( -0.1694474264168844835, 0.1903269757590010103, 0.1067324649411943993 ) ) ;
#142 = ORIENTED_EDGE ( 'NONE', *, *, #311, .F. ) ;
#143 = UNCERTAINTY_MEASURE_WITH_UNIT (LENGTH_MEASURE( 1.000000000000000082E-05 ), #728, 'distance_accuracy_value', 'NONE');
#144 = CARTESIAN_POINT ( 'NONE',  ( -0.1527460242877700103, 0.2105513302900390016, 0.1116586338973242082 ) ) ;
#145 = DIRECTION ( 'NONE',  ( 0.8493881131629322789, -0.5277628146696672351, -0.002498933665447226459 ) ) ;
#146 = DIRECTION ( 'NONE',  ( 0.8493881131629322789, -0.5277628146696672351, -0.002498933665447226459 ) ) ;
#147 = CARTESIAN_POINT ( 'NONE',  ( -0.1382919120539304603, 0.2110578911841679839, 0.1155831536214934618 ) ) ;
#148 = ORIENTED_EDGE ( 'NONE', *, *, #45, .F. ) ;
#149 = AXIS2_PLACEMENT_3D ( 'NONE', #669, #80, #411 ) ;
#150 = DIRECTION ( 'NONE',  ( -0.4834404462051249962, -0.7761382400765030054, -0.4048391869173960100 ) ) ;
#151 = ADVANCED_FACE ( 'NONE', ( #481 ), #43, .T. ) ;
#152 = DIRECTION ( 'NONE',  ( -0.8493881131629322789, 0.5277628146696672351, 0.002498933665447226459 ) ) ;
#153 = CARTESIAN_POINT ( 'NONE',  ( -0.1666562852982894916, 0.1586336828257160214, 0.08673720066578340104 ) ) ;
#154 = VERTEX_POINT ( 'NONE', #307 ) ;
#155 = CARTESIAN_POINT ( 'NONE',  ( -0.1541927777166779978, 0.2107158759774819812, 0.1230134367135118090 ) ) ;
#156 = ORIENTED_EDGE ( 'NONE', *, *, #219, .F. ) ;
#157 = LINE ( 'NONE', #609, #523 ) ;
#158 = ADVANCED_FACE ( 'NONE', ( #172 ), #574, .F. ) ;
#159 = DIRECTION ( 'NONE',  ( 0.8493881131629322789, -0.5277628146696672351, -0.002498933665447226459 ) ) ;
#160 = CARTESIAN_POINT ( 'NONE',  ( -0.1579391082346389974, 0.1794488114773099829, 0.1131829227759773987 ) ) ;
#161 = CARTESIAN_POINT ( 'NONE',  ( -0.1438196694540974374, 0.2182603589491278751, 0.1170213317118606322 ) ) ;
#162 = DIRECTION ( 'NONE',  ( -0.8493881131629322789, 0.5277628146696672351, 0.002498933665447226459 ) ) ;
#163 = CYLINDRICAL_SURFACE ( 'NONE', #75, 0.004999999999999994900 ) ;
#164 = CARTESIAN_POINT ( 'NONE',  ( -0.1259641806756998661, 0.2308494163061187987, 0.1259065528878871576 ) ) ;
#165 = EDGE_CURVE ( 'NONE', #794, #697, #711, .T. ) ;
#166 = CARTESIAN_POINT ( 'NONE',  ( -0.1446656902349564011, 0.2169021170289940070, 0.1163128631347551956 ) ) ;
#167 = AXIS2_PLACEMENT_3D ( 'NONE', #735, #346, #805 ) ;
#168 = CARTESIAN_POINT ( 'NONE',  ( -0.1577053578505779874, 0.2090561590317975005, 0.1124184405372235934 ) ) ;
#169 = DIRECTION ( 'NONE',  ( 0.8493881131629322789, -0.5277628146696672351, -0.002498933665447226459 ) ) ;
#170 = FACE_OUTER_BOUND ( 'NONE', #842, .T. ) ;
#171 = CARTESIAN_POINT ( 'NONE',  ( -0.1515905028525189879, 0.2104075615748880190, 0.1230444312792959988 ) ) ;
#172 = FACE_OUTER_BOUND ( 'NONE', #189, .T. ) ;
#173 = CARTESIAN_POINT ( 'NONE',  ( -0.1579921019578109931, 0.1793236529557374892, 0.1216032243556266074 ) ) ;
#174 = LINE ( 'NONE', #108, #485 ) ;
#175 = FACE_OUTER_BOUND ( 'NONE', #64, .T. ) ;
#176 = CARTESIAN_POINT ( 'NONE',  ( -0.1427677871430289847, 0.2038730181775794958, 0.1116429547209960016 ) ) ;
#177 = ADVANCED_FACE ( 'NONE', ( #175 ), #163, .F. ) ;
#178 = CARTESIAN_POINT ( 'NONE',  ( -0.1580892506359574956, 0.2085666607327259781, 0.1125045302092937960 ) ) ;
#179 = AXIS2_PLACEMENT_3D ( 'NONE', #115, #577, #632 ) ;
#180 = EDGE_LOOP ( 'NONE', ( #564, #843, #514, #104, #330 ) ) ;
#181 = CYLINDRICAL_SURFACE ( 'NONE', #179, 0.004999999999999989696 ) ;
#182 = CARTESIAN_POINT ( 'NONE',  ( -0.1472622477010289976, 0.2127535685488435024, 0.1098959564476275907 ) ) ;
#183 = ORIENTED_EDGE ( 'NONE', *, *, #138, .T. ) ;
#184 = EDGE_CURVE ( 'NONE', #516, #442, #50, .T. ) ;
#185 = ORIENTED_EDGE ( 'NONE', *, *, #785, .F. ) ;
#186 = VECTOR ( 'NONE', #674, 1.000000000000000000 ) ;
#187 = ORIENTED_EDGE ( 'NONE', *, *, #35, .T. ) ;
#188 = B_SPLINE_SURFACE_WITH_KNOTS ( 'NONE', 3, 1, ( 
 ( #394, #459 ),
 ( #450, #720 ),
 ( #535, #79 ),
 ( #781, #598 ),
 ( #3, #604 ),
 ( #8, #139 ),
 ( #454, #727 ),
 ( #324, #660 ),
 ( #445, #722 ),
 ( #63, #658 ),
 ( #67, #141 ),
 ( #273, #530 ) ),
 .UNSPECIFIED., .F., .F., .F.,
 ( 4, 3, 2, 3, 4 ),
 ( 2, 2 ),
 ( -0.8328328601530630149, 0.000000000000000000, 1.079624937385389893, 2.157453315352740209, 2.990281934761170213 ),
 ( -0.8125006839832099592, 0.8000000000000000444 ),
 .UNSPECIFIED. ) ;
#189 = EDGE_LOOP ( 'NONE', ( #382, #494, #55, #265 ) ) ;
#190 = CARTESIAN_POINT ( 'NONE',  ( -0.1490611692557664014, 0.2110148898101814885, 0.1231072986300191935 ) ) ;
#191 = ORIENTED_EDGE ( 'NONE', *, *, #653, .F. ) ;
#192 = DIRECTION ( 'NONE',  ( 0.8493881131629318348, -0.5277628146696681233, -0.002498933665446900765 ) ) ;
#193 = DIRECTION ( 'NONE',  ( -0.003630753453943478311, -0.001108458478111473472, -0.9999927944486195486 ) ) ;
#194 = ORIENTED_EDGE ( 'NONE', *, *, #421, .T. ) ;
#195 = EDGE_CURVE ( 'NONE', #122, #68, #694, .T. ) ;
#196 = EDGE_LOOP ( 'NONE', ( #507, #121, #375, #34, #110, #379 ) ) ;
#197 = CARTESIAN_POINT ( 'NONE',  ( -0.1363872935190768021, 0.2141415014978839959, 0.1117196997690661914 ) ) ;
#198 = ORIENTED_EDGE ( 'NONE', *, *, #408, .T. ) ;
#199 = AXIS2_PLACEMENT_3D ( 'NONE', #385, #588, #267 ) ;
#200 = CARTESIAN_POINT ( 'NONE',  ( -0.1536920875352509874, 0.1863023533972469892, 0.1093110009882043987 ) ) ;
#201 = FACE_OUTER_BOUND ( 'NONE', #196, .T. ) ;
#202 = CARTESIAN_POINT ( 'NONE',  ( -0.1527047309967415056, 0.2105639369974079966, 0.1230317465103920038 ) ) ;
#203 = CARTESIAN_POINT ( 'NONE',  ( -0.1553700374623784852, 0.2105216864165674884, 0.1229896450403339947 ) ) ;
#204 = B_SPLINE_CURVE_WITH_KNOTS ( 'NONE', 3,
 ( #591, #602, #2, #266 ),
 .UNSPECIFIED., .F., .F.,
 ( 4, 4 ),
 ( 2.488931023533750064, 5.550492351515339706 ),
 .UNSPECIFIED. ) ;
#205 = FACE_OUTER_BOUND ( 'NONE', #799, .T. ) ;
#206 = CARTESIAN_POINT ( 'NONE',  ( -0.1548239447655854750, 0.2106508981605890174, 0.1230018989575139970 ) ) ;
#207 = ADVANCED_FACE ( 'NONE', ( #371 ), #232, .F. ) ;
#208 = CARTESIAN_POINT ( 'NONE',  ( -0.1579391082346389974, 0.1794488114773099829, 0.1131829227759773987 ) ) ;
#209 = CARTESIAN_POINT ( 'NONE',  ( -0.1574649751304594836, 0.2092864672242169821, 0.1229142126441093996 ) ) ;
#210 = CARTESIAN_POINT ( 'NONE',  ( -0.1549120120920587096, 0.2106274238304211288, 0.1118527881621871611 ) ) ;
#211 = AXIS2_PLACEMENT_3D ( 'NONE', #524, #332, #71 ) ;
#212 = DIRECTION ( 'NONE',  ( -0.4834404462051261064, -0.7761382400765024503, -0.4048391869173957325 ) ) ;
#213 = FACE_OUTER_BOUND ( 'NONE', #432, .T. ) ;
#214 = CARTESIAN_POINT ( 'NONE',  ( -0.1331839796375846319, 0.2353354002308108706, 0.1259277938240434547 ) ) ;
#215 = DIRECTION ( 'NONE',  ( 0.8493881131629322789, -0.5277628146696672351, -0.002498933665447226459 ) ) ;
#216 = ORIENTED_EDGE ( 'NONE', *, *, #538, .T. ) ;
#217 = CARTESIAN_POINT ( 'NONE',  ( -0.1539981977567589921, 0.2107206784544179978, 0.1230165452715107910 ) ) ;
#218 = CARTESIAN_POINT ( 'NONE',  ( -0.1483532994221981871, 0.1948794274622299982, 0.1125293384208131964 ) ) ;
#219 = EDGE_CURVE ( 'NONE', #154, #322, #356, .T. ) ;
#220 = CARTESIAN_POINT ( 'NONE',  ( -0.1581955210714505178, 0.2083595575554884893, 0.1228627555240732055 ) ) ;
#221 = CYLINDRICAL_SURFACE ( 'NONE', #783, 0.001749999999999985508 ) ;
#222 = COORDINATED_UNIVERSAL_TIME_OFFSET ( 2, 0, .AHEAD. ) ;
#223 = CARTESIAN_POINT ( 'NONE',  ( -0.1445987802231591957, 0.2009217320135159857, 0.1125854908627923895 ) ) ;
#224 = ADVANCED_FACE ( 'NONE', ( #533 ), #82, .T. ) ;
#225 = CARTESIAN_POINT ( 'NONE',  ( -0.1569207323582819946, 0.2097604396081559908, 0.1122467146589662124 ) ) ;
#226 = CARTESIAN_POINT ( 'NONE',  ( -0.1603827364429259994, 0.2199148085417060028, 0.1192787867936667967 ) ) ;
#227 = PERSON_AND_ORGANIZATION_ROLE ( 'classification_officer' ) ;
#228 = ORIENTED_EDGE ( 'NONE', *, *, #614, .F. ) ;
#229 = CARTESIAN_POINT ( 'NONE',  ( -0.1506755192888104833, 0.2104691126122245071, 0.1230609960990356050 ) ) ;
#230 = AXIS2_PLACEMENT_3D ( 'NONE', #166, #162, #416 ) ;
#231 = VECTOR ( 'NONE', #358, 1.000000000000000000 ) ;
#232 = CYLINDRICAL_SURFACE ( 'NONE', #300, 0.001749999999999985508 ) ;
#233 = CARTESIAN_POINT ( 'NONE',  ( -0.1446656902349564011, 0.2169021170289940070, 0.1163128631347551956 ) ) ;
#234 = APPROVAL_STATUS ( 'not_yet_approved' ) ;
#235 = DIRECTION ( 'NONE',  ( -0.4834404462051249962, -0.7761382400765030054, -0.4048391869173960100 ) ) ;
#236 = ORIENTED_EDGE ( 'NONE', *, *, #808, .F. ) ;
#237 = DIRECTION ( 'NONE',  ( 0.8493881131629322789, -0.5277628146696672351, -0.002498933665447226459 ) ) ;
#238 = PERSON_AND_ORGANIZATION ( #539, #566 ) ;
#239 = EDGE_CURVE ( 'NONE', #154, #254, #462, .T. ) ;
#240 = CARTESIAN_POINT ( 'NONE',  ( -0.1504685207197530017, 0.2105020617278804962, 0.1230654119723238044 ) ) ;
#241 = CARTESIAN_POINT ( 'NONE',  ( -0.1571806630036219898, 0.2095605377178289819, 0.1123027934742164002 ) ) ;
#242 = CALENDAR_DATE ( 2026, 6, 9 ) ;
#243 = CIRCLE ( 'NONE', #510, 0.001749999999999985508 ) ;
#244 = DATE_AND_TIME ( #562, #734 ) ;
#245 = LOCAL_TIME ( 12, 33, 59.00000000000000000, #431 ) ;
#246 = DIRECTION ( 'NONE',  ( 0.4834404462051261064, 0.7761382400765024503, 0.4048391869173957325 ) ) ;
#247 = CIRCLE ( 'NONE', #542, 0.004999999999999994900 ) ;
#248 = EDGE_CURVE ( 'NONE', #697, #49, #87, .T. ) ;
#249 = EDGE_CURVE ( 'NONE', #828, #254, #741, .T. ) ;
#250 = VERTEX_POINT ( 'NONE', #402 ) ;
#251 = VERTEX_POINT ( 'NONE', #208 ) ;
#252 = ORIENTED_EDGE ( 'NONE', *, *, #509, .T. ) ;
#253 = ORIENTED_EDGE ( 'NONE', *, *, #603, .T. ) ;
#254 = VERTEX_POINT ( 'NONE', #731 ) ;
#255 = VECTOR ( 'NONE', #807, 1.000000000000000000 ) ;
#256 = DIRECTION ( 'NONE',  ( 0.5277312143151721147, 0.8492617579250971716, 0.01594465312911260216 ) ) ;
#257 = CC_DESIGN_PERSON_AND_ORGANIZATION_ASSIGNMENT ( #544, #661, ( #774 ) ) ;
#258 = ORIENTED_EDGE ( 'NONE', *, *, #829, .T. ) ;
#259 = FACE_OUTER_BOUND ( 'NONE', #180, .T. ) ;
#260 = EDGE_LOOP ( 'NONE', ( #434, #47 ) ) ;
#261 = EDGE_CURVE ( 'NONE', #652, #837, #651, .T. ) ;
#262 = ORIENTED_EDGE ( 'NONE', *, *, #261, .F. ) ;
#263 = CARTESIAN_POINT ( 'NONE',  ( -0.1539954976066044978, 0.2057064198275605216, 0.1099282149221652016 ) ) ;
#264 = DIRECTION ( 'NONE',  ( -0.8493881131629322789, 0.5277628146696672351, 0.002498933665447226459 ) ) ;
#265 = ORIENTED_EDGE ( 'NONE', *, *, #365, .T. ) ;
#266 = CARTESIAN_POINT ( 'NONE',  ( -0.1711046239886639952, 0.1876291351046895095, 0.1132216562477918048 ) ) ;
#267 = DIRECTION ( 'NONE',  ( -0.4834404462051249962, -0.7761382400765023393, -0.4048391869173971203 ) ) ;
#268 = VECTOR ( 'NONE', #467, 1.000000000000000000 ) ;
#269 = LOCAL_TIME ( 12, 33, 59.00000000000000000, #222 ) ;
#270 = CARTESIAN_POINT ( 'NONE',  ( -0.1340300004184435956, 0.2339771583106770025, 0.1252193252469380180 ) ) ;
#271 = CARTESIAN_POINT ( 'NONE',  ( -0.1527460242877700103, 0.2105513302900390016, 0.1116586338973242082 ) ) ;
#272 = EDGE_CURVE ( 'NONE', #319, #707, #790, .T. ) ;
#273 = CARTESIAN_POINT ( 'NONE',  ( -0.1570459488462644937, 0.1797389461298304902, 0.1053835348593346044 ) ) ;
#274 = ORIENTED_EDGE ( 'NONE', *, *, #248, .T. ) ;
#275 = LINE ( 'NONE', #405, #323 ) ;
#276 = CARTESIAN_POINT ( 'NONE',  ( -0.1464650297681941993, 0.1979165238358339962, 0.1129324175480868053 ) ) ;
#277 = CARTESIAN_POINT ( 'NONE',  ( -0.1580873083579314997, 0.2085336700337160065, 0.1228725600965318021 ) ) ;
#278 = CYLINDRICAL_SURFACE ( 'NONE', #819, 0.004999999999999994900 ) ;
#279 = CARTESIAN_POINT ( 'NONE',  ( -0.1350885981724384011, 0.2322517899170949973, 0.1297912476764707945 ) ) ;
#280 = FACE_OUTER_BOUND ( 'NONE', #835, .T. ) ;
#281 = CARTESIAN_POINT ( 'NONE',  ( -0.1546953226597397590, 0.2106631958598448040, 0.1118159382459066042 ) ) ;
#282 =( NAMED_UNIT ( * ) PLANE_ANGLE_UNIT ( ) SI_UNIT ( $, .RADIAN. ) );
#283 = ORIENTED_EDGE ( 'NONE', *, *, #1, .F. ) ;
#284 = AXIS2_PLACEMENT_3D ( 'NONE', #786, #655, #13 ) ;
#285 = APPROVAL ( #830, 'UNSPECIFIED' ) ;
#286 = LINE ( 'NONE', #547, #255 ) ;
#287 = PRODUCT_DEFINITION_FORMATION_WITH_SPECIFIED_SOURCE ( 'ANY', '', #774, .NOT_KNOWN. ) ;
#288 = FACE_BOUND ( 'NONE', #521, .T. ) ;
#289 = CARTESIAN_POINT ( 'NONE',  ( -0.1254515969795277908, 0.2316464971927855165, 0.1317942026749013840 ) ) ;
#290 = ORIENTED_EDGE ( 'NONE', *, *, #326, .F. ) ;
#291 = CARTESIAN_POINT ( 'NONE',  ( -0.1527047309967415056, 0.2105639369974079966, 0.1230317465103920038 ) ) ;
#292 = CARTESIAN_POINT ( 'NONE',  ( -0.1536920875352509874, 0.1863023533972469892, 0.1093110009882043987 ) ) ;
#293 = CARTESIAN_POINT ( 'NONE',  ( -0.1568037144813999861, 0.2098426663765080025, 0.1122217127354104005 ) ) ;
#294 = CARTESIAN_POINT ( 'NONE',  ( -0.1710781870446480002, 0.2026582052109345000, 0.1284046550698713929 ) ) ;
#295 = CARTESIAN_POINT ( 'NONE',  ( -0.1472838509440444199, 0.2126557296614315085, 0.1232161134576869876 ) ) ;
#296 = CARTESIAN_POINT ( 'NONE',  ( -0.1565080157817280160, 0.2100320872809429973, 0.1121593655610703955 ) ) ;
#297 = CC_DESIGN_PERSON_AND_ORGANIZATION_ASSIGNMENT ( #119, #685, ( #287 ) ) ;
#298 = FACE_OUTER_BOUND ( 'NONE', #129, .T. ) ;
#299 = CARTESIAN_POINT ( 'NONE',  ( -0.1381580622485133747, 0.2113007868133705003, 0.1097803396177513963 ) ) ;
#300 = AXIS2_PLACEMENT_3D ( 'NONE', #302, #237, #341 ) ;
#301 = ORIENTED_EDGE ( 'NONE', *, *, #335, .T. ) ;
#302 = CARTESIAN_POINT ( 'NONE',  ( -0.1446656902349564011, 0.2169021170289940070, 0.1163128631347551956 ) ) ;
#303 = CARTESIAN_POINT ( 'NONE',  ( -0.1348760211993025593, 0.2326189163905431345, 0.1245108566698325814 ) ) ;
#304 = EDGE_CURVE ( 'NONE', #122, #478, #802, .T. ) ;
#305 = CARTESIAN_POINT ( 'NONE',  ( -0.1483538495978989902, 0.2114706458716665016, 0.1231381334677253969 ) ) ;
#306 = ORIENTED_EDGE ( 'NONE', *, *, #311, .T. ) ;
#307 = CARTESIAN_POINT ( 'NONE',  ( -0.1350885981724384011, 0.2322517899170949973, 0.1297912476764707945 ) ) ;
#308 = SECURITY_CLASSIFICATION_LEVEL ( 'unclassified' ) ;
#309 = CARTESIAN_POINT ( 'NONE',  ( -0.1436171752561919979, 0.2044007809922495089, 0.1116454536546614001 ) ) ;
#310 = APPLICATION_CONTEXT ( 'configuration controlled 3d designs of mechanical parts and assemblies' ) ;
#311 = EDGE_CURVE ( 'NONE', #250, #502, #29, .T. ) ;
#312 = AXIS2_PLACEMENT_3D ( 'NONE', #779, #192, #133 ) ;
#313 = EDGE_LOOP ( 'NONE', ( #605, #370, #156, #451 ) ) ;
#314 = LOCAL_TIME ( 12, 33, 59.00000000000000000, #493 ) ;
#315 = CARTESIAN_POINT ( 'NONE',  ( -0.1579139372497724847, 0.1795082593338465093, 0.1091834437631716004 ) ) ;
#316 = ORIENTED_EDGE ( 'NONE', *, *, #656, .T. ) ;
#317 = CARTESIAN_POINT ( 'NONE',  ( -0.1484513643321068999, 0.2108319021312964614, 0.1115616852488129362 ) ) ;
#318 = ORIENTED_EDGE ( 'NONE', *, *, #392, .F. ) ;
#319 = VERTEX_POINT ( 'NONE', #746 ) ;
#320 = CARTESIAN_POINT ( 'NONE',  ( -0.1476671337826016006, 0.2121449475472709789, 0.1231821825924194064 ) ) ;
#321 = VERTEX_POINT ( 'NONE', #202 ) ;
#322 = VERTEX_POINT ( 'NONE', #606 ) ;
#323 = VECTOR ( 'NONE', #532, 1.000000000000000000 ) ;
#324 = CARTESIAN_POINT ( 'NONE',  ( -0.1514853682510234889, 0.1886616063574405033, 0.1110030452976128040 ) ) ;
#325 = AXIS2_PLACEMENT_3D ( 'NONE', #736, #477, #33 ) ;
#326 = EDGE_CURVE ( 'NONE', #837, #652, #710, .T. ) ;
#327 = AXIS2_PLACEMENT_3D ( 'NONE', #721, #403, #140 ) ;
#328 = ORIENTED_EDGE ( 'NONE', *, *, #45, .T. ) ;
#329 = CARTESIAN_POINT ( 'NONE',  ( -0.1527047309967415056, 0.2105639369974079966, 0.1230317465103920038 ) ) ;
#330 = ORIENTED_EDGE ( 'NONE', *, *, #127, .F. ) ;
#331 = FACE_BOUND ( 'NONE', #795, .T. ) ;
#332 = DIRECTION ( 'NONE',  ( -0.8493881131629322789, 0.5277628146696672351, 0.002498933665447226459 ) ) ;
#333 = EDGE_CURVE ( 'NONE', #834, #46, #22, .T. ) ;
#334 = CARTESIAN_POINT ( 'NONE',  ( -0.1515509222256774813, 0.2191152523119145046, 0.1098122042050266034 ) ) ;
#335 = EDGE_CURVE ( 'NONE', #251, #765, #157, .T. ) ;
#336 = DIRECTION ( 'NONE',  ( -0.2117195507989359238, -0.3450736787164428443, 0.9143844859065566322 ) ) ;
#337 = CARTESIAN_POINT ( 'NONE',  ( -0.1276562222374177935, 0.2281329324658510627, 0.1244896157336762843 ) ) ;
#338 = VECTOR ( 'NONE', #670, 1.000000000000000000 ) ;
#339 = CARTESIAN_POINT ( 'NONE',  ( -0.1545579248425595909, 0.2106908587750560835, 0.1230071319213978942 ) ) ;
#340 = VERTEX_POINT ( 'NONE', #593 ) ;
#341 = DIRECTION ( 'NONE',  ( 0.4834404462051261064, 0.7761382400765024503, 0.4048391869173957325 ) ) ;
#342 = CARTESIAN_POINT ( 'NONE',  ( -0.1316127981874179731, 0.2378578495110595104, 0.1272435211815249878 ) ) ;
#343 = DIRECTION ( 'NONE',  ( -0.003630753453943478311, -0.001108458478111473472, -0.9999927944486195486 ) ) ;
#344 = DIRECTION ( 'NONE',  ( -0.8493881131629322789, 0.5277628146696672351, 0.002498933665447226459 ) ) ;
#345 = FACE_BOUND ( 'NONE', #582, .T. ) ;
#346 = DIRECTION ( 'NONE',  ( -0.02069353157055865700, -0.02857242160359460201, -0.9993775034864678108 ) ) ;
#347 =( NAMED_UNIT ( * ) SI_UNIT ( $, .STERADIAN. ) SOLID_ANGLE_UNIT ( ) );
#348 = DIRECTION ( 'NONE',  ( -0.5277312143151721147, -0.8492617579250971716, -0.01594465312911260216 ) ) ;
#349 = LINE ( 'NONE', #528, #748 ) ;
#350 = B_SPLINE_CURVE_WITH_KNOTS ( 'NONE', 3,
 ( #692, #295, #109, #628, #623, #320, #42, #583, #305, #512, #682, #190, #641, #572, #826, #99, #495, #240, #229, #486, #752, #123, #171, #422, #688, #592, #130, #329 ),
 .UNSPECIFIED., .F., .F.,
 ( 4, 3, 3, 3, 3, 3, 3, 3, 3, 4 ),
 ( 0.000000000000000000, 0.03984307507003989612, 0.09595161421441508742, 0.2124534167596659751, 0.2805723523739270253, 0.3663931218044669813, 0.4294512407175550273, 0.5112318858870730232, 0.5418704290242450927, 0.6343503134267850507 ),
 .UNSPECIFIED. ) ;
#351 = LINE ( 'NONE', #303, #415 ) ;
#352 = APPROVAL_DATE_TIME ( #90, #760 ) ;
#353 = PLANE ( 'NONE',  #149 ) ;
#354 = EDGE_CURVE ( 'NONE', #511, #420, #286, .T. ) ;
#355 = VECTOR ( 'NONE', #684, 1.000000000000000222 ) ;
#356 = LINE ( 'NONE', #279, #268 ) ;
#357 = DIRECTION ( 'NONE',  ( 0.8493881131629322789, -0.5277628146696672351, -0.002498933665447226459 ) ) ;
#358 = DIRECTION ( 'NONE',  ( -0.4834404462051249962, -0.7761382400765030054, -0.4048391869173960100 ) ) ;
#359 = FACE_OUTER_BOUND ( 'NONE', #757, .T. ) ;
#360 = EDGE_LOOP ( 'NONE', ( #646, #216, #719, #648 ) ) ;
#361 = EDGE_CURVE ( 'NONE', #401, #254, #617, .T. ) ;
#362 = CARTESIAN_POINT ( 'NONE',  ( -0.1553022753050230242, 0.2105337386526828503, 0.1119227254333660521 ) ) ;
#363 = CARTESIAN_POINT ( 'NONE',  ( -0.1548411601012265049, 0.1775239177788305034, 0.1131738084891580065 ) ) ;
#364 = APPROVAL_DATE_TIME ( #821, #113 ) ;
#365 = EDGE_CURVE ( 'NONE', #478, #120, #552, .T. ) ;
#366 = CARTESIAN_POINT ( 'NONE',  ( -0.1581870230975130076, 0.2084221744385005015, 0.1125266024559367917 ) ) ;
#367 = FACE_OUTER_BOUND ( 'NONE', #772, .T. ) ;
#368 = DIRECTION ( 'NONE',  ( 0.8493881131629340553, -0.5277628146696641265, -0.002498933665454671025 ) ) ;
#369 = ORIENTED_EDGE ( 'NONE', *, *, #361, .F. ) ;
#370 = ORIENTED_EDGE ( 'NONE', *, *, #509, .F. ) ;
#371 = FACE_OUTER_BOUND ( 'NONE', #360, .T. ) ;
#372 = PERSON_AND_ORGANIZATION ( #539, #566 ) ;
#373 = CARTESIAN_POINT ( 'NONE',  ( -0.1710794530037974825, 0.1876885829612260082, 0.1092221772349860065 ) ) ;
#374 = ORIENTED_EDGE ( 'NONE', *, *, #1, .T. ) ;
#375 = ORIENTED_EDGE ( 'NONE', *, *, #376, .F. ) ;
#376 = EDGE_CURVE ( 'NONE', #137, #502, #546, .T. ) ;
#377 = CARTESIAN_POINT ( 'NONE',  ( -0.1340300004184435956, 0.2339771583106770025, 0.1252193252469380180 ) ) ;
#378 = CIRCLE ( 'NONE', #59, 0.004999999999999994900 ) ;
#379 = ORIENTED_EDGE ( 'NONE', *, *, #165, .F. ) ;
#380 = LINE ( 'NONE', #386, #126 ) ;
#381 = CC_DESIGN_DATE_AND_TIME_ASSIGNMENT ( #102, #116, ( #135 ) ) ;
#382 = ORIENTED_EDGE ( 'NONE', *, *, #638, .T. ) ;
#383 = EDGE_CURVE ( 'NONE', #401, #321, #350, .T. ) ;
#384 = ORIENTED_EDGE ( 'NONE', *, *, #590, .F. ) ;
#385 = CARTESIAN_POINT ( 'NONE',  ( -0.1268102014565588020, 0.2294911743859849862, 0.1251980843107816099 ) ) ;
#386 = CARTESIAN_POINT ( 'NONE',  ( -0.1551326379927419341, 0.2105753940658786627, 0.1099269465336361745 ) ) ;
#387 = ORIENTED_EDGE ( 'NONE', *, *, #383, .T. ) ;
#388 = ORIENTED_EDGE ( 'NONE', *, *, #743, .F. ) ;
#389 = CARTESIAN_POINT ( 'NONE',  ( -0.1604151437001615221, 0.2048348983152665226, 0.1128036669171118000 ) ) ;
#390 = DIRECTION ( 'NONE',  ( -0.4834404462051249962, -0.7761382400765023393, -0.4048391869173971203 ) ) ;
#391 = CARTESIAN_POINT ( 'NONE',  ( -0.1472138575055373932, 0.2127683419348994909, 0.1232237264070139976 ) ) ;
#392 = EDGE_CURVE ( 'NONE', #442, #516, #94, .T. ) ;
#393 = DIRECTION ( 'NONE',  ( -0.8493881131629322789, 0.5277628146696672351, 0.002498933665447226459 ) ) ;
#394 = CARTESIAN_POINT ( 'NONE',  ( -0.1379995777646159938, 0.2103731127626105035, 0.1094601490598848120 ) ) ;
#395 = DIRECTION ( 'NONE',  ( -0.5277312143151732249, -0.8492617579250962834, -0.01594465312911260563 ) ) ;
#396 = DIRECTION ( 'NONE',  ( -0.8493881131629322789, 0.5277628146696672351, 0.002498933665447206076 ) ) ;
#397 = DIRECTION ( 'NONE',  ( 0.4834404462051249962, 0.7761382400765023393, 0.4048391869173971203 ) ) ;
#398 = APPLICATION_PROTOCOL_DEFINITION ( 'international standard', 'config_control_design', 1994, #92 ) ;
#399 = AXIS2_PLACEMENT_3D ( 'NONE', #616, #40, #690 ) ;
#400 = FACE_OUTER_BOUND ( 'NONE', #313, .T. ) ;
#401 = VERTEX_POINT ( 'NONE', #391 ) ;
#402 = CARTESIAN_POINT ( 'NONE',  ( -0.1375493589309242093, 0.2122732709962840136, 0.1112947346811666016 ) ) ;
#403 = DIRECTION ( 'NONE',  ( -0.8493881131629322789, 0.5277628146696672351, 0.002498933665447226459 ) ) ;
#404 = LINE ( 'NONE', #476, #355 ) ;
#405 = CARTESIAN_POINT ( 'NONE',  ( -0.1527523429367240171, 0.2105494012248760038, 0.1099183330190599966 ) ) ;
#406 = CARTESIAN_POINT ( 'NONE',  ( -0.1235888252939436049, 0.2347459404032604946, 0.1103631634529119998 ) ) ;
#407 = CARTESIAN_POINT ( 'NONE',  ( -0.1560971002470715185, 0.2102424270143825047, 0.1229696859077945986 ) ) ;
#408 = EDGE_CURVE ( 'NONE', #634, #589, #498, .T. ) ;
#409 = DIRECTION ( 'NONE',  ( -0.8493881131629322789, 0.5277628146696672351, 0.002498933665447226459 ) ) ;
#410 = CALENDAR_DATE ( 2026, 6, 9 ) ;
#411 = DIRECTION ( 'NONE',  ( -0.8493881131629322789, 0.5277628146696672351, 0.002498933665447226459 ) ) ;
#412 = CARTESIAN_POINT ( 'NONE',  ( -0.1417841553685075806, 0.2215024245727570118, 0.1241843028035433949 ) ) ;
#413 = CARTESIAN_POINT ( 'NONE',  ( -0.1559269729836934848, 0.2103233420931049924, 0.1120412964471364098 ) ) ;
#414 = CARTESIAN_POINT ( 'NONE',  ( -0.1373689555269138052, 0.2056153174089689895, 0.1192110793334267976 ) ) ;
#415 = VECTOR ( 'NONE', #101, 1.000000000000000000 ) ;
#416 = DIRECTION ( 'NONE',  ( -0.4834404462051261064, -0.7761382400765024503, -0.4048391869173957325 ) ) ;
#417 = CC_DESIGN_SECURITY_CLASSIFICATION ( #135, ( #287 ) ) ;
#418 = CARTESIAN_POINT ( 'NONE',  ( -0.1551255075287024110, 0.2105775715943839499, 0.1118908770503643929 ) ) ;
#419 = DIRECTION ( 'NONE',  ( 0.4834404462051261064, 0.7761382400765024503, 0.4048391869173957325 ) ) ;
#420 = VERTEX_POINT ( 'NONE', #197 ) ;
#421 = EDGE_CURVE ( 'NONE', #68, #120, #762, .T. ) ;
#422 = CARTESIAN_POINT ( 'NONE',  ( -0.1516925031926939782, 0.2104112359985844949, 0.1230429382173825886 ) ) ;
#423 = CARTESIAN_POINT ( 'NONE',  ( -0.1575828349246719828, 0.2091875266705749969, 0.1123911931069977999 ) ) ;
#424 = DIRECTION ( 'NONE',  ( -0.5277312143151721147, -0.8492617579250971716, -0.01594465312911260563 ) ) ;
#425 = CARTESIAN_POINT ( 'NONE',  ( -0.1515091882668435086, 0.2153923826221914861, 0.1099084511159549998 ) ) ;
#426 = CARTESIAN_POINT ( 'NONE',  ( -0.1305542004334233896, 0.2395832179046419874, 0.1226715987519921974 ) ) ;
#427 = VECTOR ( 'NONE', #479, 1.000000000000000000 ) ;
#428 = CARTESIAN_POINT ( 'NONE',  ( -0.1582330115296294859, 0.2083481118275575250, 0.1125370232717030072 ) ) ;
#429 = CC_DESIGN_DATE_AND_TIME_ASSIGNMENT ( #787, #761, ( #531 ) ) ;
#430 = LINE ( 'NONE', #309, #732 ) ;
#431 = COORDINATED_UNIVERSAL_TIME_OFFSET ( 2, 0, .AHEAD. ) ;
#432 = EDGE_LOOP ( 'NONE', ( #283, #483, #709, #187, #518, #635, #729, #825 ) ) ;
#433 = ORIENTED_EDGE ( 'NONE', *, *, #219, .T. ) ;
#434 = ORIENTED_EDGE ( 'NONE', *, *, #184, .T. ) ;
#435 = DIRECTION ( 'NONE',  ( -0.003630753453943478311, -0.001108458478111473472, -0.9999927944486195486 ) ) ;
#436 = ORIENTED_EDGE ( 'NONE', *, *, #638, .F. ) ;
#437 = CC_DESIGN_PERSON_AND_ORGANIZATION_ASSIGNMENT ( #238, #816, ( #287 ) ) ;
#438 = CIRCLE ( 'NONE', #565, 0.004999999999999994900 ) ;
#439 = ORIENTED_EDGE ( 'NONE', *, *, #365, .F. ) ;
#440 = ORIENTED_EDGE ( 'NONE', *, *, #184, .F. ) ;
#441 = ADVANCED_FACE ( 'NONE', ( #792 ), #844, .T. ) ;
#442 = VERTEX_POINT ( 'NONE', #337 ) ;
#443 = CARTESIAN_POINT ( 'NONE',  ( -0.1446656902349564011, 0.2169021170289940070, 0.1163128631347551956 ) ) ;
#444 = ORIENTED_EDGE ( 'NONE', *, *, #715, .F. ) ;
#445 = CARTESIAN_POINT ( 'NONE',  ( -0.1531612141548515105, 0.1859724980282690121, 0.1093094391375711988 ) ) ;
#446 = ADVANCED_BREP_SHAPE_REPRESENTATION ( 'Claw 1', ( #61, #325 ), #833 ) ;
#447 = ORIENTED_EDGE ( 'NONE', *, *, #724, .F. ) ;
#448 = AXIS2_PLACEMENT_3D ( 'NONE', #270, #344, #93 ) ;
#449 = ADVANCED_FACE ( 'NONE', ( #201 ), #188, .T. ) ;
#450 = CARTESIAN_POINT ( 'NONE',  ( -0.1394120230972870078, 0.2080964627779409992, 0.1101872303300441974 ) ) ;
#451 = ORIENTED_EDGE ( 'NONE', *, *, #239, .T. ) ;
#452 = CC_DESIGN_APPROVAL ( #285, ( #287 ) ) ;
#453 = CARTESIAN_POINT ( 'NONE',  ( -0.1578397094689940050, 0.2088605472168724997, 0.1228907049246645983 ) ) ;
#454 = CARTESIAN_POINT ( 'NONE',  ( -0.1497075535039976146, 0.1915175296267085103, 0.1121253681902902033 ) ) ;
#455 = MECHANICAL_CONTEXT ( 'NONE', #92, 'mechanical' ) ;
#456 = ORIENTED_EDGE ( 'NONE', *, *, #261, .T. ) ;
#457 = CARTESIAN_POINT ( 'NONE',  ( -0.1446656902349564011, 0.2169021170289940070, 0.1163128631347551956 ) ) ;
#458 = CARTESIAN_POINT ( 'NONE',  ( -0.1550946635151155828, 0.2105876701575875587, 0.1229958507650050215 ) ) ;
#459 = CARTESIAN_POINT ( 'NONE',  ( -0.1516959668990404964, 0.2188832917589680072, 0.1095004443823324042 ) ) ;
#460 = DIRECTION ( 'NONE',  ( 0.4834404462051261064, 0.7761382400765024503, 0.4048391869173957325 ) ) ;
#461 = EDGE_LOOP ( 'NONE', ( #713, #236, #775, #723 ) ) ;
#462 = LINE ( 'NONE', #480, #665 ) ;
#463 = CARTESIAN_POINT ( 'NONE',  ( -0.1551041332266242245, 0.2105854292798304828, 0.1229956382654222857 ) ) ;
#464 = PLANE ( 'NONE',  #167 ) ;
#465 = VECTOR ( 'NONE', #256, 1.000000000000000000 ) ;
#466 = AXIS2_PLACEMENT_3D ( 'NONE', #548, #396, #666 ) ;
#467 = DIRECTION ( 'NONE',  ( 0.8493881131629322789, -0.5277628146696672351, -0.002498933665447226459 ) ) ;
#468 = ADVANCED_FACE ( 'NONE', ( #205 ), #278, .T. ) ;
#469 = FACE_OUTER_BOUND ( 'NONE', #700, .T. ) ;
#470 = LINE ( 'NONE', #739, #427 ) ;
#471 = PERSON_AND_ORGANIZATION ( #539, #566 ) ;
#472 = CARTESIAN_POINT ( 'NONE',  ( -0.1455117110158153648, 0.2155438751088601390, 0.1156043945576497589 ) ) ;
#473 = VERTEX_POINT ( 'NONE', #649 ) ;
#474 = CARTESIAN_POINT ( 'NONE',  ( -0.1444789797497540162, 0.2171684801236430096, 0.1235211898009371950 ) ) ;
#475 = CARTESIAN_POINT ( 'NONE',  ( -0.1565330778140960055, 0.2100008630324190217, 0.1229548657310744059 ) ) ;
#476 = CARTESIAN_POINT ( 'NONE',  ( -0.1545414756484140006, 0.1868301162119170022, 0.1093134999218700054 ) ) ;
#477 = DIRECTION ( 'NONE',  ( 0.000000000000000000, 0.000000000000000000, 1.000000000000000000 ) ) ;
#478 = VERTEX_POINT ( 'NONE', #667 ) ;
#479 = DIRECTION ( 'NONE',  ( -0.4834404462051249962, -0.7761382400765030054, -0.4048391869173960100 ) ) ;
#480 = CARTESIAN_POINT ( 'NONE',  ( -0.1326713959414127786, 0.2361324811174775051, 0.1318154436110577921 ) ) ;
#481 = FACE_OUTER_BOUND ( 'NONE', #840, .T. ) ;
#482 = CARTESIAN_POINT ( 'NONE',  ( -0.1542394902455430095, 0.2107078516705684912, 0.1117431757526594072 ) ) ;
#483 = ORIENTED_EDGE ( 'NONE', *, *, #361, .T. ) ;
#484 = EDGE_CURVE ( 'NONE', #697, #319, #812, .T. ) ;
#485 = VECTOR ( 'NONE', #764, 1.000000000000000000 ) ;
#486 = CARTESIAN_POINT ( 'NONE',  ( -0.1509439776066049954, 0.2104263806059014918, 0.1230552691129992021 ) ) ;
#487 = APPROVAL_PERSON_ORGANIZATION ( #633, #285, #703 ) ;
#488 = CARTESIAN_POINT ( 'NONE',  ( -0.1554536360637265024, 0.2104891927071934898, 0.1119507862730257930 ) ) ;
#489 = CARTESIAN_POINT ( 'NONE',  ( -0.1896700662143019911, 0.1729331739584534788, 0.08680490812602328909 ) ) ;
#490 = SHAPE_DEFINITION_REPRESENTATION ( #647, #446 ) ;
#491 = LINE ( 'NONE', #755, #6 ) ;
#492 = CARTESIAN_POINT ( 'NONE',  ( -0.1557089951989744925, 0.2104090421592834936, 0.1119986544938145895 ) ) ;
#493 = COORDINATED_UNIVERSAL_TIME_OFFSET ( 2, 0, .AHEAD. ) ;
#494 = ORIENTED_EDGE ( 'NONE', *, *, #354, .F. ) ;
#495 = CARTESIAN_POINT ( 'NONE',  ( -0.1502635416835659821, 0.2105480342185805098, 0.1230702740960141900 ) ) ;
#496 = ORIENTED_EDGE ( 'NONE', *, *, #35, .F. ) ;
#497 = CARTESIAN_POINT ( 'NONE',  ( -0.1563257512208705013, 0.2101333448654175151, 0.1121216356829720096 ) ) ;
#498 = CIRCLE ( 'NONE', #284, 0.001749999999999985508 ) ;
#499 = LOCAL_TIME ( 12, 33, 59.00000000000000000, #740 ) ;
#500 = ADVANCED_FACE ( 'NONE', ( #259 ), #515, .F. ) ;
#501 = LINE ( 'NONE', #426, #750 ) ;
#502 = VERTEX_POINT ( 'NONE', #608 ) ;
#503 = ADVANCED_FACE ( 'NONE', ( #367 ), #56, .T. ) ;
#504 = LINE ( 'NONE', #563, #832 ) ;
#505 = ORIENTED_EDGE ( 'NONE', *, *, #376, .T. ) ;
#506 = ORIENTED_EDGE ( 'NONE', *, *, #127, .T. ) ;
#507 = ORIENTED_EDGE ( 'NONE', *, *, #517, .F. ) ;
#508 = ORIENTED_EDGE ( 'NONE', *, *, #14, .T. ) ;
#509 = EDGE_CURVE ( 'NONE', #322, #828, #106, .T. ) ;
#510 = AXIS2_PLACEMENT_3D ( 'NONE', #15, #796, #730 ) ;
#511 = VERTEX_POINT ( 'NONE', #744 ) ;
#512 = CARTESIAN_POINT ( 'NONE',  ( -0.1486761477415965982, 0.2112545047746815230, 0.1231236049224725959 ) ) ;
#513 = DIRECTION ( 'NONE',  ( -0.4834404462051261064, -0.7761382400765024503, -0.4048391869173957325 ) ) ;
#514 = ORIENTED_EDGE ( 'NONE', *, *, #272, .T. ) ;
#515 = PLANE ( 'NONE',  #312 ) ;
#516 = VERTEX_POINT ( 'NONE', #164 ) ;
#517 = EDGE_CURVE ( 'NONE', #46, #794, #766, .T. ) ;
#518 = ORIENTED_EDGE ( 'NONE', *, *, #304, .T. ) ;
#519 = DIRECTION ( 'NONE',  ( -0.2274280772274873408, 0.9737948476636285600, -0.0002536777058054219243 ) ) ;
#520 = CARTESIAN_POINT ( 'NONE',  ( -0.1527460242877700103, 0.2105513302900390016, 0.1116586338973242082 ) ) ;
#521 = EDGE_LOOP ( 'NONE', ( #290, #262 ) ) ;
#522 = CARTESIAN_POINT ( 'NONE',  ( -0.1365998704922125329, 0.2137743750244357199, 0.1170000907757043351 ) ) ;
#523 = VECTOR ( 'NONE', #23, 1.000000000000000000 ) ;
#524 = CARTESIAN_POINT ( 'NONE',  ( -0.1268102014565588020, 0.2294911743859849862, 0.1251980843107816099 ) ) ;
#525 = CALENDAR_DATE ( 2026, 6, 9 ) ;
#526 = ORIENTED_EDGE ( 'NONE', *, *, #677, .T. ) ;
#527 = CARTESIAN_POINT ( 'NONE',  ( -0.1329714026644490121, 0.2357025267042595074, 0.1206474028174051999 ) ) ;
#528 = CARTESIAN_POINT ( 'NONE',  ( -0.1438196694540974374, 0.2182603589491278751, 0.1170213317118606322 ) ) ;
#529 = PRODUCT_RELATED_PRODUCT_CATEGORY ( 'detail', '', ( #774 ) ) ;
#530 = CARTESIAN_POINT ( 'NONE',  ( -0.1707423379806885244, 0.1882491251261879939, 0.1054238301817822104 ) ) ;
#531 = PRODUCT_DEFINITION ( 'UNKNOWN', '', #287, #81 ) ;
#532 = DIRECTION ( 'NONE',  ( 0.003630753453943478311, 0.001108458478111473472, 0.9999927944486195486 ) ) ;
#533 = FACE_OUTER_BOUND ( 'NONE', #461, .T. ) ;
#534 = CARTESIAN_POINT ( 'NONE',  ( -0.1331839796375846319, 0.2353354002308108706, 0.1259277938240434547 ) ) ;
#535 = CARTESIAN_POINT ( 'NONE',  ( -0.1408244684299582161, 0.2058198127932714949, 0.1109143116002034024 ) ) ;
#536 = EDGE_LOOP ( 'NONE', ( #553, #447, #788, #124 ) ) ;
#537 = CARTESIAN_POINT ( 'NONE',  ( -0.1530025623192114992, 0.2106307649530759774, 0.1230291346828304017 ) ) ;
#538 = EDGE_CURVE ( 'NONE', #652, #687, #672, .T. ) ;
#539 = PERSON ( 'UNSPECIFIED', 'UNSPECIFIED', 'UNSPECIFIED', ('UNSPECIFIED'), ('UNSPECIFIED'), ('UNSPECIFIED') ) ;
#540 = CARTESIAN_POINT ( 'NONE',  ( -0.1320723016876340083, 0.2210173035856884960, 0.1262499402287415862 ) ) ;
#541 = CARTESIAN_POINT ( 'NONE',  ( -0.1340300004184435956, 0.2339771583106770025, 0.1252193252469380180 ) ) ;
#542 = AXIS2_PLACEMENT_3D ( 'NONE', #742, #152, #18 ) ;
#543 = FACE_OUTER_BOUND ( 'NONE', #536, .T. ) ;
#544 = PERSON_AND_ORGANIZATION ( #539, #566 ) ;
#545 = AXIS2_PLACEMENT_3D ( 'NONE', #86, #678, #613 ) ;
#546 = B_SPLINE_CURVE_WITH_KNOTS ( 'NONE', 3,
 ( #292, #813, #76, #218, #276, #223, #176 ),
 .UNSPECIFIED., .F., .F.,
 ( 4, 3, 4 ),
 ( 0.000000000000000000, 1.077833866245270000, 2.157464301056600142 ),
 .UNSPECIFIED. ) ;
#547 = CARTESIAN_POINT ( 'NONE',  ( -0.1436070924809617899, 0.2186274854225765119, 0.1117409407052224052 ) ) ;
#548 = CARTESIAN_POINT ( 'NONE',  ( -0.1305542004334233896, 0.2395832179046419874, 0.1226715987519921974 ) ) ;
#549 = DIRECTION ( 'NONE',  ( 0.8493881131629322789, -0.5277628146696672351, -0.002498933665447226459 ) ) ;
#550 = PERSON_AND_ORGANIZATION ( #539, #566 ) ;
#551 = CARTESIAN_POINT ( 'NONE',  ( -0.1536633529416779886, 0.2107240487587959954, 0.1230217520310064039 ) ) ;
#552 = LINE ( 'NONE', #527, #718 ) ;
#553 = ORIENTED_EDGE ( 'NONE', *, *, #743, .T. ) ;
#554 = ADVANCED_FACE ( 'NONE', ( #543 ), #691, .T. ) ;
#555 = CARTESIAN_POINT ( 'NONE',  ( -0.1566835330656605185, 0.2099196530947144979, 0.1121963728482621991 ) ) ;
#556 = CARTESIAN_POINT ( 'NONE',  ( -0.1784714104953525060, 0.1397434478726015950, 0.06030059284240879558 ) ) ;
#557 = PERSON_AND_ORGANIZATION ( #539, #566 ) ;
#558 =( BOUNDED_CURVE ( )  B_SPLINE_CURVE ( 3, ( #52, #317, #580, #271 ),
 .UNSPECIFIED., .F., .T. ) 
 B_SPLINE_CURVE_WITH_KNOTS ( ( 4, 4 ),
 ( 1.570796326794907216, 2.836899999574310716 ),
 .UNSPECIFIED. ) 
 CURVE ( )  GEOMETRIC_REPRESENTATION_ITEM ( )  RATIONAL_B_SPLINE_CURVE ( ( 1.000000000000000000, 0.8708171832199221862, 0.8708171832199221862, 1.000000000000000000 ) ) 
 REPRESENTATION_ITEM ( '' )  );
#559 = CARTESIAN_POINT ( 'NONE',  ( -0.1540955715680185079, 0.2107196983604530116, 0.1230150311312476069 ) ) ;
#560 = CARTESIAN_POINT ( 'NONE',  ( -0.1581390888938579986, 0.2084950496483549964, 0.1125157680288360051 ) ) ;
#561 = CARTESIAN_POINT ( 'NONE',  ( -0.1289743535542212105, 0.2190924098872089887, 0.1262408259419221801 ) ) ;
#562 = CALENDAR_DATE ( 2026, 6, 9 ) ;
#563 = CARTESIAN_POINT ( 'NONE',  ( -0.1710792284535405106, 0.1876891132953195096, 0.1091864978984806028 ) ) ;
#564 = ORIENTED_EDGE ( 'NONE', *, *, #248, .F. ) ;
#565 = AXIS2_PLACEMENT_3D ( 'NONE', #662, #745, #73 ) ;
#566 = ORGANIZATION ( 'UNSPECIFIED', 'UNSPECIFIED', '' ) ;
#567 = EDGE_LOOP ( 'NONE', ( #20, #258, #573, #274 ) ) ;
#568 = ORIENTED_EDGE ( 'NONE', *, *, #808, .T. ) ;
#569 = CARTESIAN_POINT ( 'NONE',  ( -0.1574536806143820022, 0.2093118791222359776, 0.1123627228568163938 ) ) ;
#570 = LINE ( 'NONE', #622, #612 ) ;
#571 = VERTEX_POINT ( 'NONE', #810 ) ;
#572 = CARTESIAN_POINT ( 'NONE',  ( -0.1495205436125381926, 0.2107902174223115210, 0.1230910136457733922 ) ) ;
#573 = ORIENTED_EDGE ( 'NONE', *, *, #165, .T. ) ;
#574 = PLANE ( 'NONE',  #654 ) ;
#575 = ADVANCED_FACE ( 'NONE', ( #626 ), #221, .F. ) ;
#576 = APPROVAL_ROLE ( '' ) ;
#577 = DIRECTION ( 'NONE',  ( 0.8493881131629322789, -0.5277628146696672351, -0.002498933665447226459 ) ) ;
#578 = ORIENTED_EDGE ( 'NONE', *, *, #664, .T. ) ;
#579 = EDGE_CURVE ( 'NONE', #319, #137, #404, .T. ) ;
#580 = CARTESIAN_POINT ( 'NONE',  ( -0.1505526607139397732, 0.2099882515447160092, 0.1116293157318152540 ) ) ;
#581 = ORIENTED_EDGE ( 'NONE', *, *, #304, .F. ) ;
#582 = EDGE_LOOP ( 'NONE', ( #183, #526 ) ) ;
#583 = CARTESIAN_POINT ( 'NONE',  ( -0.1480578723185909940, 0.2117235133145279891, 0.1231545502291962052 ) ) ;
#584 = ORIENTED_EDGE ( 'NONE', *, *, #517, .T. ) ;
#585 = CIRCLE ( 'NONE', #327, 0.001749999999999985508 ) ;
#586 = CARTESIAN_POINT ( 'NONE',  ( -0.1651817573854480192, 0.1971717853537975074, 0.1110433406200603962 ) ) ;
#587 = ORIENTED_EDGE ( 'NONE', *, *, #333, .F. ) ;
#588 = DIRECTION ( 'NONE',  ( -0.8493881131629322789, 0.5277628146696672351, 0.002498933665447226459 ) ) ;
#589 = VERTEX_POINT ( 'NONE', #676 ) ;
#590 = EDGE_CURVE ( 'NONE', #589, #442, #351, .T. ) ;
#591 = CARTESIAN_POINT ( 'NONE',  ( -0.1581955210714505178, 0.2083595575554884893, 0.1228627555240732055 ) ) ;
#592 = CARTESIAN_POINT ( 'NONE',  ( -0.1521013621531339954, 0.2104384958975115127, 0.1230373507058462046 ) ) ;
#593 = CARTESIAN_POINT ( 'NONE',  ( -0.1472564892987562046, 0.2127553265723225173, 0.1114819525372005987 ) ) ;
#594 = B_SPLINE_CURVE_WITH_KNOTS ( 'NONE', 3,
 ( #160, #85, #37, #41 ),
 .UNSPECIFIED., .F., .F.,
 ( 4, 4 ),
 ( 10.34955635794610096, 25.57956725642019791 ),
 .UNSPECIFIED. ) ;
#595 = VECTOR ( 'NONE', #395, 1.000000000000000222 ) ;
#596 = CARTESIAN_POINT ( 'NONE',  ( -0.1570281769283985163, 0.2096709155902879984, 0.1229356576213112007 ) ) ;
#597 = VECTOR ( 'NONE', #357, 1.000000000000000000 ) ;
#598 = CARTESIAN_POINT ( 'NONE',  ( -0.1559333028970540103, 0.2120533418049589947, 0.1116816881928103938 ) ) ;
#599 = CYLINDRICAL_SURFACE ( 'NONE', #114, 0.001749999999999985508 ) ;
#600 = CARTESIAN_POINT ( 'NONE',  ( -0.1529026542359724905, 0.2106115301854140087, 0.1230301030785756061 ) ) ;
#601 = DIRECTION ( 'NONE',  ( 0.006292746216696072648, 0.01486196413413392106, -0.9998697532014497735 ) ) ;
#602 = CARTESIAN_POINT ( 'NONE',  ( -0.1629760102316349935, 0.2006678290351894822, 0.1224296210906518079 ) ) ;
#603 = EDGE_CURVE ( 'NONE', #251, #828, #594, .T. ) ;
#604 = CARTESIAN_POINT ( 'NONE',  ( -0.1577642959771839992, 0.2091020556408955122, 0.1126242243346068095 ) ) ;
#605 = ORIENTED_EDGE ( 'NONE', *, *, #249, .F. ) ;
#606 = CARTESIAN_POINT ( 'NONE',  ( -0.1278687992105533855, 0.2277658059924029810, 0.1297700067403143864 ) ) ;
#607 = PLANE ( 'NONE',  #136 ) ;
#608 = CARTESIAN_POINT ( 'NONE',  ( -0.1427677871430289847, 0.2038730181775794958, 0.1116429547209960016 ) ) ;
#609 = CARTESIAN_POINT ( 'NONE',  ( -0.1578882498430294878, 0.1795689268555555052, 0.1051019092222987977 ) ) ;
#610 = DIRECTION ( 'NONE',  ( 0.4834404462051254958, 0.7761382400765031164, 0.4048391869173947888 ) ) ;
#611 = DIRECTION ( 'NONE',  ( 0.8493881131629322789, -0.5277628146696672351, -0.002498933665447226459 ) ) ;
#612 = VECTOR ( 'NONE', #409, 1.000000000000000000 ) ;
#613 = DIRECTION ( 'NONE',  ( -0.4834404462051249962, -0.7761382400765023393, -0.4048391869173971203 ) ) ;
#614 = EDGE_CURVE ( 'NONE', #250, #473, #570, .T. ) ;
#615 = DIRECTION ( 'NONE',  ( -0.8493881131629322789, 0.5277628146696672351, 0.002498933665447226459 ) ) ;
#616 = CARTESIAN_POINT ( 'NONE',  ( -0.1539954976066044978, 0.2057064198275605216, 0.1099282149221652016 ) ) ;
#617 = B_SPLINE_CURVE_WITH_KNOTS ( 'NONE', 3,
 ( #5, #474, #412, #679 ),
 .UNSPECIFIED., .F., .F.,
 ( 4, 4 ),
 ( 0.7031360477726710245, 1.000000000000000000 ),
 .UNSPECIFIED. ) ;
#618 = CARTESIAN_POINT ( 'NONE',  ( -0.1519881344702335157, 0.2333919010199465016, 0.1263085334021621930 ) ) ;
#619 = APPROVAL_STATUS ( 'not_yet_approved' ) ;
#620 = CARTESIAN_POINT ( 'NONE',  ( -0.1550851875182194806, 0.2105898833340343890, 0.1229960624705242478 ) ) ;
#621 = CARTESIAN_POINT ( 'NONE',  ( -0.1554217279661735118, 0.2104988577309980236, 0.1119448411141479999 ) ) ;
#622 = CARTESIAN_POINT ( 'NONE',  ( -0.1375493589309242093, 0.2122732709962840136, 0.1112947346811666016 ) ) ;
#623 = CARTESIAN_POINT ( 'NONE',  ( -0.1475479125197135810, 0.2122889270095779934, 0.1231916609249029959 ) ) ;
#624 = ORIENTED_EDGE ( 'NONE', *, *, #538, .F. ) ;
#625 = CARTESIAN_POINT ( 'NONE',  ( -0.1579151422454024845, 0.2088053481945039980, 0.1124653435543303964 ) ) ;
#626 = FACE_OUTER_BOUND ( 'NONE', #782, .T. ) ;
#627 = VECTOR ( 'NONE', #549, 1.000000000000000000 ) ;
#628 = CARTESIAN_POINT ( 'NONE',  ( -0.1474370358253694058, 0.2124392134450329983, 0.1232016589833379999 ) ) ;
#629 = CARTESIAN_POINT ( 'NONE',  ( -0.1570342329242599977, 0.2096731510252244912, 0.1122712018727071992 ) ) ;
#630 = APPROVAL_DATE_TIME ( #244, #285 ) ;
#631 = ADVANCED_FACE ( 'NONE', ( #298 ), #464, .T. ) ;
#632 = DIRECTION ( 'NONE',  ( 0.4834404462051254958, 0.7761382400765031164, 0.4048391869173947888 ) ) ;
#633 = PERSON_AND_ORGANIZATION ( #539, #566 ) ;
#634 = VERTEX_POINT ( 'NONE', #214 ) ;
#635 = ORIENTED_EDGE ( 'NONE', *, *, #705, .T. ) ;
#636 = CARTESIAN_POINT ( 'NONE',  ( -0.1308086242558285928, 0.2392319243279525109, 0.1103844043890681997 ) ) ;
#637 = CIRCLE ( 'NONE', #545, 0.004999999999999994900 ) ;
#638 = EDGE_CURVE ( 'NONE', #120, #420, #470, .T. ) ;
#639 = CIRCLE ( 'NONE', #699, 0.001749999999999985508 ) ;
#640 = FACE_BOUND ( 'NONE', #260, .T. ) ;
#641 = CARTESIAN_POINT ( 'NONE',  ( -0.1492644442472490229, 0.2109154713793149893, 0.1231000924593110002 ) ) ;
#642 = ORIENTED_EDGE ( 'NONE', *, *, #603, .F. ) ;
#643 = B_SPLINE_CURVE_WITH_KNOTS ( 'NONE', 3,
 ( #25, #277, #784, #453, #797, #209, #733, #596, #809, #475, #657, #407, #803, #70, #203, #675, #463, #458, #88 ),
 .UNSPECIFIED., .F., .F.,
 ( 4, 3, 3, 3, 3, 3, 4 ),
 ( 0.000000000000000000, 0.06157040560469040358, 0.1467398549157979959, 0.2362558829351699974, 0.3112416433894660273, 0.3907252620892400219, 0.3936584038753414561 ),
 .UNSPECIFIED. ) ;
#644 = ORIENTED_EDGE ( 'NONE', *, *, #53, .T. ) ;
#645 = CARTESIAN_POINT ( 'NONE',  ( -0.1340300004184435956, 0.2339771583106770025, 0.1252193252469380180 ) ) ;
#646 = ORIENTED_EDGE ( 'NONE', *, *, #326, .T. ) ;
#647 = PRODUCT_DEFINITION_SHAPE ( 'NONE', 'NONE',  #531 ) ;
#648 = ORIENTED_EDGE ( 'NONE', *, *, #53, .F. ) ;
#649 = CARTESIAN_POINT ( 'NONE',  ( -0.1447691578928091971, 0.2167592549209760022, 0.1113159756173230097 ) ) ;
#650 = ORIENTED_EDGE ( 'NONE', *, *, #677, .F. ) ;
#651 = CIRCLE ( 'NONE', #773, 0.001749999999999985508 ) ;
#652 = VERTEX_POINT ( 'NONE', #472 ) ;
#653 = EDGE_CURVE ( 'NONE', #511, #473, #438, .T. ) ;
#654 = AXIS2_PLACEMENT_3D ( 'NONE', #31, #824, #814 ) ;
#655 = DIRECTION ( 'NONE',  ( -0.8493881131629322789, 0.5277628146696672351, 0.002498933665447226459 ) ) ;
#656 = EDGE_CURVE ( 'NONE', #706, #321, #789, .T. ) ;
#657 = CARTESIAN_POINT ( 'NONE',  ( -0.1563199306869619831, 0.2101295825869609890, 0.1229625653088908116 ) ) ;
#658 = CARTESIAN_POINT ( 'NONE',  ( -0.1681525148530800262, 0.1924048263918139989, 0.1080410997006066021 ) ) ;
#659 = CARTESIAN_POINT ( 'NONE',  ( -0.1233344014715384018, 0.2350972339799499988, 0.1226503578158359975 ) ) ;
#660 = CARTESIAN_POINT ( 'NONE',  ( -0.1651817573854480192, 0.1971717853537975074, 0.1110433406200603962 ) ) ;
#661 = PERSON_AND_ORGANIZATION_ROLE ( 'design_owner' ) ;
#662 = CARTESIAN_POINT ( 'NONE',  ( -0.1446656902349564011, 0.2169021170289940070, 0.1163128631347551956 ) ) ;
#663 = DIRECTION ( 'NONE',  ( 0.8493881131629322789, -0.5277628146696672351, -0.002498933665447226459 ) ) ;
#664 = EDGE_CURVE ( 'NONE', #834, #321, #275, .T. ) ;
#665 = VECTOR ( 'NONE', #150, 1.000000000000000000 ) ;
#666 = DIRECTION ( 'NONE',  ( -0.2117195507989359238, -0.3450736787164428443, 0.9143844859065566322 ) ) ;
#667 = CARTESIAN_POINT ( 'NONE',  ( -0.1329714026644490121, 0.2357025267042595074, 0.1206474028174051999 ) ) ;
#668 = APPROVAL_ROLE ( '' ) ;
#669 = CARTESIAN_POINT ( 'NONE',  ( -0.1326713959414127786, 0.2361324811174775051, 0.1318154436110577921 ) ) ;
#670 = DIRECTION ( 'NONE',  ( 0.003630753453943508235, 0.001108458478111473472, 0.9999927944486195486 ) ) ;
#671 = DIRECTION ( 'NONE',  ( -0.8493881131629322789, 0.5277628146696672351, 0.002498933665447206076 ) ) ;
#672 = LINE ( 'NONE', #749, #627 ) ;
#673 = CARTESIAN_POINT ( 'NONE',  ( -0.1582330115296294859, 0.2083481118275575250, 0.1125370232717030072 ) ) ;
#674 = DIRECTION ( 'NONE',  ( -0.8493881131629322789, 0.5277628146696672351, 0.002498933665447226459 ) ) ;
#675 = CARTESIAN_POINT ( 'NONE',  ( -0.1551135965302095077, 0.2105831607260229832, 0.1229954249716840031 ) ) ;
#676 = CARTESIAN_POINT ( 'NONE',  ( -0.1348760211993025593, 0.2326189163905431345, 0.1245108566698325814 ) ) ;
#677 = EDGE_CURVE ( 'NONE', #687, #132, #243, .T. ) ;
#678 = DIRECTION ( 'NONE',  ( -0.8493881131629322789, 0.5277628146696672351, 0.002498933665447226459 ) ) ;
#679 = CARTESIAN_POINT ( 'NONE',  ( -0.1392921006495188019, 0.2255032875103804846, 0.1262711811648979943 ) ) ;
#680 = DIRECTION ( 'NONE',  ( -0.003630753453943478311, -0.001108458478111473472, -0.9999927944486195486 ) ) ;
#681 = CARTESIAN_POINT ( 'NONE',  ( -0.2133003166084275204, 0.1351527040522248202, 0.03393169247927434878 ) ) ;
#682 = CARTESIAN_POINT ( 'NONE',  ( -0.1488645963837590125, 0.2111281264599474961, 0.1231151100407023996 ) ) ;
#683 = CARTESIAN_POINT ( 'NONE',  ( -0.1580047740117949961, 0.2086880426372140218, 0.1124854819299626052 ) ) ;
#684 = DIRECTION ( 'NONE',  ( 0.8493881131629340553, -0.5277628146696641265, -0.002498933665454671025 ) ) ;
#685 = PERSON_AND_ORGANIZATION_ROLE ( 'design_supplier' ) ;
#686 = DIRECTION ( 'NONE',  ( -0.5273628835713145557, -0.8489110837865512238, 0.03519035174150667022 ) ) ;
#687 = VERTEX_POINT ( 'NONE', #147 ) ;
#688 = CARTESIAN_POINT ( 'NONE',  ( -0.1517942494799625064, 0.2104180197401079866, 0.1230415477414266018 ) ) ;
#689 = ORIENTED_EDGE ( 'NONE', *, *, #822, .T. ) ;
#690 = DIRECTION ( 'NONE',  ( -0.2274280772274873408, 0.9737948476636285600, -0.0002536777058054219243 ) ) ;
#691 = PLANE ( 'NONE',  #698 ) ;
#692 = CARTESIAN_POINT ( 'NONE',  ( -0.1472138575055373932, 0.2127683419348994909, 0.1232237264070139976 ) ) ;
#693 = ADVANCED_FACE ( 'NONE', ( #400 ), #353, .T. ) ;
#694 = LINE ( 'NONE', #111, #597 ) ;
#695 = VECTOR ( 'NONE', #435, 1.000000000000000000 ) ;
#696 = DIRECTION ( 'NONE',  ( -0.006292746216696478573, -0.01486196413413453689, 0.9998697532014497735 ) ) ;
#697 = VERTEX_POINT ( 'NONE', #673 ) ;
#698 = AXIS2_PLACEMENT_3D ( 'NONE', #173, #424, #169 ) ;
#699 = AXIS2_PLACEMENT_3D ( 'NONE', #645, #264, #513 ) ;
#700 = EDGE_LOOP ( 'NONE', ( #642, #301, #568, #505, #142, #778, #436, #97, #770, #252 ) ) ;
#701 = EDGE_CURVE ( 'NONE', #420, #250, #637, .T. ) ;
#702 = ORIENTED_EDGE ( 'NONE', *, *, #408, .F. ) ;
#703 = APPROVAL_ROLE ( '' ) ;
#704 = CYLINDRICAL_SURFACE ( 'NONE', #125, 0.001749999999999985508 ) ;
#705 = EDGE_CURVE ( 'NONE', #478, #511, #501, .T. ) ;
#706 = VERTEX_POINT ( 'NONE', #823 ) ;
#707 = VERTEX_POINT ( 'NONE', #373 ) ;
#708 = CARTESIAN_POINT ( 'NONE',  ( -0.1320723016876340083, 0.2210173035856884960, 0.1262499402287415862 ) ) ;
#709 = ORIENTED_EDGE ( 'NONE', *, *, #239, .F. ) ;
#710 = CIRCLE ( 'NONE', #230, 0.001749999999999985508 ) ;
#711 = B_SPLINE_CURVE_WITH_KNOTS ( 'NONE', 3,
 ( #418, #100, #362, #827, #621, #488, #747, #492, #413, #36, #497, #296, #555, #293, #225, #629, #241, #759, #569, #423, #168, #105, #625, #683, #178, #560, #366, #428 ),
 .UNSPECIFIED., .F., .F.,
 ( 4, 3, 3, 3, 3, 3, 3, 3, 3, 4 ),
 ( -2.513204045183099034, -2.485427314217569794, -2.475265534709720328, -2.403867742852909828, -2.340241333481530184, -2.296674615803560027, -2.240468042099239998, -2.185883842689769985, -2.141167349962919797, -2.114786087983150153 ),
 .UNSPECIFIED. ) ;
#712 = ORIENTED_EDGE ( 'NONE', *, *, #249, .T. ) ;
#713 = ORIENTED_EDGE ( 'NONE', *, *, #579, .T. ) ;
#714 = CARTESIAN_POINT ( 'NONE',  ( -0.1615188151762229907, 0.2030597510896094970, 0.1125680718926276025 ) ) ;
#715 = EDGE_CURVE ( 'NONE', #46, #502, #430, .T. ) ;
#716 = ORIENTED_EDGE ( 'NONE', *, *, #333, .T. ) ;
#717 = CARTESIAN_POINT ( 'NONE',  ( -0.1593189948778609977, 0.2065991516867040079, 0.1127830400466462019 ) ) ;
#718 = VECTOR ( 'NONE', #663, 1.000000000000000000 ) ;
#719 = ORIENTED_EDGE ( 'NONE', *, *, #138, .F. ) ;
#720 = CARTESIAN_POINT ( 'NONE',  ( -0.1531084122317114826, 0.2166066417742984751, 0.1102275256524918035 ) ) ;
#721 = CARTESIAN_POINT ( 'NONE',  ( -0.1374458912730714133, 0.2124161331043019907, 0.1162916221985990095 ) ) ;
#722 = CARTESIAN_POINT ( 'NONE',  ( -0.1668576032892760130, 0.1944826770246264880, 0.1093497344600189991 ) ) ;
#723 = ORIENTED_EDGE ( 'NONE', *, *, #272, .F. ) ;
#724 = EDGE_CURVE ( 'NONE', #707, #571, #504, .T. ) ;
#725 = CARTESIAN_POINT ( 'NONE',  ( -0.1232562367634999906, 0.2352818403580584916, 0.1102305772233807962 ) ) ;
#726 = PLANE ( 'NONE',  #466 ) ;
#727 = CARTESIAN_POINT ( 'NONE',  ( -0.1634039426384219784, 0.2000277086230654866, 0.1121656635127380036 ) ) ;
#728 =( LENGTH_UNIT ( ) NAMED_UNIT ( * ) SI_UNIT ( $, .METRE. ) );
#729 = ORIENTED_EDGE ( 'NONE', *, *, #653, .T. ) ;
#730 = DIRECTION ( 'NONE',  ( -0.4834404462051261064, -0.7761382400765024503, -0.4048391869173957325 ) ) ;
#731 = CARTESIAN_POINT ( 'NONE',  ( -0.1392921006495188019, 0.2255032875103804846, 0.1262711811648979943 ) ) ;
#732 = VECTOR ( 'NONE', #368, 1.000000000000000222 ) ;
#733 = CARTESIAN_POINT ( 'NONE',  ( -0.1572520103042009953, 0.2094739084249809813, 0.1229246683323937939 ) ) ;
#734 = LOCAL_TIME ( 12, 33, 59.00000000000000000, #107 ) ;
#735 = CARTESIAN_POINT ( 'NONE',  ( -0.1235888252939436049, 0.2347459404032604946, 0.1103631634529119998 ) ) ;
#736 = CARTESIAN_POINT ( 'NONE',  ( 0.000000000000000000, 0.000000000000000000, 0.000000000000000000 ) ) ;
#737 = CARTESIAN_POINT ( 'NONE',  ( -0.1582424381724194806, 0.2083452339009090049, 0.1099407095904924025 ) ) ;
#738 = CARTESIAN_POINT ( 'NONE',  ( -0.1537602345787130176, 0.2107031172911190131, 0.1116752949392510047 ) ) ;
#739 = CARTESIAN_POINT ( 'NONE',  ( -0.1233344014715384018, 0.2350972339799499988, 0.1226503578158359975 ) ) ;
#740 = COORDINATED_UNIVERSAL_TIME_OFFSET ( 2, 0, .AHEAD. ) ;
#741 = LINE ( 'NONE', #540, #186 ) ;
#742 = CARTESIAN_POINT ( 'NONE',  ( -0.1340300004184435956, 0.2339771583106770025, 0.1252193252469380180 ) ) ;
#743 = EDGE_CURVE ( 'NONE', #251, #571, #491, .T. ) ;
#744 = CARTESIAN_POINT ( 'NONE',  ( -0.1436070924809617899, 0.2186274854225765119, 0.1117409407052224052 ) ) ;
#745 = DIRECTION ( 'NONE',  ( -0.8493881131629322789, 0.5277628146696672351, 0.002498933665447226459 ) ) ;
#746 = CARTESIAN_POINT ( 'NONE',  ( -0.1668576032892760130, 0.1944826770246264880, 0.1093497344600189991 ) ) ;
#747 = CARTESIAN_POINT ( 'NONE',  ( -0.1554854521116079968, 0.2104792064826254971, 0.1119567503345939991 ) ) ;
#748 = VECTOR ( 'NONE', #145, 1.000000000000000000 ) ;
#749 = CARTESIAN_POINT ( 'NONE',  ( -0.1455117110158153648, 0.2155438751088601390, 0.1156043945576497589 ) ) ;
#750 = VECTOR ( 'NONE', #235, 1.000000000000000000 ) ;
#751 = CC_DESIGN_PERSON_AND_ORGANIZATION_ASSIGNMENT ( #550, #811, ( #531 ) ) ;
#752 = CARTESIAN_POINT ( 'NONE',  ( -0.1512158325839910167, 0.2104055537977304879, 0.1230502914512821983 ) ) ;
#753 = DIRECTION ( 'NONE',  ( -0.4834404462051261064, -0.7761382400765024503, -0.4048391869173957325 ) ) ;
#754 = CARTESIAN_POINT ( 'NONE',  ( -0.1544768389408124887, 0.2106845997076070010, 0.1117810626652590011 ) ) ;
#755 = CARTESIAN_POINT ( 'NONE',  ( -0.1579391082346389974, 0.1794488114773094833, 0.1131829227759773987 ) ) ;
#756 = ADVANCED_FACE ( 'NONE', ( #170 ), #181, .T. ) ;
#757 = EDGE_LOOP ( 'NONE', ( #384, #689, #328, #318 ) ) ;
#758 = DIRECTION ( 'NONE',  ( -0.8493881131629322789, 0.5277628146696672351, 0.002498933665447226459 ) ) ;
#759 = CARTESIAN_POINT ( 'NONE',  ( -0.1573206875259224868, 0.2094399276292250034, 0.1123334064020090062 ) ) ;
#760 = APPROVAL ( #619, 'UNSPECIFIED' ) ;
#761 = DATE_TIME_ROLE ( 'creation_date' ) ;
#762 = CIRCLE ( 'NONE', #199, 0.004999999999999994900 ) ;
#763 = ADVANCED_FACE ( 'NONE', ( #48 ), #704, .F. ) ;
#764 = DIRECTION ( 'NONE',  ( -0.8493881131629322789, 0.5277628146696672351, 0.002498933665447226459 ) ) ;
#765 = VERTEX_POINT ( 'NONE', #315 ) ;
#766 = B_SPLINE_CURVE_WITH_KNOTS ( 'NONE', 3,
 ( #27, #96, #482, #754, #281, #210, #32 ),
 .UNSPECIFIED., .F., .F.,
 ( 4, 3, 4 ),
 ( -2.652754603236760378, -2.580091620424199927, -2.513204045183099034 ),
 .UNSPECIFIED. ) ;
#767 = LINE ( 'NONE', #182, #695 ) ;
#768 = ORIENTED_EDGE ( 'NONE', *, *, #354, .T. ) ;
#769 = ORIENTED_EDGE ( 'NONE', *, *, #829, .F. ) ;
#770 = ORIENTED_EDGE ( 'NONE', *, *, #65, .F. ) ;
#771 = EDGE_LOOP ( 'NONE', ( #198, #131, #440, #148 ) ) ;
#772 = EDGE_LOOP ( 'NONE', ( #54, #506, #388, #253, #712, #369, #387, #776 ) ) ;
#773 = AXIS2_PLACEMENT_3D ( 'NONE', #457, #615, #212 ) ;
#774 = PRODUCT ( 'Claw 1', 'Claw 1', '', ( #455 ) ) ;
#775 = ORIENTED_EDGE ( 'NONE', *, *, #777, .T. ) ;
#776 = ORIENTED_EDGE ( 'NONE', *, *, #656, .F. ) ;
#777 = EDGE_CURVE ( 'NONE', #765, #707, #174, .T. ) ;
#778 = ORIENTED_EDGE ( 'NONE', *, *, #701, .F. ) ;
#779 = CARTESIAN_POINT ( 'NONE',  ( -0.1666014781252780075, 0.1949540076846875136, 0.09686395844939250932 ) ) ;
#780 = ORIENTED_EDGE ( 'NONE', *, *, #195, .F. ) ;
#781 = CARTESIAN_POINT ( 'NONE',  ( -0.1422369137626293967, 0.2035431628086020184, 0.1116413928703628017 ) ) ;
#782 = EDGE_LOOP ( 'NONE', ( #624, #456, #644, #650 ) ) ;
#783 = AXIS2_PLACEMENT_3D ( 'NONE', #233, #611, #419 ) ;
#784 = CARTESIAN_POINT ( 'NONE',  ( -0.1579684827039314898, 0.2087009836213704894, 0.1228818682211419988 ) ) ;
#785 = EDGE_CURVE ( 'NONE', #473, #340, #44, .T. ) ;
#786 = CARTESIAN_POINT ( 'NONE',  ( -0.1340300004184435956, 0.2339771583106770025, 0.1252193252469380180 ) ) ;
#787 = DATE_AND_TIME ( #525, #269 ) ;
#788 = ORIENTED_EDGE ( 'NONE', *, *, #777, .F. ) ;
#789 = B_SPLINE_CURVE_WITH_KNOTS ( 'NONE', 3,
 ( #620, #206, #339, #806, #155, #559, #217, #551, #817, #537, #600, #9, #291 ),
 .UNSPECIFIED., .F., .F.,
 ( 4, 3, 3, 3, 4 ),
 ( 0.3936584038753415116, 0.4745218784494339981, 0.5037397422740430564, 0.6042129044685150552, 0.6348858882064669640 ),
 .UNSPECIFIED. ) ;
#790 = LINE ( 'NONE', #334, #595 ) ;
#791 = CYLINDRICAL_SURFACE ( 'NONE', #4, 0.004999999999999989696 ) ;
#792 = FACE_OUTER_BOUND ( 'NONE', #567, .T. ) ;
#793 = CARTESIAN_POINT ( 'NONE',  ( -0.1340300004184435956, 0.2339771583106770025, 0.1252193252469380180 ) ) ;
#794 = VERTEX_POINT ( 'NONE', #103 ) ;
#795 = EDGE_LOOP ( 'NONE', ( #702, #62 ) ) ;
#796 = DIRECTION ( 'NONE',  ( -0.8493881131629322789, 0.5277628146696672351, 0.002498933665447226459 ) ) ;
#797 = CARTESIAN_POINT ( 'NONE',  ( -0.1576615793202969795, 0.2090812692248825155, 0.1229029286085166067 ) ) ;
#798 = CARTESIAN_POINT ( 'NONE',  ( -0.1582330115296294859, 0.2083481118275575250, 0.1125370232717030072 ) ) ;
#799 = EDGE_LOOP ( 'NONE', ( #10, #191, #768, #57 ) ) ;
#800 = CARTESIAN_POINT ( 'NONE',  ( -0.1534175580510085957, 0.2106874048392035625, 0.1116686485571571907 ) ) ;
#801 = VECTOR ( 'NONE', #66, 1.000000000000000000 ) ;
#802 = CIRCLE ( 'NONE', #448, 0.004999999999999994900 ) ;
#803 = CARTESIAN_POINT ( 'NONE',  ( -0.1558663568774804886, 0.2103382830896494970, 0.1229762860542693986 ) ) ;
#804 = APPROVAL_PERSON_ORGANIZATION ( #471, #760, #668 ) ;
#805 = DIRECTION ( 'NONE',  ( -0.5273628835713146668, -0.8489110837865514458, 0.03519035174150667716 ) ) ;
#806 = CARTESIAN_POINT ( 'NONE',  ( -0.1542896953155659945, 0.2107092358945724941, 0.1230117632912939990 ) ) ;
#807 = DIRECTION ( 'NONE',  ( 0.8493881131629322789, -0.5277628146696672351, -0.002498933665447226459 ) ) ;
#808 = EDGE_CURVE ( 'NONE', #765, #137, #39, .T. ) ;
#809 = CARTESIAN_POINT ( 'NONE',  ( -0.1567875272467499914, 0.2098472010147075240, 0.1229456741776465967 ) ) ;
#810 = CARTESIAN_POINT ( 'NONE',  ( -0.1711046239886639952, 0.1876291351046895095, 0.1132216562477918048 ) ) ;
#811 = PERSON_AND_ORGANIZATION_ROLE ( 'creator' ) ;
#812 = B_SPLINE_CURVE_WITH_KNOTS ( 'NONE', 3,
 ( #798, #717, #389, #714, #58, #586, #841 ),
 .UNSPECIFIED., .F., .F.,
 ( 4, 3, 4 ),
 ( 0.4485968182231510060, 1.079624937385390115, 2.157453315352739764 ),
 .UNSPECIFIED. ) ;
#813 = CARTESIAN_POINT ( 'NONE',  ( -0.1520162416314229936, 0.1889914617264180086, 0.1110046071482460039 ) ) ;
#814 = DIRECTION ( 'NONE',  ( -0.8493881131629322789, 0.5277628146696672351, 0.002498933665447226459 ) ) ;
#815 = CARTESIAN_POINT ( 'NONE',  ( -0.1480644061286360003, 0.1883587140781975144, 0.1283369476096316020 ) ) ;
#816 = PERSON_AND_ORGANIZATION_ROLE ( 'creator' ) ;
#817 = CARTESIAN_POINT ( 'NONE',  ( -0.1533298236361264888, 0.2106937708199850268, 0.1230259625824692005 ) ) ;
#818 = CARTESIAN_POINT ( 'NONE',  ( -0.1268102014565588020, 0.2294911743859849862, 0.1251980843107816099 ) ) ;
#819 = AXIS2_PLACEMENT_3D ( 'NONE', #443, #146, #397 ) ;
#820 = CARTESIAN_POINT ( 'NONE',  ( -0.1902865356924149931, 0.1208532129194876126, 0.03386398501903439828 ) ) ;
#821 = DATE_AND_TIME ( #38, #245 ) ;
#822 = EDGE_CURVE ( 'NONE', #589, #634, #639, .T. ) ;
#823 = CARTESIAN_POINT ( 'NONE',  ( -0.1550851875182194806, 0.2105898833340343890, 0.1229960624705242478 ) ) ;
#824 = DIRECTION ( 'NONE',  ( -0.2117195507989359515, -0.3450736787164428998, 0.9143844859065567432 ) ) ;
#825 = ORIENTED_EDGE ( 'NONE', *, *, #785, .T. ) ;
#826 = CARTESIAN_POINT ( 'NONE',  ( -0.1497872806705208004, 0.2106868971785084976, 0.1230828933920625895 ) ) ;
#827 = CARTESIAN_POINT ( 'NONE',  ( -0.1553897327299585129, 0.2105082005394204869, 0.1119389174585018049 ) ) ;
#828 = VERTEX_POINT ( 'NONE', #708 ) ;
#829 = EDGE_CURVE ( 'NONE', #706, #794, #380, .T. ) ;
#830 = APPROVAL_STATUS ( 'not_yet_approved' ) ;
#831 = DIRECTION ( 'NONE',  ( 0.8493881131629322789, -0.5277628146696672351, -0.002498933665447226459 ) ) ;
#832 = VECTOR ( 'NONE', #696, 1.000000000000000000 ) ;
#833 =( GEOMETRIC_REPRESENTATION_CONTEXT ( 3 ) GLOBAL_UNCERTAINTY_ASSIGNED_CONTEXT ( ( #143 ) ) GLOBAL_UNIT_ASSIGNED_CONTEXT ( ( #728, #282, #347 ) ) REPRESENTATION_CONTEXT ( 'NONE', 'WORKASPACE' ) );
#834 = VERTEX_POINT ( 'NONE', #520 ) ;
#835 = EDGE_LOOP ( 'NONE', ( #780, #496, #433, #16 ) ) ;
#836 = CC_DESIGN_PERSON_AND_ORGANIZATION_ASSIGNMENT ( #557, #227, ( #135 ) ) ;
#837 = VERTEX_POINT ( 'NONE', #161 ) ;
#838 = ADVANCED_FACE ( 'NONE', ( #359 ), #599, .F. ) ;
#839 = VECTOR ( 'NONE', #686, 1.000000000000000222 ) ;
#840 = EDGE_LOOP ( 'NONE', ( #769, #316, #74, #716, #584 ) ) ;
#841 = CARTESIAN_POINT ( 'NONE',  ( -0.1668576032892760130, 0.1944826770246264880, 0.1093497344600189991 ) ) ;
#842 = EDGE_LOOP ( 'NONE', ( #581, #30, #194, #439 ) ) ;
#843 = ORIENTED_EDGE ( 'NONE', *, *, #484, .T. ) ;
#844 = CYLINDRICAL_SURFACE ( 'NONE', #134, 0.004999999999999998369 ) ;
ENDSEC;
END-ISO-10303-21;
